<svg xmlns="http://www.w3.org/2000/svg" viewBox="0 0 32.497 32.5"><defs><style>.cls-1{fill:#fff}</style></defs><g id="chat" transform="translate(-.019)"><g id="Group_70" data-name="Group 70" transform="translate(.019)"><path id="Path_63" data-name="Path 63" class="cls-1" d="M27.748 4.762a16.246 16.246 0 0 0-24 21.85 6.217 6.217 0 0 1-2.6 2.886 1.524 1.524 0 0 0 .44 2.872 8.4 8.4 0 0 0 1.285.1 9.7 9.7 0 0 0 5.717-1.9A16.244 16.244 0 0 0 27.748 4.762zm-1.313 21.664a14.391 14.391 0 0 1-17.466 2.24.924.924 0 0 0-1.127.144.305.305 0 0 0-.076.055 7.933 7.933 0 0 1-4.9 1.745h-.005a9.1 9.1 0 0 0 2.79-3.7.949.949 0 0 0 .048-.6.965.965 0 0 0-.227-.522 14.392 14.392 0 1 1 20.964.639z" transform="translate(-.019)"/><circle id="Ellipse_54" data-name="Ellipse 54" class="cls-1" cx="1.141" cy="1.141" r="1.141" transform="translate(15.1 15.109)"/><circle id="Ellipse_55" data-name="Ellipse 55" class="cls-1" cx="1.141" cy="1.141" r="1.141" transform="translate(20.982 15.109)"/><circle id="Ellipse_56" data-name="Ellipse 56" class="cls-1" cx="1.141" cy="1.141" r="1.141" transform="translate(9.218 15.109)"/></g></g></svg>