<svg xmlns="http://www.w3.org/2000/svg" viewBox="0 0 80.125 73.824"><defs><style>.cls-1{fill:#4b3283}</style></defs><path id="Subtraction_6" data-name="Subtraction 6" class="cls-1" d="M-202.445-38.441H-221a36.328 36.328 0 0 1 2.873-14.23 36.431 36.431 0 0 1 7.835-11.621 36.432 36.432 0 0 1 11.621-7.835A36.329 36.329 0 0 1-184.441-75a36.329 36.329 0 0 1 14.23 2.873 36.432 36.432 0 0 1 11.621 7.835 36.431 36.431 0 0 1 7.835 11.621 36.331 36.331 0 0 1 2.873 14.23h-18.009a18.354 18.354 0 0 0-18.277-18.007 18.354 18.354 0 0 0-18.277 18.007z" transform="rotate(142 -88.31 28.73)"/></svg>