<svg id="Camada_1" xmlns="http://www.w3.org/2000/svg" viewBox="0 0 764.7 235.4"><style>.st0{fill:#363636}.st1{fill:url(#SVGID_1_)}.st2{fill:url(#SVGID_2_)}.st3{fill:url(#SVGID_3_)}</style><circle class="st0" cx="591.3" cy="23.4" r="10.3"/><path class="st0" d="M257.1 91.9c3.1 0 5 3.2 3.6 5.9-1.2 2.3-2.6 4.5-4.2 6.6-2.9 3.8-6.2 7.1-10.1 9.8-3.9 2.7-8.1 4.9-12.7 6.4s-9.4 2.3-14.3 2.3c-6.2 0-12.1-1.2-17.6-3.6s-10.4-5.6-14.6-9.7c-4.2-4.1-7.5-8.9-10-14.5s-3.7-11.6-3.7-17.9c0-6.2 1.2-12.1 3.7-17.7s5.8-10.5 10-14.8 9.1-7.6 14.7-10.2c5.6-2.5 11.6-3.8 18-3.8 5 0 9.8.8 14.5 2.4 4.6 1.6 8.8 3.8 12.5 6.6s7.1 6.2 10 10.1c1.6 2.2 3.1 4.5 4.3 6.8 1.4 2.7-.5 6-3.6 6h-8.9c-1.4 0-2.7-.7-3.5-2-2.5-4-5.8-7.2-9.8-9.6-4.7-2.8-9.9-4.2-15.5-4.2-4 0-7.8.8-11.5 2.4-3.7 1.6-6.9 3.7-9.7 6.4s-5.1 5.9-6.7 9.6c-1.7 3.7-2.5 7.7-2.5 11.9 0 3.9.8 7.6 2.3 11.2s3.6 6.8 6.4 9.5c2.7 2.7 5.9 4.9 9.5 6.6 3.6 1.6 7.5 2.5 11.7 2.5 5.3 0 10.3-1.4 15.2-4.1 4.2-2.4 7.6-5.5 10.2-9.2.8-1.1 2-1.7 3.3-1.7h9zm61.1 31.5c-6.4 0-12.5-1.2-18.1-3.7-5.7-2.5-10.6-5.8-14.9-10s-7.6-9.1-10.1-14.7-3.7-11.6-3.7-17.9c0-6.4 1.2-12.4 3.7-18s5.8-10.5 10.1-14.7c4.3-4.2 9.2-7.5 14.9-10 5.7-2.5 11.7-3.7 18.1-3.7 6.3 0 12.3 1.2 18 3.7s10.6 5.8 14.8 10c4.2 4.2 7.5 9.1 10 14.7s3.7 11.6 3.7 18c0 6.3-1.2 12.3-3.7 17.9s-5.8 10.5-10 14.7-9.1 7.5-14.8 10c-5.7 2.5-11.7 3.7-18 3.7zm0-76.2c-4.2 0-8.2.8-11.9 2.4-3.7 1.6-7 3.7-9.7 6.4s-4.9 5.8-6.6 9.5c-1.6 3.6-2.5 7.5-2.5 11.7s.8 8.1 2.5 11.7c1.6 3.6 3.8 6.8 6.6 9.5 2.7 2.7 6 4.9 9.7 6.5s7.7 2.4 11.9 2.4 8.1-.8 11.8-2.4c3.7-1.6 6.9-3.7 9.6-6.5 2.7-2.7 4.9-5.9 6.5-9.5s2.4-7.5 2.4-11.7-.8-8.1-2.4-11.7c-1.6-3.6-3.7-6.8-6.5-9.5-2.7-2.7-6-4.8-9.6-6.4-3.7-1.6-7.6-2.4-11.8-2.4zm434.6 35c4.6-.1 8.8-3.3 9.8-7.8 1-4.3.6-10-1.2-15.2-2.2-5.8-5.8-10.5-10-14.7-4.2-4.2-9.2-7.5-14.8-10s-11.7-3.7-18-3.7c-6.5 0-12.5 1.2-18.2 3.7-5.7 2.5-10.7 5.8-14.9 10-4.3 4.2-7.6 9.2-10.1 14.7-2.5 5.7-3.7 11.6-3.7 18.1 0 6.3 1.2 12.3 3.7 17.9 2.5 5.7 5.9 10.5 10.1 14.7 4.3 4.2 9.3 7.5 14.9 10 5.7 2.5 11.7 3.7 18.2 3.7 6.3 0 12.4-1.2 18-3.7s10.6-5.8 14.8-10c4.2-4.2 7.5-9.2 10-14.7.5-1.2-.1-2.3-1.8-2.7 0 0-12.8-2.7-16.3 2.1-1 1.4-2.1 2.8-3.3 4-2.8 2.8-6 4.9-9.7 6.5-3.7 1.5-7.6 2.4-11.8 2.4s-8.2-.8-11.9-2.4-7-3.7-9.8-6.5-4.9-6-6.6-9.6c-.9-2-1.5-4-2-6.2.7.2 1.4.3 2.3.3l62.3-.9zm-62.5-17c1.6-3.5 3.7-6.6 6.4-9.3 2.8-2.7 6-4.8 9.8-6.4 3.7-1.5 7.7-2.4 11.9-2.4s8.1.8 11.8 2.4c3.7 1.5 6.9 3.7 9.7 6.4 2.5 2.4 5 6.1 6.6 9.3m-79.3 42.3c-.4-.7-1.2-1-2-.8-3.6 1.1-13.2 3.9-17-2.2-.8-1.3-1.3-1.8-1.3-4.4v-93c0-2.8-2.3-5.1-5.1-5.1h-8.9c-2.3 0-4.1 1.8-4.1 4.1v28c0 2.3-1.8 4.1-4.1 4.1H613c-2.3 0-4.1 1.8-4.1 4.1v8c0 2.3 1.8 4.1 4.1 4.1h14.2c.9 0 1.7.7 1.7 1.7 0 0 .6 35.3.6 47.8 0 13.1 11.1 17.8 17 19.2 3.5.9 7.1 1.2 10.6.8 2.9-.3 6.5-.9 9.8-2.3 3.5-1.5 5-5.7 3.1-9l-2.8-5.1zm-69.8 16.2h-12.1c-1.6 0-2.9-1.3-2.9-2.9V43.4c0-1.6 1.3-2.9 2.9-2.9h12.1c1.6 0 2.9 1.3 2.9 2.9v77.3c0 1.7-1.3 3-2.9 3zM461.5 40.8h-8.6c-1.5 0-2.8 1-3.3 2.4-3.8-3.6-8.3-6.6-13.3-8.8-5.5-2.5-11.4-3.7-17.6-3.7-6.3 0-12.2 1.2-17.8 3.7-5.5 2.5-10.4 5.8-14.6 10s-7.5 9.1-9.9 14.7-3.6 11.6-3.6 18c0 6.3 1.2 12.2 3.6 17.8 2.4 5.6 5.7 10.5 9.9 14.7 4.2 4.2 9 7.5 14.6 10 5.5 2.5 11.5 3.7 17.8 3.7 6.2 0 12-1.2 17.6-3.7 4.9-2.2 9.3-5 13.1-8.6v22.6c0 10.9-8.4 20.3-19.3 20.9h-1.2c-11.4 0-20.7-8.5-20.7-19v-.4c.1-2.6-2-4.7-4.5-4.7h-7.2c-1.5 0-2.7 1.2-2.8 2.6-1.4 20.6 14.9 37.8 35.2 37.8 15.4 0 24.3-7.5 29.3-15.2 4-6.2 6-13.6 6-21V43.5c0-1.5-1.2-2.7-2.7-2.7zM418.6 109c-17.2 0-31.1-13.9-31.1-31.1s13.9-31.1 31.1-31.1 31.1 13.9 31.1 31.1-13.9 31.1-31.1 31.1zm143.3-68.2h-8.6c-1.5 0-2.8 1-3.3 2.4-3.8-3.6-8.3-6.6-13.3-8.8-5.5-2.5-11.4-3.7-17.6-3.7-6.3 0-12.2 1.2-17.8 3.7-5.5 2.5-10.4 5.8-14.6 10s-7.5 9.1-9.9 14.7-3.6 11.6-3.6 18c0 6.3 1.2 12.2 3.6 17.8 2.4 5.6 5.7 10.5 9.9 14.7 4.2 4.2 9 7.5 14.6 10 5.5 2.5 11.5 3.7 17.8 3.7 6.2 0 12-1.2 17.6-3.7 4.9-2.2 9.3-5 13.1-8.6v22.6c0 10.9-8.4 20.3-19.3 20.9h-1.2c-11.4 0-20.7-8.5-20.7-19v-.4c.1-2.6-2-4.7-4.5-4.7h-7.2c-1.5 0-2.7 1.2-2.8 2.6-1.4 20.6 14.9 37.8 35.2 37.8 15.4 0 24.3-7.5 29.3-15.2 4-6.2 6-13.6 6-21V43.5c0-1.5-1.2-2.7-2.7-2.7zM519 109c-17.2 0-31.1-13.9-31.1-31.1s13.9-31.1 31.1-31.1 31.1 13.9 31.1 31.1S536.2 109 519 109zM176.7 227.5l3.3-4c.3-.3.8-.4 1.2-.1 3.2 2.6 6.8 4.1 11.1 4.1 3.8 0 5.8-1.8 5.8-4 0-2.5-2.1-3.3-7.5-4.6-7.5-1.7-12.8-3.8-12.8-10.7 0-6.6 5.4-11.1 13.1-11.1 5.5 0 9.8 1.6 13.3 4.4.3.3.4.8.1 1.1l-3 4.2c-.3.4-.8.4-1.2.2-3-2.2-6.3-3.4-9.5-3.4-3.3 0-5.2 1.7-5.2 3.8 0 2.6 2.1 3.4 7.6 4.7 7.7 1.7 12.7 4 12.7 10.5 0 6.8-5.1 11.3-13.8 11.3-5.9 0-11.1-1.9-15.2-5.4-.2-.2-.3-.7 0-1zm71-9.2v14.2c0 .5-.4.8-.8.8h-5.6c-.5 0-.8-.4-.8-.8 0-.7-.8-1.1-1.3-.7-1.8 1.4-4.2 2.1-6.5 2.1-5.7 0-10.1-3.4-10.1-8.5 0-5.3 4.9-8.9 11.1-8.9 2.2 0 4.6.5 6.8 1.3v-.5c0-2.8-1.8-5.3-6.2-5.3-2.2 0-4.3.6-6.2 1.6-.4.2-.9 0-1.1-.4l-1.8-3.5c-.2-.4 0-.9.4-1.1 3.2-1.5 6.3-2.4 9.5-2.6 6.9-.4 12.6 5.3 12.6 12.3zm-7.3 6.4v-1.8c0-.4-.2-.7-.6-.8-1.6-.5-3.3-.8-5.2-.8-2.7 0-4.9 1.6-4.9 3.8s1.9 3.5 4.5 3.5c2.9 0 5.6-1.3 6.1-3.7.1 0 .1-.1.1-.2zm27.4-26.9h5.9c.5 0 .8.4.8.8v34.5c0 .5-.4.8-.8.8h-5.9c-.5 0-.8-.4-.8-.8v-34.5c0-.4.3-.8.8-.8zm49.9 20.5v14.2c0 .5-.4.8-.8.8h-5.6c-.5 0-.8-.4-.8-.8 0-.7-.8-1.1-1.3-.7-1.8 1.4-4.2 2.1-6.5 2.1-5.7 0-10.1-3.4-10.1-8.5 0-5.3 4.9-8.9 11.1-8.9 2.2 0 4.6.5 6.8 1.3v-.5c0-2.8-1.8-5.3-6.2-5.3-2.2 0-4.3.6-6.2 1.6-.4.2-.9 0-1.1-.4l-1.8-3.5c-.2-.4 0-.9.4-1.1 3.2-1.5 6.3-2.4 9.5-2.6 6.9-.4 12.6 5.3 12.6 12.3zm-7.3 6.4v-1.8c0-.4-.2-.7-.6-.8-1.6-.5-3.3-.8-5.2-.8-2.7 0-4.9 1.6-4.9 3.8s1.9 3.5 4.5 3.5c2.9 0 5.6-1.3 6.1-3.7.1 0 .1-.1.1-.2zm81.4-26.8v34.5c0 .5-.4.8-.8.8h-5.9c-.5 0-.8-.4-.8-.8v-.8c0-.7-.9-1.1-1.4-.6-2 1.9-4.6 2.9-7.6 2.9-7.1 0-12.3-5.8-12.3-14s5.2-14 12.3-14c3 0 5.6 1.1 7.6 2.9.5.5 1.4.1 1.4-.6v-10.3c0-.5.4-.8.8-.8h5.9c.5 0 .8.4.8.8zm-7.5 22c0-4.4-2.8-7.6-6.8-7.6-4.2 0-7.1 3.2-7.1 7.6 0 4.5 2.9 7.7 7.1 7.7 3.9-.1 6.8-3.2 6.8-7.7zm46.4 5.5l3.7 3.8c.3.3.3.9-.1 1.2-2.5 2.1-6.7 3.5-10.3 3.5-8 0-14.2-5.8-14.2-14.1 0-8.1 5.9-13.9 13.8-13.9 8.1 0 13 6 13.3 15.6 0 .5-.4.8-.8.8h-17.2c-.6 0-1 .6-.8 1.2 1.1 2.2 3.2 3.7 5.9 3.7 1.9 0 4.1-.8 5.6-1.9.3-.2.8-.2 1.1.1zm-11.6-8.5h9.4c.6 0 1-.6.8-1.2-.9-2-2.7-3.2-5.3-3.2-2.4 0-4.4 1.1-5.6 3.1-.4.6 0 1.3.7 1.3zm71.1-10.6v5.4c0 .5.4.8.8.8h16.2c.5 0 .8.4.8.8v5.2c0 .5-.4.8-.8.8H491c-.5 0-.8.4-.8.8v6.2c0 .5.4.8.8.8h18.1c.5 0 .8.4.8.8v5.2c0 .5-.4.8-.8.8h-25.7c-.5 0-.8-.4-.8-.8v-33.6c0-.5.4-.8.8-.8h25.7c.5 0 .8.4.8.8v5.2c0 .5-.4.8-.8.8H491c-.4 0-.8.4-.8.8zm36.6 23l2.4-3.9c.2-.4.8-.5 1.2-.2 2.3 1.5 5 2.5 8.2 2.5 2 0 3.5-.8 3.5-2 0-1.7-2-2.2-4.7-2.9-5.5-1.3-9.7-2.8-9.8-8.1-.1-5.1 4.1-8.7 10.4-8.7 3.5 0 7 1.2 9.9 2.9.4.2.5.7.3 1.1l-2.3 4c-.2.4-.7.5-1.1.3-2.3-1.2-4.7-2-6.8-2-1.9 0-3.2.7-3.2 1.6 0 1.4 1.1 1.9 4.7 2.8 4.6 1.2 9.7 2.7 9.7 8.6 0 5.3-4.3 8.6-10.9 8.6-4 0-8.3-1.3-11.4-3.6-.3-.1-.3-.6-.1-1zM583 231c.1.3 0 .7-.2.9-1.5 1.2-3.7 2-5.7 2-4.7 0-8-3.4-8-8.2v-12.3c0-.5-.4-.8-.8-.8h-2c-.5 0-.8-.4-.8-.8v-4.5c0-.5.4-.8.8-.8h2c.5 0 .8-.4.8-.8V200c0-.5.4-.8.8-.8h5.6c.5 0 .8.4.8.8v5.7c0 .5.4.8.8.8h4.1c.5 0 .8.4.8.8v4.5c0 .5-.4.8-.8.8h-4.1c-.5 0-.8.4-.8.8v11.1c0 1.8 1.1 3 2.5 3 .7 0 1.3-.1 1.8-.4.4-.2.9 0 1.1.5l1.3 3.4zm43.1-23.7v25.1c0 .5-.4.8-.8.8h-5.9c-.5 0-.8-.4-.8-.8v-.3c0-.7-.8-1.1-1.4-.6-1.7 1.5-4 2.4-6.7 2.4-5.8 0-9.9-4.3-9.9-10.3v-16.2c0-.5.4-.8.8-.8h5.6c.5 0 .8.4.8.8V222c0 3.3 2.1 5.6 5.1 5.6 3.2 0 5.6-2.3 5.6-5.2l.1.2v-15.2c0-.5.4-.8.8-.8h5.9c.4-.2.8.2.8.7zm46.9-9.4v34.5c0 .5-.4.8-.8.8h-5.9c-.5 0-.8-.4-.8-.8v-.8c0-.7-.9-1.1-1.4-.6-2 1.9-4.6 2.9-7.6 2.9-7.1 0-12.3-5.8-12.3-14s5.2-14 12.3-14c3 0 5.6 1.1 7.6 2.9.5.5 1.4.1 1.4-.6v-10.3c0-.5.4-.8.8-.8h5.9c.4 0 .8.4.8.8zm-7.6 22c0-4.4-2.8-7.6-6.8-7.6-4.2 0-7.1 3.2-7.1 7.6 0 4.5 2.9 7.7 7.1 7.7 4-.1 6.8-3.2 6.8-7.7zm25.6 0c0-7.6 6.7-14 14.6-14 7.9 0 14.5 6.4 14.5 14s-6.6 14-14.5 14-14.6-6.4-14.6-14zm22 0c0-4.1-3.4-7.6-7.3-7.6-4 0-7.4 3.5-7.4 7.6s3.4 7.7 7.4 7.7c3.9-.1 7.3-3.6 7.3-7.7zm23.6 9.4l2.4-3.9c.2-.4.8-.5 1.2-.2 2.3 1.5 5 2.5 8.2 2.5 2 0 3.5-.8 3.5-2 0-1.7-2-2.2-4.7-2.9-5.5-1.3-9.7-2.8-9.8-8.1-.1-5.1 4.1-8.7 10.4-8.7 3.5 0 7 1.2 9.9 2.9.4.2.5.7.3 1.1l-2.3 4c-.2.4-.7.5-1.1.3-2.3-1.2-4.7-2-6.8-2-1.9 0-3.2.7-3.2 1.6 0 1.4 1.1 1.9 4.7 2.8 4.6 1.2 9.7 2.7 9.7 8.6 0 5.3-4.3 8.6-10.9 8.6-4 0-8.3-1.3-11.4-3.6-.2-.1-.3-.6-.1-1z"/><linearGradient id="SVGID_1_" gradientUnits="userSpaceOnUse" x1="25.831" y1="73.865" x2="109.55" y2="73.865"><stop offset="0" stop-color="#435f92"/><stop offset="1" stop-color="#485f90"/></linearGradient><path class="st1" d="M105.9 56.7c-.4-1-.9-1.9-1.4-2.8-.5-.9-1.3-2.1-2.1-3.3-1.7-2.4-5.2-2.8-7.4-.8L81.9 62.2c-2.7 2.6-2.8 6.9-.1 9.5 2.2 2.2 5.8 2 7.8-.4 1.7-1.9 4.9-.8 4.9 1.7.2 12.1-7.9 23.6-21.1 26.6-10.2 2.3-21-1.7-27.2-10.2C35.9 75.1 41.6 55.8 56.9 49c2.7-1.2 5.5-1.9 8.4-2.2 3.3-.3 6.3-3.2 6.4-6.5.1-5-4.3-8.7-9.1-8.1-5 .6-9.9 2.1-14.7 4.7C29.7 46.6 21.2 68.6 28.3 88c8.4 23 34.4 33.8 56.4 24 21.1-9.4 30.6-34.2 21.2-55.3z"/><linearGradient id="SVGID_2_" gradientUnits="userSpaceOnUse" x1="46.456" y1="72.27" x2="81.411" y2="72.27"><stop offset="0" stop-color="#408ba6"/><stop offset=".249" stop-color="#4690a8"/><stop offset=".578" stop-color="#579dae"/><stop offset=".951" stop-color="#72b4b8"/><stop offset="1" stop-color="#76b7b9"/></linearGradient><path class="st2" d="M69.3 79.2c-.8 1.2-.4 2.7.8 3.5 1.2.7.8 2.5-.5 2.7-5.3.9-10.9-1.5-13.7-6.6-3.1-5.6-1.6-12.8 3.4-16.8 4-3.1 9-3.6 13.3-1.8 1.4.6 3 .2 3.9-1l.1-.2c1.5-2 .7-4.9-1.6-5.8-8.2-3.3-18.5-1.3-24.8 7.4-3.4 4.6-4.6 10.6-3.2 16.1 3.7 15.1 20.2 20.5 31.7 12.8l1.2-.9c1.9-1.5 1.9-4.3 0-5.8l-5.7-4.4c-1.5-1.2-3.7-.9-4.9.8z"/><linearGradient id="SVGID_3_" gradientUnits="userSpaceOnUse" x1="2.356" y1="74.668" x2="132.982" y2="74.668"><stop offset="0" stop-color="#473580"/><stop offset=".409" stop-color="#463b81"/><stop offset=".572" stop-color="#453f82"/><stop offset="1" stop-color="#444e8a"/></linearGradient><path class="st3" d="M108.9 50.6c3.7 6.4 6 13.9 6.4 21.8 1.1 25.6-19.5 48.4-45 49.9-26.9 1.6-50-19.4-50.7-46.7-.6-24.5 17.8-45.8 42.2-48.7 2-.2 4-.3 6-.3 5 0 8.9-4.2 8.6-9.1-.3-4.6-4.1-8.1-8.7-8.1-1.4 0-2.9 0-4.3.1-36.3 2.4-63.7 34-60.8 70.4 2.9 35.7 34.4 62.6 70 59.9 35.7-2.7 62.6-33.6 60.2-69.4-.7-10.2-3.7-19.7-8.4-28.1-2.5-4.4-8.3-5.8-12.6-3.1-3.9 2.4-5.1 7.4-2.9 11.4z"/></svg>