<svg data-name="Capa 1" xmlns="http://www.w3.org/2000/svg" viewBox="0 0 463 463"><title>telephone</title><path d="M297.79 273.12c-8.46-8.35-19-8.35-27.42 0-6.42 6.35-12.83 12.71-19.13 19.18-1.72 1.77-3.18 2.15-5.28 1-4.15-2.27-8.56-4.1-12.55-6.58-18.59-11.69-34.16-26.72-47.98-43.6-6.84-8.41-12.93-17.4-17.18-27.53a3.94 3.94 0 0 1 1-5.07c6.41-6.19 12.66-12.55 19-18.91 8.78-8.83 8.78-19.17-.05-28.06-5-5.07-10-10-15-15.09-5.18-5.17-10.29-10.39-15.52-15.51-8.46-8.24-19-8.24-27.42.05-6.47 6.36-12.66 12.88-19.23 19.13a31.22 31.22 0 0 0-9.88 20.99c-1 13.41 2.26 26.07 6.9 38.41 9.48 25.54 23.92 48.22 41.43 69a256.4 256.4 0 0 0 84.95 66.48c14.87 7.22 30.27 12.76 47 13.68 11.53.65 21.55-2.26 29.58-11.26 5.49-6.14 11.69-11.74 17.5-17.62 8.62-8.72 8.68-19.28.11-27.9q-15.36-15.43-30.83-30.79zm-10.29-42.91l19.93-3.39a89.25 89.25 0 0 0-75.48-73.22l-2.8 20a69 69 0 0 1 58.4 56.62z"/><path d="M234.54 101.89l-2.8 20a127.93 127.93 0 0 1 108.23 104.87l19.88-3.39a148.17 148.17 0 0 0-125.31-121.48z"/><path d="M231.5 0C103.65 0 0 103.65 0 231.5S103.65 463 231.5 463 463 359.36 463 231.5 359.36 0 231.5 0zm-1.07 448.21c-119.8 0-216.9-97.09-216.9-216.88s97.1-216.87 216.9-216.87 216.87 97.1 216.87 216.87-97.12 216.88-216.87 216.88z"/></svg>