<svg id="Layer_1" xmlns="http://www.w3.org/2000/svg" xmlns:xlink="http://www.w3.org/1999/xlink" viewBox="0 0 332.1 520.3"><style>.st0{clip-path:url(#SVGID_2_)}.st1{fill:url(#SVGID_3_)}.st2{fill:url(#SVGID_4_)}.st3{fill:url(#SVGID_5_)}</style><title>secondleft</title><defs><path id="SVGID_1_" d="M0-56.1h394v591H0z"/></defs><clipPath id="SVGID_2_"><use xlink:href="#SVGID_1_" overflow="visible"/></clipPath><g class="st0"><linearGradient id="SVGID_3_" gradientUnits="userSpaceOnUse" x1="-657.538" y1="25.322" x2="-657.738" y2="25.592" gradientTransform="matrix(-585.87 -135.34 139.08 -602.05 -388759.563 -73454.89)"><stop offset="0" stop-color="#1cbcb7"/><stop offset="1" stop-color="#48e9e5"/></linearGradient><path class="st1" d="M-309.3 286.8c6.2 10 19.2 13.1 29.2 6.9h.1l.1-.1 54-33.8c9.9-6.2 23-3.3 29.3 6.7l.1.1c6.2 9.9 3.3 23-6.7 29.3l-.1.1-106.5 66.5c-9.8 6.4-12.6 19.6-6.2 29.5 6.2 9.6 18.9 12.5 28.8 6.6l51.9-32.4c10.1-6 23.2-2.7 29.2 7.3 5.9 9.8 2.9 22.5-6.6 28.8l-11.6 7.2-126.8 79.2c-10.1 6-13.4 19.1-7.4 29.2 6 10.1 19.1 13.4 29.2 7.3.2-.1.5-.3.7-.4l127-79.1 75.1-46.9c9.9-6.2 23-3.3 29.3 6.7l.1.1c6.2 9.9 3.3 23-6.7 29.3l-.1.1-75.1 46.9c-9.8 6.4-12.6 19.6-6.2 29.5 6.2 9.6 18.9 12.5 28.8 6.6L-33 441c10.1-6 23.2-2.8 29.2 7.3 5.9 9.8 2.9 22.5-6.6 28.8l-21.1 13.2c-9.8 6.4-12.6 19.6-6.2 29.5 6.3 9.6 19 12.5 28.8 6.6l241.4-150.8c9.9-6.3 12.8-19.5 6.5-29.4-6.2-9.8-19.2-12.8-29.1-6.7l-35 21.9c-10 6.1-23.1 3-29.3-7.1-6-9.9-3.1-22.8 6.7-29l157-97.7c9.9-6.4 12.6-19.6 6.2-29.5-6.2-9.6-19-12.5-28.8-6.7l-89.9 56.1c-9.9 6.2-23 3.3-29.3-6.7l-.1-.1c-6.2-9.9-3.3-23 6.6-29.3l.1-.1 89.9-56.1 58-36.2c10-6.2 13-19.3 6.8-29.2l-.1-.1c-6.2-10-19.3-13-29.2-6.9l-.1.1-58 36.2-114.9 71.8c-9.7 6.7-22.9 4.2-29.6-5.5-6.7-9.7-4.2-22.9 5.5-29.6l.9-.6c.2-.2.5-.3.7-.4l21.1-13.2c9.9-6.3 12.8-19.5 6.5-29.4-6.2-9.8-19.2-12.8-29.1-6.7l-27.7 17.3-35.1 21.9c-8.3 5.1-18.9 4.1-26-2.6l-.9-1.1-2.6-3.3c-6-10-2.9-22.9 6.9-29.1l63-39.3 47-29.5c10-6.2 13-19.4 6.8-29.4s-19.4-13-29.4-6.8l-47 29.5-118.1 73.8-35.3 22.1-88 55-118.1 73.8c-10 5.5-13.6 18.1-8.1 28.1.4.2.6.6.8.9z"/><linearGradient id="SVGID_4_" gradientUnits="userSpaceOnUse" x1="-650.605" y1="25.533" x2="-650.605" y2="26.533" gradientTransform="matrix(46 0 0 46 30100.84 -1115.776)"><stop offset="0" stop-color="#49317d"/><stop offset="1" stop-color="#6052c5"/></linearGradient><path class="st2" d="M173 58.9c12.7 0 23 10.3 23 23s-10.3 23-23 23-23-10.3-23-23 10.3-23 23-23z"/><linearGradient id="SVGID_5_" gradientUnits="userSpaceOnUse" x1="-653.881" y1="29.595" x2="-653.881" y2="30.595" gradientTransform="matrix(65.82 -38 18.5 32.04 42763.086 -25489.281)"><stop offset="0" stop-color="#49317d"/><stop offset="1" stop-color="#463d87"/></linearGradient><path class="st3" d="M254.6 315.2l33.8-19.5c8.6-5.5 20-3 25.6 5.6 5.5 8.6 3 20-5.6 25.6-.5.3-.9.6-1.4.8l-33.8 19.5c-8.6 5.5-20 3-25.6-5.6-5.5-8.6-3-20 5.6-25.6.5-.3.9-.6 1.4-.8z"/></g></svg>