<svg data-name="Layer 1" xmlns="http://www.w3.org/2000/svg" viewBox="0 0 693.6 528.73"><defs><clipPath id="a" transform="translate(361.54 -1.32)"><path fill="none" d="M0-55.28h394v591H0z"/></clipPath><linearGradient id="b" x1="-222.87" y1="537.43" x2="-223.07" y2="537.16" gradientTransform="matrix(-585.87 -135.34 -139.08 602.05 -55831.77 -353429.47)" gradientUnits="userSpaceOnUse"><stop offset="0" stop-color="#1cbcb7"/><stop offset="1" stop-color="#48e9e5"/></linearGradient><linearGradient id="c" x1="-217.65" y1="537.96" x2="-217.65" y2="536.96" gradientTransform="matrix(46 0 0 -46 10185 24805.72)" gradientUnits="userSpaceOnUse"><stop offset="0" stop-color="#49317d"/><stop offset="1" stop-color="#6052c5"/></linearGradient><linearGradient id="d" x1="-219.97" y1="534.94" x2="-219.97" y2="533.94" gradientTransform="matrix(65.82 -38 -18.5 -32.04 24646.01 9088.39)" gradientUnits="userSpaceOnUse"><stop offset="0" stop-color="#49317d"/><stop offset="1" stop-color="#463d87"/></linearGradient></defs><title>secondleft</title><g data-name="forma 1" clip-path="url(#a)"><path data-name="Path 78" d="M-309.27 287.64a21.22 21.22 0 0 0 29.27 6.85l.11-.07 54-33.75a21.23 21.23 0 0 1 29.27 6.66l.07.11a21.23 21.23 0 0 1-6.67 29.27l-.11.07-106.5 66.52a21.29 21.29 0 0 0-6.17 29.46 21.3 21.3 0 0 0 28.76 6.65l51.89-32.41a21.29 21.29 0 0 1 29.2 7.35 21.29 21.29 0 0 1-6.64 28.76l-11.6 7.24-126.78 79.2a21.29 21.29 0 0 0-7.35 29.21 21.29 21.29 0 0 0 29.2 7.34c.24-.14.47-.28.7-.44l127-79.15 75.12-46.92a21.22 21.22 0 0 1 29.26 6.66l.07.11a21.23 21.23 0 0 1-6.66 29.27l-.12.07-75.12 46.92a21.3 21.3 0 0 0-6.2 29.47 21.29 21.29 0 0 0 28.76 6.64l123.36-77.05A21.29 21.29 0 0 1-3.95 449a21.29 21.29 0 0 1-6.64 28.76l-21.09 13.17a21.29 21.29 0 0 0-6.2 29.46A21.29 21.29 0 0 0-9.12 527l241.44-150.78a21.29 21.29 0 0 0-22.56-36.11l-35 21.89a21.29 21.29 0 0 1-22.56-36.11l157-97.7a21.29 21.29 0 0 0-22.55-36.11l-89.95 56.14a21.22 21.22 0 0 1-29.26-6.66l-.07-.11a21.23 21.23 0 0 1 6.63-29.27l.11-.07L264 156l58-36.23a21.22 21.22 0 0 0 6.84-29.22l-.07-.11a21.22 21.22 0 0 0-29.22-6.85l-.11.07-58 36.23-114.89 71.76A21.29 21.29 0 1 1 103.29 156c.23-.16.46-.3.7-.45l21.09-13.17a21.29 21.29 0 0 0-22.56-36.11l-27.67 17.27-35.06 21.9a21.36 21.36 0 0 1-26-2.62l-.87-1.11-2.62-3.31a21.35 21.35 0 0 1 6.94-29.07L80.22 70l47-29.53a21.29 21.29 0 0 0-22.59-36.13l-47 29.53-118.05 73.76-35.32 22.07-88 55-118.09 73.77a20.67 20.67 0 0 0-8.06 28.09c.17.36.39.73.62 1.08z" transform="translate(361.54 -1.32)" fill="url(#b)"/><path data-name="Path 82" d="M173 59.72a23 23 0 1 1-23 23 23 23 0 0 1 23-23z" transform="translate(361.54 -1.32)" fill="url(#c)"/><path data-name="Path 81" d="M254.64 316l33.77-19.5a18.5 18.5 0 1 1 18.5 32L273.14 348a18.5 18.5 0 1 1-18.5-32z" transform="translate(361.54 -1.32)" fill="url(#d)"/></g></svg>