<svg data-name="Layer 1" xmlns="http://www.w3.org/2000/svg" viewBox="0 0 720.55 518.3"><defs><clipPath id="a" transform="translate(-.58 39.3)"><path fill="none" d="M-71-79.78h372v605H-71z"/></clipPath><linearGradient id="b" x1="-304.13" y1="519.12" x2="-304.34" y2="518.85" gradientTransform="matrix(575.22 175.86 180.72 -591.12 81479.66 360543.73)" gradientUnits="userSpaceOnUse"><stop offset="0" stop-color="#49317d"/><stop offset="1" stop-color="#5549ae"/></linearGradient><linearGradient id="c" x1="-309.57" y1="519.06" x2="-309.57" y2="518.06" gradientTransform="matrix(-45.91 -3.22 -3.22 45.91 -12384.43 -24369.95)" gradientUnits="userSpaceOnUse"><stop offset="0" stop-color="#1cbcb7"/><stop offset="1" stop-color="#48e9e5"/></linearGradient><linearGradient id="d" x1="-307.29" y1="522.17" x2="-307.29" y2="521.17" gradientTransform="matrix(-68.32 33.29 16.21 33.26 -29382.42 -6976.32)" gradientUnits="userSpaceOnUse"><stop offset="0" stop-color="#3e4d8f"/><stop offset="1" stop-color="#2f5e95"/></linearGradient></defs><title>secondright</title><g data-name="forma 2" clip-path="url(#a)"><path data-name="Path 79" d="M653.58 222.81a21.23 21.23 0 0 0-28.69-8.81l-.11.06-56.28 29.87a21.23 21.23 0 0 1-28.74-8.69l-.06-.12a21.24 21.24 0 0 1 8.69-28.74l.12-.06 110.89-59a21.3 21.3 0 0 0-20-37.61l-54.07 28.79a21.3 21.3 0 0 1-20-37.6l12.07-6.42 132-70.21a21.3 21.3 0 1 0-19.26-38l-.74.39-132.19 70.15L479 98.4a21.23 21.23 0 0 1-28.74-8.68l-.06-.12a21.22 21.22 0 0 1 8.69-28.74l.11-.06 78.24-41.6a21.3 21.3 0 0 0-20-37.61L388.75 49.9a21.3 21.3 0 0 1-20-37.61l22-11.67a21.32 21.32 0 0 0 8.24-29A21.31 21.31 0 0 0 370.72-37L119.28 96.7a21.3 21.3 0 0 0 20 37.61l36.51-19.41a21.3 21.3 0 0 1 20 37.6L32.3 239.07a21.3 21.3 0 0 0 20 37.61l93.61-49.77a21.23 21.23 0 0 1 28.74 8.69l.06.12a21.23 21.23 0 0 1-8.71 28.74l-.12.06-93.59 49.77L11.9 346.4A21.21 21.21 0 0 0 3 375.08l.06.12a21.23 21.23 0 0 0 28.68 8.87l.12-.07 60.39-32.11L212 288.26a21.3 21.3 0 0 1 20.73 37.21c-.24.14-.49.27-.73.39l-22 11.68a21.3 21.3 0 0 0 20 37.61l28.82-15.33 36.51-19.41a21.37 21.37 0 0 1 25.78 4.43l.79 1.16 2.38 3.49a21.36 21.36 0 0 1-8.95 28.51l-65.6 34.88-48.93 26.21a21.3 21.3 0 0 0 20 37.61l48.92-26.19 123-65.39 36.78-19.56 91.69-48.75 123-65.39a20.67 20.67 0 0 0 10-27.47q-.31-.57-.61-1.14z" transform="translate(-.58 39.3)" fill="url(#b)"/><circle data-name="Ellipse 88" cx="157.37" cy="432.79" r="23.01" fill="url(#c)"/><path data-name="Rectangle 145" d="M92.79 155.07l-35.06 17.08A18.51 18.51 0 0 1 33 163.62a18.5 18.5 0 0 1 8.53-24.73l35.05-17.09a18.52 18.52 0 0 1 24.74 8.53 18.52 18.52 0 0 1-8.53 24.74z" transform="translate(-.58 39.3)" fill="url(#d)"/></g></svg>