<svg id="Layer_1" xmlns="http://www.w3.org/2000/svg" xmlns:xlink="http://www.w3.org/1999/xlink" viewBox="0 0 300.4 478.9"><style>.st0{clip-path:url(#SVGID_2_)}.st1{fill:url(#SVGID_3_)}.st2{fill:url(#SVGID_4_)}.st3{fill:url(#SVGID_5_)}</style><title>secondright</title><defs><path id="SVGID_1_" d="M-71.6-79.8h372v605h-372z"/></defs><clipPath id="SVGID_2_"><use xlink:href="#SVGID_1_" overflow="visible"/></clipPath><g class="st0"><linearGradient id="SVGID_3_" gradientUnits="userSpaceOnUse" x1="-364.019" y1="-1.186" x2="-364.229" y2="-.916" gradientTransform="matrix(575.22 175.86 -180.72 591.12 209528.219 64912.727)"><stop offset="0" stop-color="#49317d"/><stop offset="1" stop-color="#5549ae"/></linearGradient><path class="st1" d="M653 222.7c-5.5-10.4-18.3-14.3-28.7-8.8l-.1.1-56.3 29.9c-10.3 5.5-23.2 1.6-28.7-8.7l-.1-.1c-5.5-10.3-1.6-23.2 8.7-28.7l.1-.1 110.9-59c10.3-5.6 14.1-18.6 8.5-28.9-5.6-10.2-18.2-14-28.5-8.7l-54.1 28.8c-10.5 5.3-23.3 1-28.6-9.5-5.1-10.2-1.3-22.5 8.6-28.1l12.1-6.4 132-70.2c10.5-5.3 14.7-18.1 9.4-28.6s-18.1-14.7-28.6-9.4l-.7.4-132.3 70-78.2 41.6c-10.3 5.5-23.2 1.7-28.7-8.7l-.1-.1c-5.5-10.3-1.7-23.2 8.7-28.7l.1-.1 78.2-41.6c10.3-5.6 14.1-18.6 8.5-28.9-5.6-10.2-18.2-14-28.5-8.7L388.2 49.8c-10.5 5.4-23.3 1.3-28.7-9.1-5.3-10.3-1.4-22.9 8.7-28.5l22-11.7c10.3-5.7 14-18.7 8.2-29-5.6-10-18.1-13.8-28.3-8.6L118.7 96.6c-10.3 5.6-14.1 18.6-8.5 28.9 5.6 10.2 18.2 14 28.5 8.7l36.5-19.4c10.5-5.3 23.3-1 28.6 9.5 5.1 10.2 1.3 22.5-8.6 28.1L31.7 239c-10.3 5.6-14.1 18.6-8.5 28.9 5.6 10.2 18.2 14 28.5 8.7l93.6-49.8c10.3-5.5 23.2-1.6 28.7 8.7l.1.1c5.5 10.3 1.6 23.2-8.7 28.7l-.1.1-93.6 49.8-60.4 32.1C.9 351.8-3 364.6 2.4 375l.1.1c5.5 10.4 18.3 14.3 28.7 8.9l.1-.1 60.4-32.1 119.8-63.6c10.4-5.6 23.3-1.7 28.8 8.7 5.4 10.1 1.9 22.8-8.1 28.5-.2.1-.5.3-.7.4l-22 11.7c-10.3 5.6-14.1 18.6-8.5 28.9 5.6 10.2 18.2 14 28.5 8.7l28.8-15.3 36.5-19.4c8.6-4.6 19.2-2.7 25.8 4.4l.8 1.2 2.4 3.5c5.3 10.4 1.3 23-9 28.5l-65.6 34.9-49 26.1c-10.3 5.6-14.1 18.6-8.5 28.9 5.6 10.2 18.2 14 28.5 8.7l48.9-26.2 123-65.4 36.8-19.6 91.7-48.8 123-65.4c10.3-4.8 14.8-17.1 10-27.5-.2-.2-.4-.6-.6-1z"/><linearGradient id="SVGID_4_" gradientUnits="userSpaceOnUse" x1="-370.909" y1="-1.887" x2="-370.909" y2="-.887" gradientTransform="rotate(-175.99 -8443.746 -136.271) scale(46.02)"><stop offset="0" stop-color="#1cbcb7"/><stop offset="1" stop-color="#48e9e5"/></linearGradient><circle class="st2" cx="157.4" cy="393.4" r="23"/><linearGradient id="SVGID_5_" gradientUnits="userSpaceOnUse" x1="-367.759" y1="-5.898" x2="-367.759" y2="-4.897" gradientTransform="matrix(-68.32 33.29 -16.21 -33.26 -25146.945 12208.56)"><stop offset="0" stop-color="#3e4d8f"/><stop offset="1" stop-color="#2f5e95"/></linearGradient><path class="st3" d="M92.2 155l-35.1 17.1c-9.2 4.5-20.3.6-24.7-8.5-4.5-9.2-.7-20.3 8.5-24.7L76 121.7c9.2-4.5 20.3-.7 24.7 8.5 4.5 9.2.7 20.3-8.5 24.8z"/></g></svg>