<?xml version="1.0" encoding="UTF-8"?><!DOCTYPE svg PUBLIC "-//W3C//DTD SVG 1.1//EN" "http://www.w3.org/Graphics/SVG/1.1/DTD/svg11.dtd"><svg xmlns="http://www.w3.org/2000/svg"><defs><style>.cls-1{fill:#f1f2f2}.cls-2{opacity:.4;clip-path:url(#clip-path)}.cls-3{opacity:.75;fill:url(#linear-gradient)}</style><clipPath id="clip-path"><path id="Rectangle_116" data-name="Rectangle 116" class="cls-1" transform="translate(824 3965)" d="M0 0h152v151H0z"/></clipPath><linearGradient id="linear-gradient" x1=".5" x2=".5" y2="1" gradientUnits="objectBoundingBox"><stop offset="0" stop-color="#2194a7"/><stop offset="1" stop-color="#37bdcc"/></linearGradient><style>.cls-1{fill:#fff}.cls-1,.cls-4{stroke:#fff}.cls-2{opacity:.53;clip-path:url(#clip-path)}.cls-3{opacity:.56}.cls-4{fill:none;stroke-miterlimit:10}</style><clipPath id="clip-path"><path id="Rectangle_130" data-name="Rectangle 130" class="cls-1" transform="translate(-5 2501)" d="M0 0h656v680H0z"/></clipPath><style>.cls-1{fill:none;stroke:#4b3283;stroke-width:2px}.cls-2{fill:#01cec7}</style><style>.cls-1{fill:#f1f2f2}.cls-2{opacity:.4;clip-path:url(#clip-path)}.cls-3{opacity:.75;fill:url(#linear-gradient)}.cls-4,.cls-5,.cls-6{opacity:.59}.cls-4{clip-path:url(#clip-path-2)}.cls-5{clip-path:url(#clip-path-3)}.cls-6{clip-path:url(#clip-path-4)}</style><clipPath id="clip-path"><path id="Rectangle_116" data-name="Rectangle 116" class="cls-1" transform="translate(810 3957)" d="M0 0h199v166H0z"/></clipPath><linearGradient id="linear-gradient" x1=".5" x2=".5" y2="1" gradientUnits="objectBoundingBox"><stop offset="0" stop-color="#2194a7"/><stop offset="1" stop-color="#37bdcc"/></linearGradient><clipPath id="clip-path-2"><path id="Rectangle_148" data-name="Rectangle 148" class="cls-1" transform="translate(810 3941)" d="M0 0h199v130H0z"/></clipPath><clipPath id="clip-path-3"><path id="Rectangle_113" data-name="Rectangle 113" class="cls-1" transform="translate(810 3957)" d="M0 0h199v164H0z"/></clipPath><clipPath id="clip-path-4"><path id="Rectangle_114" data-name="Rectangle 114" class="cls-1" transform="translate(810 3957)" d="M0 0h199v113H0z"/></clipPath><style>.cls-1{fill:#fff;stroke:#707070}.cls-2{clip-path:url(#clip-path)}.cls-3{fill:#f8f8f8;opacity:.85}</style><clipPath id="clip-path"><path id="Rectangle_151" data-name="Rectangle 151" class="cls-1" transform="translate(0 1316)" d="M0 0h480v962H0z"/></clipPath><style>.cls-1{fill:#fff;stroke:#707070}.cls-2{clip-path:url(#clip-path)}.cls-3{fill:#f9f9f9;opacity:.81}</style><clipPath id="clip-path"><path id="Rectangle_152" data-name="Rectangle 152" class="cls-1" transform="translate(1497 1215)" d="M0 0h433v911H0z"/></clipPath><linearGradient id="logofooter-a" x1="250.94" y1="65.49" x2="334.66" y2="65.49" gradientUnits="userSpaceOnUse"><stop offset="0" stop-color="#435f93"/><stop offset="1" stop-color="#485f91"/></linearGradient><linearGradient id="logofooter-b" x1="271.56" y1="63.9" x2="306.52" y2="63.9" gradientUnits="userSpaceOnUse"><stop offset="0" stop-color="#418ca7"/><stop offset=".25" stop-color="#4791a9"/><stop offset=".58" stop-color="#589faf"/><stop offset=".96" stop-color="#73b5b9"/><stop offset="1" stop-color="#76b8ba"/></linearGradient><linearGradient id="logofooter-c" x1="227.46" y1="66.3" x2="358.09" y2="66.3" gradientUnits="userSpaceOnUse"><stop offset="0" stop-color="#483580"/><stop offset=".39" stop-color="#463b82"/><stop offset=".57" stop-color="#454083"/><stop offset="1" stop-color="#444e8b"/></linearGradient><style>.cls-1{fill:url(#linear-gradient)}.cls-2{fill:url(#linear-gradient-2)}.cls-3,.cls-4{fill:#4b3283}.cls-4{opacity:.25}.cls-5{fill:url(#linear-gradient-4)}</style><linearGradient id="linear-gradient" x1=".5" x2=".5" y2="1" gradientUnits="objectBoundingBox"><stop offset="0" stop-color="#1cbcb7"/><stop offset="1" stop-color="#48e9e5"/></linearGradient><linearGradient id="linear-gradient-2" x1=".5" x2=".5" y2="1" gradientUnits="objectBoundingBox"><stop offset="0" stop-color="#3d3d3d"/><stop offset="1" stop-color="#7d7d7d"/></linearGradient><linearGradient id="linear-gradient-4" x1=".5" x2=".5" y2="1" gradientUnits="objectBoundingBox"><stop offset="0" stop-color="#49317d"/><stop offset="1" stop-color="#6052c5"/></linearGradient><style>.cls-1{fill:url(#linear-gradient)}.cls-2{opacity:.73;fill:url(#linear-gradient-2)}.cls-3{fill:url(#linear-gradient-5)}</style><linearGradient id="linear-gradient" x1=".5" x2=".5" y2="1" gradientUnits="objectBoundingBox"><stop offset="0" stop-color="#1cbcb7"/><stop offset="1" stop-color="#48e9e5"/></linearGradient><linearGradient id="linear-gradient-2" x1=".5" x2=".5" y2="1" gradientUnits="objectBoundingBox"><stop offset="0" stop-color="#49317d"/><stop offset="1" stop-color="#6d3ed2"/></linearGradient><linearGradient id="linear-gradient-5" x1=".5" x2=".5" y2="1" gradientUnits="objectBoundingBox"><stop offset="0" stop-color="#49317d"/><stop offset="1" stop-color="#6052c5"/></linearGradient><style>.cls-1{fill:#fff;stroke:#707070}.cls-2{clip-path:url(#clip-path)}.cls-3{fill:url(#linear-gradient)}.cls-4{fill:url(#linear-gradient-2)}.cls-5{fill:url(#linear-gradient-3)}</style><clipPath id="clip-path"><path id="Rectangle_144" data-name="Rectangle 144" class="cls-1" transform="translate(0 2464)" d="M0 0h333v522H0z"/></clipPath><linearGradient id="linear-gradient" x1=".428" y1=".445" x2=".226" y2=".715" gradientUnits="objectBoundingBox"><stop offset="0" stop-color="#1cbcb7"/><stop offset="1" stop-color="#48e9e5"/></linearGradient><linearGradient id="linear-gradient-2" x1=".5" x2=".5" y2="1" gradientUnits="objectBoundingBox"><stop offset="0" stop-color="#49317d"/><stop offset="1" stop-color="#6052c5"/></linearGradient><linearGradient id="linear-gradient-3" x1=".5" x2=".5" y2="1" gradientUnits="objectBoundingBox"><stop offset="0" stop-color="#49317d"/><stop offset="1" stop-color="#463d87"/></linearGradient><style>.cls-1{fill:#fff;stroke:#707070}.cls-2{clip-path:url(#clip-path)}.cls-3{fill:url(#linear-gradient)}.cls-4{fill:url(#linear-gradient-2)}.cls-5{fill:url(#linear-gradient-3)}</style><clipPath id="clip-path"><path id="Rectangle_150" data-name="Rectangle 150" class="cls-1" transform="translate(1581 2401)" d="M0 0h339v502H0z"/></clipPath><linearGradient id="linear-gradient" x1=".428" y1=".445" x2=".226" y2=".715" gradientUnits="objectBoundingBox"><stop offset="0" stop-color="#49317d"/><stop offset="1" stop-color="#5549ae"/></linearGradient><linearGradient id="linear-gradient-2" x1=".5" x2=".5" y2="1" gradientUnits="objectBoundingBox"><stop offset="0" stop-color="#1cbcb7"/><stop offset="1" stop-color="#48e9e5"/></linearGradient><linearGradient id="linear-gradient-3" x1=".5" x2=".5" y2="1" gradientUnits="objectBoundingBox"><stop offset="0" stop-color="#3e4d8f"/><stop offset="1" stop-color="#2f5e95"/></linearGradient><style>.cls-1{fill:#8a79b3}.cls-2{fill:#4b3283}.cls-3{fill:#01cec7}.cls-4{fill:#18a7a2}.cls-5{fill:url(#linear-gradient)}.cls-6{fill:#ad9fce;opacity:.65}.cls-7{fill:#4e4e4e}.cls-8{fill:#219f9b}</style><linearGradient id="linear-gradient" x1=".5" x2=".5" y2="1" gradientUnits="objectBoundingBox"><stop offset="0" stop-color="#49317d"/><stop offset="1" stop-color="#6052c5"/></linearGradient></defs><symbol id="arrow" viewBox="0 0 31.49 31.49"><path d="M21.205 5.007a1.112 1.112 0 0 0-1.587 0 1.12 1.12 0 0 0 0 1.571l8.047 8.047H1.111A1.106 1.106 0 0 0 0 15.737c0 .619.492 1.127 1.111 1.127h26.554l-8.047 8.032c-.429.444-.429 1.159 0 1.587a1.112 1.112 0 0 0 1.587 0l9.952-9.952a1.093 1.093 0 0 0 0-1.571l-9.952-9.953z" fill="#FFF"/></symbol><symbol id="ball" viewBox="0 0 152 151"><g id="Mask_Group_6" data-name="Mask Group 6" class="cls-2" transform="rotate(-180 488 2058)"><ellipse id="Ellipse_49" data-name="Ellipse 49" class="cls-3" cx="75.755" cy="75.755" rx="75.755" ry="75.755" transform="translate(824.14 3964.615)"/></g></symbol><symbol id="brand" viewBox="0 0 656 680"><g id="Mask_Group_11" data-name="Mask Group 11" class="cls-2" transform="translate(5 -2501)"><g id="simbolo" class="cls-3" transform="translate(-313.516 2503.51)"><path id="Path_67" data-name="Path 67" class="cls-4" d="M1585.892 1087.267q-4.694-10.544-10.2-20.579a255.815 255.815 0 0 0-15.307-23.81 36.157 36.157 0 0 0-54.422-5.545l-96.5 90.24a48.334 48.334 0 0 0-.782 69.866 39.423 39.423 0 0 0 57.553-2.585 20.409 20.409 0 0 1 36.089 12.823 197.283 197.283 0 0 1-155.411 195.413 194.833 194.833 0 0 1-199.766-75.1 197.283 197.283 0 0 1 139.459-313.68c24.286-2.313 46.328-23.232 46.7-47.62a59.151 59.151 0 0 0-66.736-59.661 309.209 309.209 0 0 0-107.826 34.388c-133.914 71.431-195.82 233.611-143.711 376.233a307.864 307.864 0 1 0 570.554-230.35z" transform="translate(-823.816 -738.572)"/><path id="Path_68" data-name="Path 68" class="cls-4" d="M1209.523 1151.285a17.824 17.824 0 0 0 5.578 25.443 10.748 10.748 0 0 1-3.673 19.831 97.111 97.111 0 1 1 21.735-185.344 24.048 24.048 0 0 0 28.913-7.483l.816-1.123a28.13 28.13 0 0 0-11.464-42.79c-60.681-24.524-135.717-9.32-182.418 54.117a142.862 142.862 0 0 0-23.606 118.438c27.382 110.989 148.677 151.024 233.509 94.254q4.728-3.163 9.149-6.8a26.871 26.871 0 0 0-.238-42.45l-41.906-32.109a25.511 25.511 0 0 0-36.4 6.021z" transform="translate(-716.499 -637.314)"/><path id="Path_69" data-name="Path 69" class="cls-4" d="M1729.816 1160.368a350.827 350.827 0 0 1 46.736 160.548c8.367 188.167-143.1 355.892-331.1 366.981a352.151 352.151 0 0 1-372.729-343.069c-4.524-180.684 130.887-336.947 310.381-358.137a357.16 357.16 0 0 1 44.218-2.483A62.961 62.961 0 0 0 1490.287 917a64.015 64.015 0 0 0-64.083-59.7q-15.681 0-31.531 1.054a480.317 480.317 0 0 0-447.153 517.734c20.987 262.319 252.659 460.35 515.114 440.486a480.488 480.488 0 0 0 380.962-717.091 66.362 66.362 0 0 0-92.826-22.789 62.076 62.076 0 0 0-20.954 83.674z" transform="translate(-945.46 -856.81)"/></g></g></symbol><symbol id="cancel" viewBox="0 0 21.9 21.9"><path d="M14.1 11.3c-.2-.2-.2-.5 0-.7l7.5-7.5c.2-.2.3-.5.3-.7s-.1-.5-.3-.7L20.2.3c-.2-.2-.5-.3-.7-.3-.3 0-.5.1-.7.3l-7.5 7.5c-.2.2-.5.2-.7 0L3.1.3C2.9.1 2.6 0 2.4 0s-.5.1-.7.3L.3 1.7c-.2.2-.3.5-.3.7s.1.5.3.7l7.5 7.5c.2.2.2.5 0 .7L.3 18.8c-.2.2-.3.5-.3.7s.1.5.3.7l1.4 1.4c.2.2.5.3.7.3s.5-.1.7-.3l7.5-7.5c.2-.2.5-.2.7 0l7.5 7.5c.2.2.5.3.7.3s.5-.1.7-.3l1.4-1.4c.2-.2.3-.5.3-.7s-.1-.5-.3-.7l-7.5-7.5z" fill="#D80027"/></symbol><symbol id="circleleft" viewBox="0 0 329.7 329.6"><style>.st0{fill:none;stroke:#01cec7;stroke-width:2}.st1{fill:#463d87}</style><g id="Group_88" transform="translate(49 39)"><g transform="translate(-49 -39)"><circle id="Ellipse_18-2" class="st0" cx="164.8" cy="164.8" r="163.7"/></g><circle id="Ellipse_19" class="st1" cx="-25.4" cy="209.1" r="8.8"/><circle id="Ellipse_43" class="st1" cx="216.8" cy="-2.4" r="8.8"/></g></symbol><symbol id="circleright" viewBox="0 0 329.758 327.26"><g id="foto_redonda_1" data-name="foto redonda 1" transform="translate(-985 -1341)"><g id="Group_58" data-name="Group 58" transform="translate(988.497 1342)"><circle id="Ellipse_12" data-name="Ellipse 12" class="cls-1" cx="162.63" cy="162.63" r="162.63"/><circle id="Ellipse_41" data-name="Ellipse 41" class="cls-2" cx="8.744" cy="8.744" r="8.744" transform="translate(268.136 38.472)"/></g><circle id="Ellipse_42" data-name="Ellipse 42" class="cls-2" cx="8.744" cy="8.744" r="8.744" transform="translate(985 1532.027)"/></g></symbol><symbol id="circles" viewBox="0 0 1574 283"><g id="bg_bolinhas" data-name="bg bolinhas" transform="translate(-26 -3787)"><g id="Mask_Group_6" data-name="Mask Group 6" class="cls-2" transform="rotate(-180 1205 3955)"><ellipse id="Ellipse_49" data-name="Ellipse 49" class="cls-3" cx="75.755" cy="75.755" rx="75.755" ry="75.755" transform="translate(824.14 3964.615)"/></g><g id="Mask_Group_20" data-name="Mask Group 20" class="cls-4" transform="rotate(-180 672 3929)"><ellipse id="Ellipse_89" data-name="Ellipse 89" class="cls-3" cx="75.755" cy="75.755" rx="75.755" ry="75.755" transform="translate(824.14 3964.615)"/></g><g id="Mask_Group_3" data-name="Mask Group 3" class="cls-5" transform="translate(40 -52)"><ellipse id="Ellipse_46" data-name="Ellipse 46" class="cls-3" cx="75.755" cy="75.755" rx="75.755" ry="75.755" transform="translate(824.14 3964.615)"/></g><g id="Mask_Group_4" data-name="Mask Group 4" class="cls-6" transform="translate(-784)"><ellipse id="Ellipse_47" data-name="Ellipse 47" class="cls-3" cx="75.755" cy="75.755" rx="75.755" ry="75.755" transform="translate(824.14 3964.615)"/></g></g></symbol><symbol id="firstleft" viewBox="0 0 480 962"><g id="Mask_Group_21" data-name="Mask Group 21" class="cls-2" transform="translate(0 -1316)"><path id="Path_15" data-name="Path 15" class="cls-3" d="M65.909 1068.99s239.743 330.05 510.741 593.048-357.59 361.269-492.793 363.828S-20.9 1008.558-20.9 1008.558z" transform="rotate(8 -1760.636 742.481)"/></g></symbol><symbol id="firstright" viewBox="0 0 433 911"><g id="from" class="cls-2" transform="translate(-1497 -1215)"><path id="Path_12" data-name="Path 12" class="cls-3" d="M65.909 1068.99s239.743 330.05 510.741 593.048-357.59 361.269-492.793 363.828S-20.9 1008.558-20.9 1008.558z" transform="scale(-1) rotate(10.02 17549.015 -12019.521)"/></g></symbol><symbol id="logo" viewBox="0 0 756.76 223.26"><title>logo</title><circle cx="588.96" cy="22.31" r="10.26" fill="#fff"/><path d="M103.56 56.52c-.43-1-.89-1.89-1.38-2.8a34.69 34.69 0 0 0-2.08-3.25 4.92 4.92 0 0 0-7.38-.75L79.59 62a6.57 6.57 0 0 0-.1 9.5 5.35 5.35 0 0 0 7.82-.36 2.79 2.79 0 0 1 4.91 1.75 26.82 26.82 0 0 1-21.13 26.57 26.49 26.49 0 0 1-27.17-10.22 26.82 26.82 0 0 1 19-42.65c3.3-.31 6.3-3.16 6.35-6.47A8 8 0 0 0 60.18 32a41.87 41.87 0 1 0 43.38 24.52z" fill="#fff"/><path d="M67 79a2.43 2.43 0 0 0 .75 3.46 1.46 1.46 0 0 1-.5 2.7 13.21 13.21 0 1 1 3-25.21 3.27 3.27 0 0 0 3.93-1l.11-.15a3.82 3.82 0 0 0-1.62-5.8 20.79 20.79 0 0 0-24.8 7.36 19.38 19.38 0 0 0-3.21 16.1C48.38 91.52 64.87 97 76.41 89.24c.43-.29.84-.59 1.24-.91a3.65 3.65 0 0 0 0-5.77l-5.7-4.37A3.46 3.46 0 0 0 67 79z" fill="#fff"/><path d="M106.59 50.38a47.67 47.67 0 0 1 6.35 21.83c1.14 25.58-19.45 48.39-45 49.9a47.88 47.88 0 0 1-8.48-95.35 46.75 46.75 0 0 1 6-.33A8.56 8.56 0 0 0 74 17.29a8.71 8.71 0 0 0-8.7-8.12c-1.42 0-2.85.05-4.29.15a65.25 65.25 0 1 0 61 32.78 9 9 0 0 0-12.59-3.1 8.45 8.45 0 0 0-2.83 11.38zm148.09 40.88a4.08 4.08 0 0 1 3.63 5.95 46.39 46.39 0 0 1-4.15 6.58 45.7 45.7 0 0 1-10.07 9.81 47 47 0 0 1-12.7 6.39 45.36 45.36 0 0 1-14.28 2.28 44.06 44.06 0 0 1-17.61-3.59 48 48 0 0 1-14.62-9.68 45.42 45.42 0 0 1-10-14.54 44.82 44.82 0 0 1 0-35.57 48.23 48.23 0 0 1 24.7-25 43.67 43.67 0 0 1 18-3.77 45.13 45.13 0 0 1 27 8.94 49.63 49.63 0 0 1 10 10.07 50.2 50.2 0 0 1 4.33 6.87 4.09 4.09 0 0 1-3.58 6h-8.88a4.07 4.07 0 0 1-3.47-2 28.65 28.65 0 0 0-9.84-9.61 29.89 29.89 0 0 0-15.5-4.2 29 29 0 0 0-11.48 2.36 32.26 32.26 0 0 0-9.72 6.4 31.06 31.06 0 0 0-6.75 9.63 29 29 0 0 0-.26 23.13 29.53 29.53 0 0 0 6.4 9.55 32.09 32.09 0 0 0 9.54 6.57 28.29 28.29 0 0 0 11.74 2.45A31.65 31.65 0 0 0 242.46 93a4 4 0 0 1 3.32-1.74zm61.94 31.45a45.17 45.17 0 0 1-18.13-3.71 48.11 48.11 0 0 1-14.89-10 46.83 46.83 0 0 1-10.08-14.71 44.14 44.14 0 0 1-3.68-17.87 44.62 44.62 0 0 1 3.68-18A46.83 46.83 0 0 1 283.6 43.7a48.11 48.11 0 0 1 14.89-10 46.08 46.08 0 0 1 36.09 0 47.12 47.12 0 0 1 24.79 24.7 44.62 44.62 0 0 1 3.68 18 44.14 44.14 0 0 1-3.68 17.87A47.12 47.12 0 0 1 334.58 119a44.78 44.78 0 0 1-17.96 3.71zm0-76.21a30.25 30.25 0 0 0-11.91 2.37 30.44 30.44 0 0 0-16.3 15.85 29.35 29.35 0 0 0 0 23.48 32.09 32.09 0 0 0 6.59 9.54 30.55 30.55 0 0 0 21.64 8.85 29.82 29.82 0 0 0 11.83-2.36 30.55 30.55 0 0 0 16.11-16 30.26 30.26 0 0 0 0-23.48 29.68 29.68 0 0 0-6.48-9.46 31.09 31.09 0 0 0-9.63-6.39 29.65 29.65 0 0 0-11.85-2.4zm430.17 33.64a9.78 9.78 0 0 0 9.43-7.6A26.59 26.59 0 0 0 755 57.78a40.25 40.25 0 0 0-9.73-14.34 46.13 46.13 0 0 0-14.42-9.73 45 45 0 0 0-35.16 0 47 47 0 0 0-14.51 9.73 45.59 45.59 0 0 0-9.82 14.34 44.54 44.54 0 0 0 0 35 45.44 45.44 0 0 0 9.82 14.33 47 47 0 0 0 14.51 9.73 44.84 44.84 0 0 0 35.16 0A45.87 45.87 0 0 0 755 92.77c.53-1.22-.11-2.17-1.69-2.57 0 0-12.44-2.59-15.81 2a32.25 32.25 0 0 1-3.24 3.87 29.53 29.53 0 0 1-9.39 6.32 28.83 28.83 0 0 1-11.52 2.3 29.79 29.79 0 0 1-21.08-8.62 31.1 31.1 0 0 1-6.4-9.3 31.49 31.49 0 0 1-1.91-6.65M686 63.63a29.48 29.48 0 0 1 15.73-15.15 29.47 29.47 0 0 1 11.6-2.31 28.84 28.84 0 0 1 11.52 2.31 30.28 30.28 0 0 1 9.39 6.22 32.74 32.74 0 0 1 5.76 8.9m-75.17 41.83a1.66 1.66 0 0 0-2-.79c-3.6 1.14-13.85 4.83-17-2.16a12.54 12.54 0 0 1-1.25-4.48c-1.36-10.89 0-74.46 0-93a5.06 5.06 0 0 0-5.07-5h-8.93a4.09 4.09 0 0 0-4.09 4.09v28a4.09 4.09 0 0 1-4.09 4.09h-11.76a4.09 4.09 0 0 0-4.09 4.09v8a4.09 4.09 0 0 0 4.09 4.09h14.19a1.66 1.66 0 0 1 1.66 1.64s.62 17.28.62 47.8c0 13.06 11.06 17.81 17 19.25a34.11 34.11 0 0 0 20.45-1.42 6.45 6.45 0 0 0 3.15-9z" fill="#fff"/><rect x="579.99" y="39.38" width="17.95" height="83.2" rx="2.93" ry="2.93" fill="#fff"/><path d="M457.56 40.16H449a3.48 3.48 0 0 0-3.3 2.41 46.31 46.31 0 0 0-13.3-8.77 44.26 44.26 0 0 0-35.34 0 47.35 47.35 0 0 0-14.59 10 46.84 46.84 0 0 0-9.86 14.7 46.47 46.47 0 0 0 0 35.87 46.84 46.84 0 0 0 9.86 14.7 47.38 47.38 0 0 0 14.59 10 44.37 44.37 0 0 0 35.34 0 46.65 46.65 0 0 0 13.07-8.59V133c0 10.95-8.41 20.32-19.34 20.89h-1.17c-11.41 0-20.66-8.52-20.66-19v-.42a4.55 4.55 0 0 0-4.54-4.7h-7.19a2.86 2.86 0 0 0-2.84 2.65 35.32 35.32 0 0 0 35.27 37.8c15.43 0 24.32-7.52 29.33-15.25a38.62 38.62 0 0 0 6-21V42.88a2.72 2.72 0 0 0-2.77-2.72zm-42.92 68.27a31.1 31.1 0 1 1 31.1-31.1 31.09 31.09 0 0 1-31.1 31.1zm144.78-68.27h-8.59a3.46 3.46 0 0 0-3.3 2.41 46.31 46.31 0 0 0-13.26-8.77 44.29 44.29 0 0 0-35.35 0 47.42 47.42 0 0 0-14.58 10 46.84 46.84 0 0 0-9.86 14.7 46.36 46.36 0 0 0 0 35.87 46.84 46.84 0 0 0 9.86 14.7 47.45 47.45 0 0 0 14.58 10 44.4 44.4 0 0 0 35.35 0 46.65 46.65 0 0 0 13.07-8.59V133c0 10.95-8.41 20.32-19.34 20.89h-1.17c-11.41 0-20.67-8.52-20.67-19v-.42a4.56 4.56 0 0 0-4.54-4.7h-7.19a2.86 2.86 0 0 0-2.84 2.65 35.32 35.32 0 0 0 35.23 37.78c15.43 0 24.32-7.52 29.32-15.25a38.53 38.53 0 0 0 6-21V42.88a2.72 2.72 0 0 0-2.72-2.72zm-42.91 68.27a31.1 31.1 0 1 1 31.1-31.1 31.09 31.09 0 0 1-31.1 31.1zM198.78 216.07a9.29 9.29 0 0 1-2.44 3.08 11.4 11.4 0 0 1-3.72 2 14.94 14.94 0 0 1-4.75.71 19.93 19.93 0 0 1-7.7-1.42 23.1 23.1 0 0 1-5.77-3.53 1.12 1.12 0 0 1-.12-1.59l.25-.28a1.1 1.1 0 0 1 1.55-.12 24.49 24.49 0 0 0 2.11 1.63 16.7 16.7 0 0 0 3 1.63 17 17 0 0 0 3.21 1 18.11 18.11 0 0 0 3.66.33 11.79 11.79 0 0 0 3.65-.53 8.72 8.72 0 0 0 2.85-1.47 6.9 6.9 0 0 0 1.83-2.24 6.1 6.1 0 0 0 .66-2.82v-.1a6.94 6.94 0 0 0-.43-2.54 4.84 4.84 0 0 0-1.58-2 11.33 11.33 0 0 0-3.07-1.65 31.49 31.49 0 0 0-5-1.34 33.46 33.46 0 0 1-5.49-1.56 13.42 13.42 0 0 1-3.74-2.08 7.25 7.25 0 0 1-2.11-2.77 9.26 9.26 0 0 1-.66-3.61v-.1a8 8 0 0 1 .87-3.68 9.23 9.23 0 0 1 2.39-3 11.18 11.18 0 0 1 3.6-2 14.24 14.24 0 0 1 4.58-.71 18.68 18.68 0 0 1 6.68 1.07 19.24 19.24 0 0 1 4.62 2.55 1.11 1.11 0 0 1 .19 1.58l-.28.35a1.1 1.1 0 0 1-1.54.16 15.33 15.33 0 0 0-4.26-2.41 16.29 16.29 0 0 0-5.51-.91 11.24 11.24 0 0 0-3.59.53 8.92 8.92 0 0 0-2.74 1.45 6.33 6.33 0 0 0-1.75 2.13 5.71 5.71 0 0 0-.61 2.6v.1A7.12 7.12 0 0 0 178 197a4.94 4.94 0 0 0 1.57 2.09 11.26 11.26 0 0 0 3.18 1.7 35.88 35.88 0 0 0 5.18 1.42q6.21 1.28 8.95 3.59a7.72 7.72 0 0 1 2.74 6.22v.11a8.78 8.78 0 0 1-.84 3.94zm43.22 5.27a1.12 1.12 0 0 1-1.12-1.12V217a12.46 12.46 0 0 1-1.6 1.8 10.74 10.74 0 0 1-2.16 1.58 12.23 12.23 0 0 1-2.77 1.11 12.45 12.45 0 0 1-3.38.44 13.06 13.06 0 0 1-3.61-.51 10.4 10.4 0 0 1-3.2-1.53 8 8 0 0 1-2.31-2.54 7 7 0 0 1-.89-3.56v-.1a7.57 7.57 0 0 1 .84-3.61 7.7 7.7 0 0 1 2.31-2.64 10.92 10.92 0 0 1 3.56-1.63 17.94 17.94 0 0 1 4.62-.56 32 32 0 0 1 4.73.31 34.28 34.28 0 0 1 3.86.81v-1.11q0-3.94-2.26-5.91a9.21 9.21 0 0 0-6.27-2 15.48 15.48 0 0 0-4.38.58 23.11 23.11 0 0 0-2.75 1 1.1 1.1 0 0 1-1.46-.59l-.05-.12a1.11 1.11 0 0 1 .56-1.44 25.4 25.4 0 0 1 3.35-1.21 18 18 0 0 1 4.88-.62c3.35 0 6 .84 7.93 2.54s2.89 4.23 2.89 7.62v15.05a1.11 1.11 0 0 1-1.11 1.12zm-1.06-11.79a1.11 1.11 0 0 0-.88-1.08c-.88-.2-1.86-.39-2.94-.58a29.51 29.51 0 0 0-5-.38 10.46 10.46 0 0 0-6.33 1.65 5.18 5.18 0 0 0-2.21 4.37v.1a5.1 5.1 0 0 0 .61 2.51 5.83 5.83 0 0 0 1.65 1.85 8 8 0 0 0 2.42 1.16 10 10 0 0 0 2.85.41 12 12 0 0 0 3.76-.59 10.24 10.24 0 0 0 3.12-1.61 7.92 7.92 0 0 0 2.14-2.51 6.81 6.81 0 0 0 .79-3.24zm26.88 10.67v-34.88a1.12 1.12 0 0 1 1.12-1.11h.26a1.11 1.11 0 0 1 1.11 1.11v34.88a1.11 1.11 0 0 1-1.11 1.12h-.26a1.12 1.12 0 0 1-1.12-1.12zm46.45 1.12a1.12 1.12 0 0 1-1.11-1.12V217a12.46 12.46 0 0 1-1.6 1.8 11.34 11.34 0 0 1-2.16 1.58 12.73 12.73 0 0 1-6.15 1.55 13.06 13.06 0 0 1-3.61-.51 10.3 10.3 0 0 1-3.2-1.53 8 8 0 0 1-2.31-2.54 6.87 6.87 0 0 1-.89-3.56v-.1a7.57 7.57 0 0 1 .84-3.61 7.49 7.49 0 0 1 2.31-2.64 10.92 10.92 0 0 1 3.56-1.63 17.89 17.89 0 0 1 4.62-.56 32 32 0 0 1 4.73.31 34.28 34.28 0 0 1 3.86.81v-1.11q0-3.94-2.26-5.91a9.22 9.22 0 0 0-6.28-2 15.4 15.4 0 0 0-4.37.58 22.48 22.48 0 0 0-2.75 1 1.1 1.1 0 0 1-1.46-.59l-.05-.12a1.11 1.11 0 0 1 .56-1.44 24.89 24.89 0 0 1 3.35-1.21 17.92 17.92 0 0 1 4.87-.62c3.36 0 6 .84 7.93 2.54s2.9 4.23 2.9 7.62v15.05a1.12 1.12 0 0 1-1.11 1.12zm-1.06-11.79a1.1 1.1 0 0 0-.88-1.08c-.87-.2-1.85-.39-2.93-.58a29.68 29.68 0 0 0-5-.38 10.42 10.42 0 0 0-6.33 1.65 5.18 5.18 0 0 0-2.21 4.37v.1a5 5 0 0 0 .61 2.51 5.83 5.83 0 0 0 1.65 1.85 8 8 0 0 0 2.42 1.16 10 10 0 0 0 2.84.41 11.94 11.94 0 0 0 3.76-.59 10.18 10.18 0 0 0 3.13-1.61 7.76 7.76 0 0 0 2.13-2.51 6.7 6.7 0 0 0 .79-3.24zm62.37 11.2v-.42a1.12 1.12 0 0 0-1.89-.8 13.9 13.9 0 0 1-1.79 1.41 9.54 9.54 0 0 1-5.45 1.48 12.09 12.09 0 0 1-4.62-.92 11.38 11.38 0 0 1-3.95-2.72 13.87 13.87 0 0 1-2.79-4.39 15.56 15.56 0 0 1-1.06-5.95 16 16 0 0 1 1-5.95 13.76 13.76 0 0 1 2.77-4.39 11.44 11.44 0 0 1 4-2.72 12.23 12.23 0 0 1 4.64-.92 9.78 9.78 0 0 1 5.47 1.43 15.64 15.64 0 0 1 1.8 1.35 1.11 1.11 0 0 0 1.86-.82v-10.55a1.1 1.1 0 0 1 1.11-1.11h4a1.11 1.11 0 0 1 1.11 1.11v34.88a1.11 1.11 0 0 1-1.11 1.11h-4a1.11 1.11 0 0 1-1.1-1.11zm-.58-15.87a8.74 8.74 0 0 0-1.69-2.72 7.42 7.42 0 0 0-5.42-2.36 7.78 7.78 0 0 0-3 .58 7.05 7.05 0 0 0-2.45 1.71 8 8 0 0 0-1.68 2.72 10.27 10.27 0 0 0-.6 3.63 10.11 10.11 0 0 0 .6 3.58 8 8 0 0 0 1.68 2.72 7.37 7.37 0 0 0 5.42 2.34 7.42 7.42 0 0 0 5.42-2.36A8.63 8.63 0 0 0 375 212a10.22 10.22 0 0 0 0-7.12zm37 10.8a7.62 7.62 0 0 0 5.08 1.76 8.9 8.9 0 0 0 4-.82 11.64 11.64 0 0 0 2.6-1.75 1.12 1.12 0 0 1 1.45 0l2 1.79a1.11 1.11 0 0 1 0 1.63 14.71 14.71 0 0 1-3.79 2.78 13.87 13.87 0 0 1-6.38 1.37 14.23 14.23 0 0 1-5.41-1 13 13 0 0 1-4.37-2.84 13.2 13.2 0 0 1-2.93-4.4 14.79 14.79 0 0 1-1.06-5.72 15.3 15.3 0 0 1 1-5.44 13.76 13.76 0 0 1 2.72-4.44 13.27 13.27 0 0 1 4.14-3 12.44 12.44 0 0 1 5.29-1.12 12.77 12.77 0 0 1 5.62 1.17 11.57 11.57 0 0 1 4 3.15 13.9 13.9 0 0 1 2.42 4.63 18.8 18.8 0 0 1 .81 5.54v.81c0 .27 0 .56-.07.87h-18.34a1.11 1.11 0 0 0-1.07 1.41 7.35 7.35 0 0 0 2.29 3.62zm9.77-9.12a1.1 1.1 0 0 0 1.09-1.33 9.62 9.62 0 0 0-.44-1.44 7.32 7.32 0 0 0-1.37-2.24 6.87 6.87 0 0 0-2.06-1.5 6.39 6.39 0 0 0-2.72-.55 6.19 6.19 0 0 0-4.7 1.95 8.29 8.29 0 0 0-2 3.72 1.12 1.12 0 0 0 1.09 1.39zm48.33 14.97v-33.35a1.11 1.11 0 0 1 1.11-1.11h23.09a1.11 1.11 0 0 1 1.11 1.11v.16a1.12 1.12 0 0 1-1.11 1.12h-20.45a1.11 1.11 0 0 0-1.11 1.11v11.85a1.12 1.12 0 0 0 1.11 1.12H492a1.1 1.1 0 0 1 1.11 1.11v.16a1.1 1.1 0 0 1-1.11 1.11h-18.15a1.12 1.12 0 0 0-1.11 1.12v12.11a1.11 1.11 0 0 0 1.11 1.11h20.7a1.12 1.12 0 0 1 1.12 1.11v.16a1.12 1.12 0 0 1-1.12 1.12h-23.34a1.12 1.12 0 0 1-1.11-1.12zm65.39-2.81a7 7 0 0 1-1.91 2.38 8.7 8.7 0 0 1-2.84 1.52 11.12 11.12 0 0 1-3.51.54 16.1 16.1 0 0 1-5.69-1.07 17.73 17.73 0 0 1-4-2 1.13 1.13 0 0 1-.29-1.6l.14-.19a1.14 1.14 0 0 1 1.53-.28 17.86 17.86 0 0 0 3.61 1.9 13.55 13.55 0 0 0 4.83.89 7.33 7.33 0 0 0 4.45-1.32 4.23 4.23 0 0 0 1.8-3.6v-.11a3.24 3.24 0 0 0-.56-1.92 5.08 5.08 0 0 0-1.52-1.42 9.62 9.62 0 0 0-2.19-1c-.81-.27-1.67-.54-2.59-.81s-2.11-.62-3.17-1a12.66 12.66 0 0 1-2.88-1.3 6.75 6.75 0 0 1-2.06-1.95 5.09 5.09 0 0 1-.78-2.89v-.1a6.49 6.49 0 0 1 .63-2.87 7.09 7.09 0 0 1 1.76-2.25 7.73 7.73 0 0 1 2.69-1.5 10.6 10.6 0 0 1 3.46-.53 15.89 15.89 0 0 1 4.8.78 16.43 16.43 0 0 1 3.41 1.49 1.12 1.12 0 0 1 .39 1.57l-.16.24a1.08 1.08 0 0 1-1.47.34 17.59 17.59 0 0 0-2.93-1.32 12.53 12.53 0 0 0-4.15-.71 6.65 6.65 0 0 0-4.29 1.27 4 4 0 0 0-1.6 3.22v.1a2.9 2.9 0 0 0 .61 1.85 5.09 5.09 0 0 0 1.6 1.35 13.14 13.14 0 0 0 2.31 1c.88.28 1.78.56 2.7.83s2.08.64 3.1 1a11.7 11.7 0 0 1 2.74 1.37 6.93 6.93 0 0 1 2 2 5.3 5.3 0 0 1 .74 2.89v.1a6.94 6.94 0 0 1-.71 3.11zm34.71 4.16a10 10 0 0 1-2.21.22 9.65 9.65 0 0 1-2.84-.4 6 6 0 0 1-2.32-1.3 6.2 6.2 0 0 1-1.55-2.23 8.33 8.33 0 0 1-.56-3.18v-15.87a1.11 1.11 0 0 0-1.11-1.11h-1.53a1.12 1.12 0 0 1-1.08-1.11v-.06a1.11 1.11 0 0 1 1.12-1.11h1.53a1.11 1.11 0 0 0 1.11-1.12v-6.06a1.12 1.12 0 0 1 1.12-1.11h.26a1.11 1.11 0 0 1 1.11 1.11v6.06a1.12 1.12 0 0 0 1.12 1.12h6.87a1.11 1.11 0 0 1 1.11 1.11v.06a1.11 1.11 0 0 1-1.15 1.1h-6.87a1.12 1.12 0 0 0-1.12 1.11v15.59c0 1.86.49 3.16 1.45 3.9a6 6 0 0 0 3.74 1.12 8.34 8.34 0 0 0 1.83-.2 3.79 3.79 0 0 0 .53-.14 1.12 1.12 0 0 1 1.45 1.06 1.15 1.15 0 0 1-.75 1.06 12.07 12.07 0 0 1-1.26.38zm43.94-1.35v-.46a1.1 1.1 0 0 0-1.89-.78 13.14 13.14 0 0 1-1.66 1.39 9.89 9.89 0 0 1-5.8 1.58 11.58 11.58 0 0 1-4.37-.79 9.11 9.11 0 0 1-5.31-5.59 12.88 12.88 0 0 1-.69-4.3v-14.74a1.11 1.11 0 0 1 1.11-1.11h.27a1.1 1.1 0 0 1 1.11 1.11v14.29a9.34 9.34 0 0 0 2.14 6.43 7.69 7.69 0 0 0 6.1 2.41 9.07 9.07 0 0 0 3.53-.69 8.67 8.67 0 0 0 2.87-1.9 8.86 8.86 0 0 0 1.91-2.92 9.88 9.88 0 0 0 .68-3.74v-13.88a1.11 1.11 0 0 1 1.12-1.11h.26a1.1 1.1 0 0 1 1.11 1.11v23.69a1.11 1.11 0 0 1-1.11 1.12h-.26a1.12 1.12 0 0 1-1.12-1.12zm49.91 1.12a1.12 1.12 0 0 1-1.11-1.12v-4.68a23.28 23.28 0 0 1-1.91 2.44 11.78 11.78 0 0 1-5.23 3.43 11 11 0 0 1-3.54.54 12.18 12.18 0 0 1-4.6-.92 12.5 12.5 0 0 1-4-2.64 13.27 13.27 0 0 1-2.87-4.24 14.09 14.09 0 0 1-1.09-5.67v-.1a14.09 14.09 0 0 1 1.09-5.67 13.52 13.52 0 0 1 2.87-4.27 12.48 12.48 0 0 1 4-2.69 11.83 11.83 0 0 1 4.6-.94 12.15 12.15 0 0 1 3.56.5 11.08 11.08 0 0 1 2.92 1.38 12.39 12.39 0 0 1 2.34 2 17.84 17.84 0 0 1 1.86 2.34v-15.68a1.12 1.12 0 0 1 1.11-1.12h.27a1.12 1.12 0 0 1 1.11 1.12v34.87a1.12 1.12 0 0 1-1.11 1.12zm-1-13a11.4 11.4 0 0 0-.89-4.55 10.75 10.75 0 0 0-5.76-5.77 10 10 0 0 0-4-.82 10.4 10.4 0 0 0-4 .77 9.18 9.18 0 0 0-3.23 2.18 10.23 10.23 0 0 0-2.17 3.48 12.89 12.89 0 0 0-.79 4.65v.11a12.45 12.45 0 0 0 .82 4.62 10.44 10.44 0 0 0 2.21 3.53 9.93 9.93 0 0 0 7.16 3 10 10 0 0 0 4-.81 11 11 0 0 0 3.39-2.29 11.43 11.43 0 0 0 2.37-3.51 11.18 11.18 0 0 0 .89-4.52zm50.95 5.22a13.48 13.48 0 0 1-2.79 4.32 13.24 13.24 0 0 1-4.25 3 13.44 13.44 0 0 1-10.65 0 13.49 13.49 0 0 1-4.19-2.92 13.06 13.06 0 0 1-2.77-4.27 13.61 13.61 0 0 1-1-5.18v-.1a13.58 13.58 0 0 1 3.79-9.51 13.41 13.41 0 0 1 4.24-3 12.91 12.91 0 0 1 5.34-1.09 12.71 12.71 0 0 1 5.31 1.09 13.54 13.54 0 0 1 4.19 2.92 13.06 13.06 0 0 1 2.78 4.27 13.65 13.65 0 0 1 1 5.18v.11a13.65 13.65 0 0 1-1 5.18zm-1.65-5.18a11.61 11.61 0 0 0-.82-4.38 10.83 10.83 0 0 0-2.27-3.57 10.68 10.68 0 0 0-3.42-2.38 10.46 10.46 0 0 0-4.21-.86 10.27 10.27 0 0 0-4.27.89 10.45 10.45 0 0 0-3.37 2.38 10.82 10.82 0 0 0-2.2 3.51 11.91 11.91 0 0 0-.79 4.31v.1a11.75 11.75 0 0 0 .82 4.37 11 11 0 0 0 2.27 3.57 10.48 10.48 0 0 0 7.64 3.24A10.26 10.26 0 0 0 706 220a10.47 10.47 0 0 0 3.37-2.37 10.87 10.87 0 0 0 2.2-3.52 11.64 11.64 0 0 0 .79-4.3zm42.2 9.03a7 7 0 0 1-1.9 2.38 8.86 8.86 0 0 1-2.85 1.52 11 11 0 0 1-3.51.54 16.18 16.18 0 0 1-5.69-1.07 17.94 17.94 0 0 1-4-2 1.13 1.13 0 0 1-.29-1.6l.14-.19a1.15 1.15 0 0 1 1.55-.3 17.6 17.6 0 0 0 3.61 1.9 13.55 13.55 0 0 0 4.83.89 7.3 7.3 0 0 0 4.44-1.32 4.21 4.21 0 0 0 1.81-3.6v-.11a3.32 3.32 0 0 0-.56-1.92 5 5 0 0 0-1.53-1.42 9.74 9.74 0 0 0-2.18-1c-.82-.27-1.68-.54-2.59-.81s-2.11-.62-3.18-1a12.39 12.39 0 0 1-2.87-1.3 6.53 6.53 0 0 1-2.06-1.95 5 5 0 0 1-.79-2.89v-.1a6.36 6.36 0 0 1 .64-2.87 6.92 6.92 0 0 1 1.75-2.25 7.82 7.82 0 0 1 2.69-1.5 10.64 10.64 0 0 1 3.46-.53 15.84 15.84 0 0 1 4.8.78 16.2 16.2 0 0 1 3.41 1.49 1.12 1.12 0 0 1 .39 1.57l-.15.24a1.1 1.1 0 0 1-1.48.34 17.23 17.23 0 0 0-2.93-1.32 12.43 12.43 0 0 0-4.14-.71 6.66 6.66 0 0 0-4.3 1.29 4 4 0 0 0-1.6 3.22v.1a3 3 0 0 0 .61 1.85 5.2 5.2 0 0 0 1.6 1.35 12.94 12.94 0 0 0 2.32 1c.88.28 1.78.56 2.69.83s2.08.64 3.1 1a11.78 11.78 0 0 1 2.75 1.37 6.9 6.9 0 0 1 2 2 5.3 5.3 0 0 1 .74 2.89v.1a6.94 6.94 0 0 1-.73 3.11z" fill="#fff"/></symbol><symbol id="logofooter" viewBox="0 0 585.55 386.62"><title>logofooter</title><path d="M331 48.33c-.43-1-.89-1.89-1.37-2.8a34.69 34.69 0 0 0-2.08-3.25 4.91 4.91 0 0 0-7.37-.75l-13.13 12.28a6.58 6.58 0 0 0-.1 9.5 5.35 5.35 0 0 0 7.82-.35 2.79 2.79 0 0 1 4.91 1.74 26.82 26.82 0 0 1-21.13 26.57 26.52 26.52 0 0 1-27.17-10.21 26.83 26.83 0 0 1 19-42.66c3.31-.31 6.31-3.16 6.35-6.47a8 8 0 0 0-9.07-8.11A41.86 41.86 0 1 0 331 48.33z" transform="translate(0 -.99)" fill="url(#logofooter-a)"/><path d="M294.44 70.8a2.42 2.42 0 0 0 .76 3.46 1.47 1.47 0 0 1-.5 2.7 13.21 13.21 0 1 1 2.95-25.21 3.27 3.27 0 0 0 3.93-1l.11-.15a3.83 3.83 0 0 0-1.56-5.82 20.8 20.8 0 0 0-24.8 7.36 19.42 19.42 0 0 0-3.21 16.1c3.72 15.1 20.22 20.54 31.75 12.82.43-.29.84-.59 1.24-.9a3.65 3.65 0 0 0 0-5.77L299.39 70a3.47 3.47 0 0 0-4.95.8z" transform="translate(0 -.99)" fill="url(#logofooter-b)"/><path d="M334.05 42.19A47.68 47.68 0 0 1 340.41 64c1.13 25.58-19.46 48.39-45 49.9a47.88 47.88 0 0 1-8.47-95.35 48.42 48.42 0 0 1 6-.33 8.57 8.57 0 0 0 8.58-9.14A8.7 8.7 0 0 0 292.76 1c-1.42 0-2.85 0-4.29.14a65.26 65.26 0 1 0 61 32.79 9 9 0 0 0-12.63-3.1 8.44 8.44 0 0 0-2.79 11.36z" transform="translate(0 -.99)" fill="url(#logofooter-c)"/><path d="M27.09 379.43a9.39 9.39 0 0 1-2.44 3.08 11.73 11.73 0 0 1-3.71 2 15.33 15.33 0 0 1-4.76.71 19.93 19.93 0 0 1-7.7-1.42 22.86 22.86 0 0 1-5.77-3.54 1.1 1.1 0 0 1-.12-1.58l.25-.29a1.1 1.1 0 0 1 1.55-.11 24.49 24.49 0 0 0 2.11 1.63 16.64 16.64 0 0 0 3 1.62 16.34 16.34 0 0 0 3.21 1 18.86 18.86 0 0 0 3.66.33 12.21 12.21 0 0 0 3.66-.53 8.78 8.78 0 0 0 2.84-1.48 6.76 6.76 0 0 0 1.83-2.23 6.16 6.16 0 0 0 .66-2.82v-.11a7 7 0 0 0-.43-2.54 4.88 4.88 0 0 0-1.58-2 11.33 11.33 0 0 0-3.07-1.65 32.49 32.49 0 0 0-5-1.35 34.55 34.55 0 0 1-5.49-1.55A13.68 13.68 0 0 1 6 364.44a7.25 7.25 0 0 1-2.11-2.77 9.3 9.3 0 0 1-.66-3.61v-.05a8 8 0 0 1 .87-3.69 9.3 9.3 0 0 1 2.39-3 11 11 0 0 1 3.61-2 13.86 13.86 0 0 1 4.57-.72 18.91 18.91 0 0 1 6.68 1.07 19.64 19.64 0 0 1 4.65 2.56 1.11 1.11 0 0 1 .19 1.58l-.28.35a1.1 1.1 0 0 1-1.54.16 15.33 15.33 0 0 0-4.26-2.41 16.3 16.3 0 0 0-5.51-.92 11.23 11.23 0 0 0-3.59.54 8.71 8.71 0 0 0-2.73 1.48 6.33 6.33 0 0 0-1.75 2.13 5.67 5.67 0 0 0-.61 2.59v.1a7.18 7.18 0 0 0 .43 2.57 5 5 0 0 0 1.57 2.08 11.4 11.4 0 0 0 3.18 1.71 36.25 36.25 0 0 0 5.18 1.42q6.21 1.28 9 3.58a7.74 7.74 0 0 1 2.72 6.2v.1a8.8 8.8 0 0 1-.91 3.94zm43.17 5.26a1.11 1.11 0 0 1-1.11-1.11v-3.21a13.87 13.87 0 0 1-1.61 1.81 10.71 10.71 0 0 1-2.16 1.57 12.23 12.23 0 0 1-2.77 1.12 12.46 12.46 0 0 1-3.38.43 13.06 13.06 0 0 1-3.61-.51 10.16 10.16 0 0 1-3.2-1.52 8.14 8.14 0 0 1-2.31-2.54 7 7 0 0 1-.89-3.56v-.1a7.54 7.54 0 0 1 .84-3.61 7.7 7.7 0 0 1 2.31-2.64 10.52 10.52 0 0 1 3.56-1.63 18 18 0 0 1 4.63-.56 30.55 30.55 0 0 1 4.72.31 34.92 34.92 0 0 1 3.87.81v-1.11q0-3.94-2.27-5.92a9.24 9.24 0 0 0-6.27-2 15.47 15.47 0 0 0-4.38.59 21.48 21.48 0 0 0-2.75 1 1.1 1.1 0 0 1-1.46-.59l-.05-.12a1.11 1.11 0 0 1 .56-1.44 25.4 25.4 0 0 1 3.35-1.15 17.6 17.6 0 0 1 4.88-.63 11.64 11.64 0 0 1 7.93 2.54q2.9 2.55 2.89 7.63v15.05a1.11 1.11 0 0 1-1.11 1.11zm-1.06-11.78a1.13 1.13 0 0 0-.88-1.09c-.88-.19-1.86-.39-2.94-.57a28.51 28.51 0 0 0-5-.38 10.54 10.54 0 0 0-6.33 1.64 5.21 5.21 0 0 0-2.21 4.38v.1a5.12 5.12 0 0 0 .61 2.51 5.71 5.71 0 0 0 1.66 1.84 7.62 7.62 0 0 0 2.41 1.17 10 10 0 0 0 2.85.4 12 12 0 0 0 3.76-.58 10.37 10.37 0 0 0 3.12-1.62 7.88 7.88 0 0 0 2.14-2.5 6.81 6.81 0 0 0 .81-3.2zm26.93 10.67V348.7a1.12 1.12 0 0 1 1.12-1.11h.26a1.11 1.11 0 0 1 1.11 1.11v34.88a1.11 1.11 0 0 1-1.11 1.11h-.26a1.12 1.12 0 0 1-1.12-1.11zm46.45 1.11a1.11 1.11 0 0 1-1.11-1.11v-3.21a13.07 13.07 0 0 1-1.6 1.81 11.3 11.3 0 0 1-2.16 1.57 12.44 12.44 0 0 1-6.15 1.55 13.06 13.06 0 0 1-3.61-.51 10.06 10.06 0 0 1-3.2-1.52 8.14 8.14 0 0 1-2.31-2.54 6.89 6.89 0 0 1-.89-3.56v-.1a7.54 7.54 0 0 1 .84-3.61 7.7 7.7 0 0 1 2.31-2.64 10.52 10.52 0 0 1 3.56-1.63 17.94 17.94 0 0 1 4.62-.56 30.69 30.69 0 0 1 4.73.31 34.28 34.28 0 0 1 3.86.81v-1.11q0-3.94-2.26-5.92a9.27 9.27 0 0 0-6.28-2 15.4 15.4 0 0 0-4.37.59 20.94 20.94 0 0 0-2.75 1 1.1 1.1 0 0 1-1.46-.59v-.12a1.11 1.11 0 0 1 .56-1.44 24.89 24.89 0 0 1 3.35-1.21 17.54 17.54 0 0 1 4.88-.63 11.61 11.61 0 0 1 7.92 2.54c1.94 1.7 2.9 4.24 2.9 7.63v15.05a1.11 1.11 0 0 1-1.11 1.11zm-1.06-11.78a1.12 1.12 0 0 0-.87-1.09c-.88-.19-1.86-.39-2.94-.57a28.67 28.67 0 0 0-5-.38 10.51 10.51 0 0 0-6.33 1.64 5.21 5.21 0 0 0-2.21 4.38v.1a5 5 0 0 0 .61 2.51 5.8 5.8 0 0 0 1.65 1.84 7.78 7.78 0 0 0 2.42 1.17 10 10 0 0 0 2.84.4 11.93 11.93 0 0 0 3.76-.58 10.43 10.43 0 0 0 3.13-1.62 7.72 7.72 0 0 0 2.13-2.5 6.7 6.7 0 0 0 .79-3.24zm62.37 11.19v-.42a1.11 1.11 0 0 0-1.88-.79 14.73 14.73 0 0 1-1.8 1.41 9.62 9.62 0 0 1-5.45 1.48 12.09 12.09 0 0 1-4.62-.92 11.52 11.52 0 0 1-3.95-2.72 13.92 13.92 0 0 1-2.79-4.4 15.5 15.5 0 0 1-1.06-5.94 15.76 15.76 0 0 1 1-6 13.62 13.62 0 0 1 2.76-4.4 11.44 11.44 0 0 1 4-2.72 12.22 12.22 0 0 1 4.64-.91 9.84 9.84 0 0 1 5.48 1.42 16.5 16.5 0 0 1 1.79 1.36 1.12 1.12 0 0 0 1.86-.82v-10.51a1.11 1.11 0 0 1 1.13-1.11h4a1.11 1.11 0 0 1 1.11 1.11v34.88a1.12 1.12 0 0 1-1.11 1.12h-4a1.11 1.11 0 0 1-1.11-1.12zm-.53-15.86a8.84 8.84 0 0 0-1.7-2.72 7.42 7.42 0 0 0-5.42-2.36 7.6 7.6 0 0 0-3 .58 7.25 7.25 0 0 0-2.45 1.7 8.22 8.22 0 0 0-1.68 2.72 10.33 10.33 0 0 0-.6 3.64 10.15 10.15 0 0 0 .6 3.58 8.12 8.12 0 0 0 1.68 2.72 7.43 7.43 0 0 0 8.36 1.73 7.3 7.3 0 0 0 2.48-1.76 8.79 8.79 0 0 0 1.7-2.71 10.37 10.37 0 0 0 0-7.12zm36.97 10.77a7.61 7.61 0 0 0 5.08 1.75 9 9 0 0 0 4-.81 12.29 12.29 0 0 0 2.61-1.75 1.08 1.08 0 0 1 1.44 0l2 1.78a1.12 1.12 0 0 1 0 1.64 14.68 14.68 0 0 1-3.79 2.77 13.75 13.75 0 0 1-6.38 1.38 14.27 14.27 0 0 1-5.41-1 13.13 13.13 0 0 1-4.37-2.85 13.31 13.31 0 0 1-2.93-4.39 14.79 14.79 0 0 1-1.06-5.72 15.26 15.26 0 0 1 1-5.44 13.8 13.8 0 0 1 2.72-4.45 13.08 13.08 0 0 1 4.14-3 12.29 12.29 0 0 1 5.29-1.12 12.74 12.74 0 0 1 5.62 1.17 11.57 11.57 0 0 1 4 3.15 13.71 13.71 0 0 1 2.42 4.63 18.75 18.75 0 0 1 .81 5.54v.81c0 .27 0 .56-.07.86h-18.36a1.11 1.11 0 0 0-1.07 1.42 7.39 7.39 0 0 0 2.31 3.63zm9.77-9.12a1.11 1.11 0 0 0 1.09-1.34 9.87 9.87 0 0 0-.44-1.43 7.21 7.21 0 0 0-1.37-2.24 6.55 6.55 0 0 0-2.06-1.5 6.39 6.39 0 0 0-2.72-.56 6.17 6.17 0 0 0-4.7 2 8.28 8.28 0 0 0-2 3.72 1.12 1.12 0 0 0 1.09 1.39zm48.31 15v-33.35a1.12 1.12 0 0 1 1.11-1.12h23.09a1.12 1.12 0 0 1 1.11 1.12v.16a1.11 1.11 0 0 1-1.11 1.11h-20.44a1.12 1.12 0 0 0-1.12 1.12v11.85a1.12 1.12 0 0 0 1.12 1.11h18.15a1.11 1.11 0 0 1 1.11 1.11v.17a1.11 1.11 0 0 1-1.11 1.11h-18.15a1.12 1.12 0 0 0-1.12 1.11v12.11a1.11 1.11 0 0 0 1.12 1.11h20.69a1.12 1.12 0 0 1 1.12 1.12v.16a1.11 1.11 0 0 1-1.12 1.11h-23.34a1.11 1.11 0 0 1-1.11-1.11zm65.39-2.82a7 7 0 0 1-1.91 2.39 8.89 8.89 0 0 1-2.84 1.52 11.42 11.42 0 0 1-3.51.53 16.08 16.08 0 0 1-5.69-1.06 18.6 18.6 0 0 1-4-2 1.13 1.13 0 0 1-.29-1.6l.14-.19a1.13 1.13 0 0 1 1.53-.28 17.32 17.32 0 0 0 3.61 1.89 13.33 13.33 0 0 0 4.83.89 7.33 7.33 0 0 0 4.45-1.32 4.21 4.21 0 0 0 1.8-3.6v-.1a3.36 3.36 0 0 0-.55-1.93 5.38 5.38 0 0 0-1.53-1.42 10 10 0 0 0-2.19-1c-.81-.27-1.67-.54-2.59-.81s-2.11-.63-3.17-1a12.64 12.64 0 0 1-2.88-1.29 6.6 6.6 0 0 1-2-2 5 5 0 0 1-.79-2.89v-.11a6.45 6.45 0 0 1 .63-2.86 7.13 7.13 0 0 1 1.76-2.26 7.87 7.87 0 0 1 2.69-1.49 10.6 10.6 0 0 1 3.46-.54 15.84 15.84 0 0 1 4.8.78 17 17 0 0 1 3.41 1.49 1.12 1.12 0 0 1 .39 1.57l-.16.25a1.09 1.09 0 0 1-1.47.34 17.63 17.63 0 0 0-2.93-1.33 12.75 12.75 0 0 0-4.15-.71 6.59 6.59 0 0 0-4.29 1.3 4 4 0 0 0-1.6 3.22v.1a2.92 2.92 0 0 0 .61 1.85 5.32 5.32 0 0 0 1.6 1.34 12.43 12.43 0 0 0 2.31 1q1.32.44 2.7.84c1.05.3 2.08.63 3.1 1a11.33 11.33 0 0 1 2.74 1.37 6.78 6.78 0 0 1 2 2 5.33 5.33 0 0 1 .74 2.89v.1a6.94 6.94 0 0 1-.76 3.13zm34.71 4.16a9.94 9.94 0 0 1-2.21.23 9.33 9.33 0 0 1-2.84-.41 6.22 6.22 0 0 1-2.32-1.29 6.15 6.15 0 0 1-1.55-2.24 8.27 8.27 0 0 1-.56-3.17v-15.87a1.11 1.11 0 0 0-1.11-1.11h-1.53a1.12 1.12 0 0 1-1.12-1.11v-.07a1.12 1.12 0 0 1 1.12-1.11h1.53a1.11 1.11 0 0 0 1.08-1.07v-6.1a1.11 1.11 0 0 1 1.12-1.11h.26a1.11 1.11 0 0 1 1.12 1.11v6.1a1.11 1.11 0 0 0 1.11 1.11h6.87a1.11 1.11 0 0 1 1.11 1.11v.07a1.11 1.11 0 0 1-1.11 1.11h-6.87a1.11 1.11 0 0 0-1.11 1.11v15.49c0 1.86.48 3.16 1.44 3.91a6 6 0 0 0 3.74 1.11 8.35 8.35 0 0 0 1.83-.19c.17 0 .35-.08.53-.14a1.12 1.12 0 0 1 1.45 1.06 1.12 1.12 0 0 1-.75 1 8.63 8.63 0 0 1-1.23.47zm43.94-1.34v-.47a1.1 1.1 0 0 0-1.89-.78 13.21 13.21 0 0 1-1.66 1.4 9.86 9.86 0 0 1-5.8 1.57 11.61 11.61 0 0 1-4.37-.78 9.34 9.34 0 0 1-3.28-2.22 9.23 9.23 0 0 1-2-3.38 12.78 12.78 0 0 1-.69-4.29v-14.75a1.12 1.12 0 0 1 1.12-1.11h.26a1.11 1.11 0 0 1 1.11 1.11v14.29a9.37 9.37 0 0 0 2.14 6.43 7.7 7.7 0 0 0 6.1 2.42 9.07 9.07 0 0 0 3.53-.69 8.69 8.69 0 0 0 2.87-1.91 8.51 8.51 0 0 0 1.91-2.92 9.82 9.82 0 0 0 .68-3.73v-13.89a1.12 1.12 0 0 1 1.12-1.11h.26a1.11 1.11 0 0 1 1.11 1.11v23.7a1.1 1.1 0 0 1-1.11 1.11h-.26a1.11 1.11 0 0 1-1.15-1.11zm49.91 1.12a1.11 1.11 0 0 1-1.11-1.11v-4.69a23.28 23.28 0 0 1-1.91 2.44 11.62 11.62 0 0 1-2.34 2 12.1 12.1 0 0 1-2.89 1.4 11.05 11.05 0 0 1-3.54.53 12.17 12.17 0 0 1-4.6-.91 12.61 12.61 0 0 1-4-2.64 13.32 13.32 0 0 1-2.87-4.25 14.06 14.06 0 0 1-1.09-5.67v-.1a14.09 14.09 0 0 1 1.09-5.67 13.48 13.48 0 0 1 2.87-4.26 12.79 12.79 0 0 1 4-2.7 12.12 12.12 0 0 1 8.16-.43 11.39 11.39 0 0 1 2.92 1.37 13.18 13.18 0 0 1 2.34 2 18.35 18.35 0 0 1 1.86 2.34v-15.65a1.11 1.11 0 0 1 1.11-1.11h.27a1.11 1.11 0 0 1 1.11 1.11v34.88a1.11 1.11 0 0 1-1.11 1.11zm-1-13a11.4 11.4 0 0 0-.89-4.55 10.84 10.84 0 0 0-5.76-5.77 10 10 0 0 0-3.95-.81 10.43 10.43 0 0 0-4 .76 9.34 9.34 0 0 0-3.23 2.19 10.23 10.23 0 0 0-2.17 3.48 12.81 12.81 0 0 0-.79 4.65v.1a12.47 12.47 0 0 0 .82 4.63 10.54 10.54 0 0 0 2.21 3.53 9.87 9.87 0 0 0 7.16 3 10 10 0 0 0 3.95-.81 10.63 10.63 0 0 0 3.39-2.29 11.5 11.5 0 0 0 2.37-3.5 11.27 11.27 0 0 0 .89-4.53zm50.94 5.22a13.71 13.71 0 0 1-2.79 4.32 13.56 13.56 0 0 1-4.25 3 12.83 12.83 0 0 1-5.33 1.09 12.67 12.67 0 0 1-5.31-1.09 13.7 13.7 0 0 1-4.2-2.92 13.33 13.33 0 0 1-2.77-4.27 13.7 13.7 0 0 1-1-5.19v-.16a13.61 13.61 0 0 1 1-5.18 13.57 13.57 0 0 1 7-7.3 13.07 13.07 0 0 1 5.34-1.09 12.86 12.86 0 0 1 5.31 1.09 13.57 13.57 0 0 1 4.19 2.93 13.06 13.06 0 0 1 2.77 4.27 13.61 13.61 0 0 1 1 5.18v.1a13.7 13.7 0 0 1-.96 5.22zm-1.65-5.22a11.55 11.55 0 0 0-.82-4.37 10.83 10.83 0 0 0-2.27-3.57 10.48 10.48 0 0 0-7.63-3.24 10.27 10.27 0 0 0-4.27.89 10.58 10.58 0 0 0-3.37 2.37 10.87 10.87 0 0 0-2.2 3.52 11.85 11.85 0 0 0-.79 4.3v.1a11.84 11.84 0 0 0 .82 4.38 11.1 11.1 0 0 0 2.27 3.57 10.43 10.43 0 0 0 3.43 2.37 10.51 10.51 0 0 0 11.84-2.4 10.76 10.76 0 0 0 2.2-3.52 11.64 11.64 0 0 0 .79-4.3zm42.21 9.06a7 7 0 0 1-1.9 2.39 9 9 0 0 1-2.85 1.52 11.32 11.32 0 0 1-3.51.53 16.17 16.17 0 0 1-5.69-1.06 18.83 18.83 0 0 1-4-2 1.13 1.13 0 0 1-.29-1.6l.14-.19a1.14 1.14 0 0 1 1.54-.28 17.08 17.08 0 0 0 3.61 1.89 13.33 13.33 0 0 0 4.83.89 7.3 7.3 0 0 0 4.44-1.32 4.2 4.2 0 0 0 1.81-3.6v-.1a3.37 3.37 0 0 0-.56-1.93 5.13 5.13 0 0 0-1.53-1.42 10.18 10.18 0 0 0-2.18-1c-.81-.27-1.68-.54-2.59-.81s-2.11-.63-3.18-1a12.37 12.37 0 0 1-2.87-1.29 6.53 6.53 0 0 1-2.06-2 5 5 0 0 1-.79-2.89v-.11a6.32 6.32 0 0 1 .64-2.86 7.1 7.1 0 0 1 1.75-2.26 8 8 0 0 1 2.69-1.49 10.64 10.64 0 0 1 3.46-.54 15.84 15.84 0 0 1 4.8.78 16.74 16.74 0 0 1 3.41 1.49 1.12 1.12 0 0 1 .39 1.57l-.15.25a1.11 1.11 0 0 1-1.48.34 17.27 17.27 0 0 0-2.93-1.33 12.69 12.69 0 0 0-4.14-.71 6.6 6.6 0 0 0-4.3 1.3 4 4 0 0 0-1.6 3.22v.1a3 3 0 0 0 .61 1.85 5.32 5.32 0 0 0 1.6 1.34 12.84 12.84 0 0 0 2.32 1c.88.29 1.78.57 2.69.84s2.08.63 3.1 1a11.4 11.4 0 0 1 2.75 1.37 6.87 6.87 0 0 1 1.95 2 5.33 5.33 0 0 1 .74 2.89v.1a6.94 6.94 0 0 1-.67 3.13z" fill="#363636"/><circle cx="417.75" cy="175.55" r="10.26" fill="#363636"/><path d="M83.47 244.5a4.07 4.07 0 0 1 3.63 5.94 46.39 46.39 0 0 1-4.1 6.57 45.7 45.7 0 0 1-10.07 9.81 47.07 47.07 0 0 1-12.7 6.4 45.64 45.64 0 0 1-14.28 2.27 43.89 43.89 0 0 1-17.61-3.59 48.07 48.07 0 0 1-14.63-9.72 45.44 45.44 0 0 1-10-14.54A44.14 44.14 0 0 1 0 229.78a43.68 43.68 0 0 1 3.68-17.69 48.73 48.73 0 0 1 10-14.81 48.12 48.12 0 0 1 14.72-10.16 43.67 43.67 0 0 1 18.05-3.77 44.32 44.32 0 0 1 14.45 2.37 45 45 0 0 1 12.52 6.57 49.42 49.42 0 0 1 10 10.07 51.19 51.19 0 0 1 4.31 6.85 4.09 4.09 0 0 1-3.58 6h-8.91a4.1 4.1 0 0 1-3.48-2 28.5 28.5 0 0 0-9.83-9.6 29.8 29.8 0 0 0-15.5-4.21A28.79 28.79 0 0 0 35 201.84a32.23 32.23 0 0 0-9.72 6.39 30.66 30.66 0 0 0-6.75 9.64 29 29 0 0 0-.31 23.14 29.56 29.56 0 0 0 6.39 9.55 31.9 31.9 0 0 0 9.55 6.57 28.13 28.13 0 0 0 11.74 2.45 30.33 30.33 0 0 0 15.15-4.11 30.26 30.26 0 0 0 10.2-9.22 4 4 0 0 1 3.32-1.73zm61.94 31.44a45 45 0 0 1-18.13-3.68 48.26 48.26 0 0 1-14.89-10 46.87 46.87 0 0 1-10.08-14.72 45.64 45.64 0 0 1 0-35.91 46.87 46.87 0 0 1 10.08-14.72 48.26 48.26 0 0 1 14.89-10 46.08 46.08 0 0 1 36.09 0 47.27 47.27 0 0 1 14.8 10 47.81 47.81 0 0 1 10 14.72 45.64 45.64 0 0 1 0 35.91 47.81 47.81 0 0 1-10 14.72 47.27 47.27 0 0 1-14.8 10 44.61 44.61 0 0 1-17.96 3.68zm0-76.21a30.22 30.22 0 0 0-11.91 2.37 30.44 30.44 0 0 0-16.3 15.85 29.35 29.35 0 0 0 0 23.48 32.27 32.27 0 0 0 6.57 9.55 30.6 30.6 0 0 0 21.64 8.84 29.68 29.68 0 0 0 11.83-2.36 30.46 30.46 0 0 0 16.11-16 30.26 30.26 0 0 0 0-23.48 29.79 29.79 0 0 0-6.48-9.46 31.5 31.5 0 0 0-9.63-6.39 29.69 29.69 0 0 0-11.83-2.4zm430.17 33.65a9.8 9.8 0 0 0 9.43-7.61 26.6 26.6 0 0 0-1.24-14.76 40.38 40.38 0 0 0-9.77-14.34 46.3 46.3 0 0 0-14.42-9.73 45 45 0 0 0-35.16 0 47.18 47.18 0 0 0-14.42 9.73 45.59 45.59 0 0 0-9.87 14.34 44.54 44.54 0 0 0 0 35 45.59 45.59 0 0 0 9.87 14.33 47.18 47.18 0 0 0 14.51 9.73 45 45 0 0 0 35.16 0 45.84 45.84 0 0 0 24.1-24.06c.53-1.21-.11-2.16-1.69-2.57 0 0-12.44-2.58-15.81 2a32.34 32.34 0 0 1-3.24 3.88 29.62 29.62 0 0 1-9.39 6.31 28.84 28.84 0 0 1-11.52 2.31 29.85 29.85 0 0 1-21.12-8.61 28.33 28.33 0 0 1-8.31-15.95m2.06-16.51a30 30 0 0 1 27.33-17.47 28.84 28.84 0 0 1 11.52 2.31 30.25 30.25 0 0 1 9.39 6.23 32.53 32.53 0 0 1 5.79 8.89m-75.16 41.83a1.66 1.66 0 0 0-2-.79c-3.6 1.14-13.86 4.84-17-2.16a12.54 12.54 0 0 1-1.29-4.44c-1.36-10.89 0-74.46 0-93a5.07 5.07 0 0 0-5.07-5.07h-8.93a4.09 4.09 0 0 0-4.09 4.09v28a4.09 4.09 0 0 1-4.09 4.09h-11.72a4.09 4.09 0 0 0-4.09 4.09v8a4.09 4.09 0 0 0 4.09 4.09h14.18a1.67 1.67 0 0 1 1.67 1.67s.61 17.27.61 47.79c0 13.06 11.07 17.81 17 19.25a34 34 0 0 0 20.45-1.41 6.46 6.46 0 0 0 3.15-9z" fill="#363636"/><rect x="408.77" y="192.62" width="17.95" height="83.2" rx="2.93" ry="2.93" fill="#363636"/><path d="M286.34 193.39h-8.59a3.48 3.48 0 0 0-3.3 2.41 46.52 46.52 0 0 0-13.26-8.79 44.26 44.26 0 0 0-35.34 0 47.35 47.35 0 0 0-14.59 10 46.84 46.84 0 0 0-9.86 14.7 46.5 46.5 0 0 0 0 35.88 46.84 46.84 0 0 0 9.86 14.7 47.35 47.35 0 0 0 14.59 10 44.26 44.26 0 0 0 35.34 0 46.44 46.44 0 0 0 13.07-8.59v22.59c0 10.95-8.41 20.33-19.34 20.89h-1.17c-11.41 0-20.67-8.52-20.67-19v-.42a4.55 4.55 0 0 0-4.54-4.7h-7.19a2.86 2.86 0 0 0-2.84 2.65 35.32 35.32 0 0 0 35.23 37.79c15.43 0 24.32-7.53 29.33-15.25a38.62 38.62 0 0 0 6-21v-91.14a2.72 2.72 0 0 0-2.73-2.72zm-42.91 68.28a31.11 31.11 0 1 1 31.1-31.11 31.1 31.1 0 0 1-31.1 31.11zm144.78-68.28h-8.59a3.47 3.47 0 0 0-3.3 2.41 46.57 46.57 0 0 0-13.27-8.79 43 43 0 0 0-17.58-3.68 43.49 43.49 0 0 0-17.76 3.68 47.18 47.18 0 0 0-14.58 10 46.67 46.67 0 0 0-9.86 14.7 46.38 46.38 0 0 0 0 35.88 46.67 46.67 0 0 0 9.86 14.7 47.18 47.18 0 0 0 14.58 10 43.49 43.49 0 0 0 17.76 3.68 43 43 0 0 0 17.58-3.68 46.49 46.49 0 0 0 13.08-8.59v22.59c0 10.95-8.41 20.33-19.34 20.89h-1.17c-11.41 0-20.67-8.52-20.67-19v-.42a4.56 4.56 0 0 0-4.55-4.7h-7.18a2.85 2.85 0 0 0-2.84 2.65 35.32 35.32 0 0 0 35.23 37.79c15.43 0 24.32-7.53 29.32-15.25a38.54 38.54 0 0 0 6-21v-91.14a2.72 2.72 0 0 0-2.72-2.72zm-42.91 68.28a31.11 31.11 0 1 1 31.1-31.11 31.11 31.11 0 0 1-31.1 31.11z" fill="#363636"/></symbol><symbol id="phone" viewBox="0 0 463 463"><title>telephone</title><path d="M297.79 273.12c-8.46-8.35-19-8.35-27.42 0-6.42 6.35-12.83 12.71-19.13 19.18-1.72 1.77-3.18 2.15-5.28 1-4.15-2.27-8.56-4.1-12.55-6.58-18.59-11.69-34.16-26.72-47.98-43.6-6.84-8.41-12.93-17.4-17.18-27.53a3.94 3.94 0 0 1 1-5.07c6.41-6.19 12.66-12.55 19-18.91 8.78-8.83 8.78-19.17-.05-28.06-5-5.07-10-10-15-15.09-5.18-5.17-10.29-10.39-15.52-15.51-8.46-8.24-19-8.24-27.42.05-6.47 6.36-12.66 12.88-19.23 19.13a31.22 31.22 0 0 0-9.88 20.99c-1 13.41 2.26 26.07 6.9 38.41 9.48 25.54 23.92 48.22 41.43 69a256.4 256.4 0 0 0 84.95 66.48c14.87 7.22 30.27 12.76 47 13.68 11.53.65 21.55-2.26 29.58-11.26 5.49-6.14 11.69-11.74 17.5-17.62 8.62-8.72 8.68-19.28.11-27.9q-15.36-15.43-30.83-30.79zm-10.29-42.91l19.93-3.39a89.25 89.25 0 0 0-75.48-73.22l-2.8 20a69 69 0 0 1 58.4 56.62z"/><path d="M234.54 101.89l-2.8 20a127.93 127.93 0 0 1 108.23 104.87l19.88-3.39a148.17 148.17 0 0 0-125.31-121.48z"/><path d="M231.5 0C103.65 0 0 103.65 0 231.5S103.65 463 231.5 463 463 359.36 463 231.5 359.36 0 231.5 0zm-1.07 448.21c-119.8 0-216.9-97.09-216.9-216.88s97.1-216.87 216.9-216.87 216.87 97.1 216.87 216.87-97.12 216.88-216.87 216.88z"/></symbol><symbol id="pin" viewBox="0 0 512 512"><path d="M256 0C161.896 0 85.333 76.563 85.333 170.667c0 28.25 7.063 56.26 20.49 81.104L246.667 506.5c1.875 3.396 5.448 5.5 9.333 5.5s7.458-2.104 9.333-5.5l140.896-254.813c13.375-24.76 20.438-52.771 20.438-81.021C426.667 76.563 350.104 0 256 0zm0 256c-47.052 0-85.333-38.281-85.333-85.333S208.948 85.334 256 85.334s85.333 38.281 85.333 85.333S303.052 256 256 256z"/></symbol><symbol id="plug" viewBox="0 0 80.206 104.566"><g id="plug" transform="translate(-57.699)"><path id="Path_31" data-name="Path 31" class="cls-1" d="M63.241 390.7a6.3 6.3 0 0 1-.772-.882l-.551.551a14.847 14.847 0 0 0 0 20.734 3.363 3.363 0 0 0 2.316.993 3.173 3.173 0 0 0 2.316-.993 3.3 3.3 0 0 0 .11-4.632 8.258 8.258 0 0 1 0-11.47l.551-.551a5.539 5.539 0 0 1-.882-.772z" transform="translate(0 -307.526)"/><path id="Path_32" data-name="Path 32" class="cls-2" d="M154.247 203.7l-9.264 9.154-9.816-9.816 9.154-9.264a3.275 3.275 0 0 0-4.632-4.632l-9.154 9.154-2.1-2.206-2.978-2.868a3.276 3.276 0 1 0-4.522 4.742l.551.551 2.316 2.316 4.411 4.522 14.453 14.447 4.411 4.3 2.316 2.426.551.551a3.421 3.421 0 0 0 2.426.993 3.792 3.792 0 0 0 2.316-.882 3.3 3.3 0 0 0 .11-4.632l-2.978-3.088-2.1-2.1 9.154-9.154a3.2 3.2 0 0 0 0-4.632 3.3 3.3 0 0 0-4.625.118z" transform="translate(-49.096 -148.431)"/><path id="Path_33" data-name="Path 33" class="cls-3" d="M394.355 21.41a6.3 6.3 0 0 1 .772.882l.551-.551a14.848 14.848 0 0 0 0-20.734 3.276 3.276 0 1 0-4.742 4.521 8.258 8.258 0 0 1 0 11.47l-.551.551a5.534 5.534 0 0 1 .882.772z" transform="translate(-262.185)"/><path id="Path_34" data-name="Path 34" class="cls-1" d="M99.321 260.867l-4.411-4.3-14.448-14.559-4.411-4.522-2.426-2.316-9.044 9.043a17.632 17.632 0 0 0-.772 24.153 5.536 5.536 0 0 0 .772.882l3.088 3.088a6.3 6.3 0 0 0 .882.772 17.31 17.31 0 0 0 11.691 4.411 17.519 17.519 0 0 0 12.458-5.182l9.044-9.044z" transform="translate(-1.339 -185.526)"/><path id="Path_35" data-name="Path 35" class="cls-4" d="M274.2 67.9l-3.088-3.088a6.3 6.3 0 0 0-.882-.772 17.31 17.31 0 0 0-11.69-4.411 17.52 17.52 0 0 0-12.462 5.183l-9.044 9.044 2.316 2.426 23.375 23.378 2.426 2.316 9.044-9.044a17.632 17.632 0 0 0 .772-24.153 2.977 2.977 0 0 0-.767-.879z" transform="translate(-141.473 -47.039)"/><path id="Path_36" data-name="Path 36" class="cls-5" d="M218.823 121.536l-2.423-2.426-.441-.551a3.276 3.276 0 0 0-4.742 4.522l2.868 2.978 23.381 23.381 2.978 2.868a3.068 3.068 0 0 0 2.316.882 3.421 3.421 0 0 0 2.426-.993 3.3 3.3 0 0 0-.11-4.632l-.551-.331-2.426-2.316z" transform="translate(-120.4 -92.737)"/></g></symbol><symbol id="reading" viewBox="0 0 97.69 104.69"><g id="icon_reading" data-name="icon reading" transform="translate(-592 -2681)"><ellipse id="Ellipse_44" data-name="Ellipse 44" class="cls-1" cx="19.122" cy="19.746" rx="19.122" ry="19.746" transform="translate(621.723 2681)"/><path id="Path_19" data-name="Path 19" class="cls-2" d="M59.151 243.688L12.8 234.543v-53.21l46.351 9.146z" transform="translate(581.694 2542.001)"/><g id="Group_62" data-name="Group 62" transform="translate(0 7)"><path id="Union_1" data-name="Union 1" class="cls-1" d="M-235-78.427l.641-.128-.018-.08 14.757-3.326a1.914 1.914 0 0 1 2.286 1.455 1.914 1.914 0 0 1-1.454 2.286l-10.251 2.31.318 1.479 12.221-2.749a2.023 2.023 0 0 1 2.286 1.454 1.915 1.915 0 0 1-1.454 2.287l-12.245 2.755.349 1.623 11.065-2.508a1.914 1.914 0 0 1 2.286 1.455 1.914 1.914 0 0 1-1.454 2.286l-11.09 2.514.343 1.6 8.668-2.032a1.776 1.776 0 0 1 2.287 1.455 1.915 1.915 0 0 1-1.455 2.286l-13.3 3.118-.049-.22-4.737 1.05z" transform="translate(827 2820.327)"/><path id="Union_2" data-name="Union 2" class="cls-1" d="M-218.884-59.1v.012l-2.942-.666-1.7-.378v-.007l-8.724-1.976a1.859 1.859 0 0 1-1.462-2.219 1.785 1.785 0 0 1 2.3-1.413l8.673 1.964.328-1.526-11.09-2.514a1.914 1.914 0 0 1-1.455-2.286 1.915 1.915 0 0 1 2.287-1.455l11.064 2.508.349-1.623-12.245-2.755a1.915 1.915 0 0 1-1.455-2.287 2.024 2.024 0 0 1 2.287-1.454l12.219 2.749.318-1.479-10.251-2.31a1.913 1.913 0 0 1-1.454-2.286 1.914 1.914 0 0 1 2.286-1.455l14.757 3.326-.018.08.641.128v20.37z" transform="translate(903.865 2820.327)"/></g><path id="Path_20" data-name="Path 20" class="cls-3" d="M250.667 243.688l46.351-9.145v-53.21l-46.351 9.146z" transform="translate(390.178 2542.001)"/></g></symbol><symbol id="secondleft" viewBox="0 0 333 522"><g id="forma_1" data-name="forma 1" class="cls-2" transform="translate(0 -2464)"><path id="Path_78" data-name="Path 78" class="cls-3" d="M595.589 242.636a21.229 21.229 0 0 0-30.117 0L520.406 287.7a21.23 21.23 0 0 1-30.117 0 21.23 21.23 0 0 1 0-30.117l88.811-88.811a21.3 21.3 0 0 0-30.117-30.117l-43.307 43.307a21.3 21.3 0 0 1-30.117-30.117l9.673-9.673 105.74-105.74a21.3 21.3 0 1 0-30.117-30.117L454.9 112.055l-62.653 62.653a21.229 21.229 0 0 1-30.117 0 21.229 21.229 0 0 1 0-30.117l62.652-62.653a21.3 21.3 0 0 0-30.117-30.117L291.779 154.7a21.3 21.3 0 0 1-30.117-30.117L279.249 107a21.3 21.3 0 0 0-30.117-30.117L47.764 278.249a21.3 21.3 0 0 0 30.117 30.117l29.238-29.238a21.3 21.3 0 0 1 30.117 30.117L6.215 439.827a21.3 21.3 0 0 0 30.117 30.117l74.968-74.963a21.229 21.229 0 0 1 30.117 0 21.23 21.23 0 0 1 0 30.117L66.45 500.062l-48.364 48.363a21.229 21.229 0 0 0 0 30.117 21.229 21.229 0 0 0 30.117 0l48.363-48.363 95.847-95.847a21.3 21.3 0 1 1 30.117 30.117l-17.587 17.587a21.3 21.3 0 0 0 30.117 30.117l23.083-23.082 29.238-29.238a21.361 21.361 0 0 1 25.94-3.3l1.1.879 3.3 2.638a21.365 21.365 0 0 1-.22 29.9l-52.54 52.54-39.13 39.35a21.3 21.3 0 0 0 30.117 30.117l39.13-39.35 98.485-98.486 29.458-29.458 73.425-73.424 98.485-98.485a20.676 20.676 0 0 0 .658-30.118z" transform="scale(-1) rotate(13 13590.49 -2510.391)"/><path id="Path_82" data-name="Path 82" class="cls-4" d="M23 0A23 23 0 1 1 0 23 23 23 0 0 1 23 0z" transform="translate(150 2524)"/><path id="Path_81" data-name="Path 81" class="cls-5" d="M18.5 0h39a18.5 18.5 0 0 1 0 37h-39a18.5 18.5 0 0 1 0-37z" transform="rotate(-30 5324.703 949.52)"/></g></symbol><symbol id="secondright" viewBox="0 0 339 502"><g id="forma_2" data-name="forma 2" class="cls-2" transform="translate(-1581 -2401)"><path id="Path_79" data-name="Path 79" class="cls-3" d="M595.589 242.636a21.229 21.229 0 0 0-30.117 0L520.406 287.7a21.23 21.23 0 0 1-30.117 0 21.23 21.23 0 0 1 0-30.117l88.811-88.811a21.3 21.3 0 0 0-30.117-30.117l-43.307 43.307a21.3 21.3 0 0 1-30.117-30.117l9.673-9.673 105.74-105.74a21.3 21.3 0 1 0-30.117-30.117L454.9 112.055l-62.653 62.653a21.229 21.229 0 0 1-30.117 0 21.229 21.229 0 0 1 0-30.117l62.652-62.653a21.3 21.3 0 0 0-30.117-30.117L291.779 154.7a21.3 21.3 0 0 1-30.117-30.117L279.249 107a21.3 21.3 0 0 0-30.117-30.117L47.764 278.249a21.3 21.3 0 0 0 30.117 30.117l29.238-29.238a21.3 21.3 0 0 1 30.117 30.117L6.215 439.827a21.3 21.3 0 0 0 30.117 30.117l74.968-74.963a21.229 21.229 0 0 1 30.117 0 21.23 21.23 0 0 1 0 30.117L66.45 500.062l-48.364 48.363a21.229 21.229 0 0 0 0 30.117 21.229 21.229 0 0 0 30.117 0l48.363-48.363 95.847-95.847a21.3 21.3 0 1 1 30.117 30.117l-17.587 17.587a21.3 21.3 0 0 0 30.117 30.117l23.083-23.082 29.238-29.238a21.361 21.361 0 0 1 25.94-3.3l1.1.879 3.3 2.638a21.365 21.365 0 0 1-.22 29.9l-52.54 52.54-39.13 39.35a21.3 21.3 0 0 0 30.117 30.117l39.13-39.35 98.485-98.486 29.458-29.458 73.425-73.424 98.485-98.485a20.676 20.676 0 0 0 .658-30.118z" transform="rotate(17 -6620.343 6930.32)"/><circle id="Ellipse_88" data-name="Ellipse 88" class="cls-4" cx="23" cy="23" r="23" transform="scale(-1) rotate(4.01 39639.166 -26549.788)"/><rect id="Rectangle_145" data-name="Rectangle 145" class="cls-5" width="76" height="37" rx="18.5" transform="rotate(154.03 549.466 1479.414)"/></g></symbol><symbol id="tea" viewBox="0 0 86.888 85.938"><g id="tea" transform="translate(0 -2.801)"><path id="Path_37" data-name="Path 37" class="cls-1" d="M365.478 149.023a19.851 19.851 0 1 1-.389 38.489l.36-7.743a12.262 12.262 0 1 0 .029-22.916z" transform="translate(-303.132 -120.945)"/><path id="Path_38" data-name="Path 38" class="cls-2" d="M390.023 190.166a19.872 19.872 0 0 1-24.931 19.2l.107-2.3a19.865 19.865 0 0 0 21.987-19.737 19.755 19.755 0 0 0-4.473-12.549 19.805 19.805 0 0 1 7.31 15.386z" transform="translate(-303.135 -142.794)"/><path id="Path_39" data-name="Path 39" class="cls-3" d="M61.456 468.848H1.833A1.833 1.833 0 0 1 0 467.015v-4.581a1.833 1.833 0 0 1 1.833-1.834h59.623a1.833 1.833 0 0 1 1.833 1.833v4.581a1.833 1.833 0 0 1-1.833 1.834z" transform="translate(0 -380.11)"/><path id="Path_40" data-name="Path 40" class="cls-4" d="M351.192 462.437v4.582a1.833 1.833 0 0 1-1.832 1.832h-2.613V460.6h2.613a1.833 1.833 0 0 1 1.832 1.837z" transform="translate(-287.903 -380.113)"/><path id="Path_41" data-name="Path 41" class="cls-5" d="M53.3 166.5H19.584a13.807 13.807 0 0 1-13.807-13.809v-45.429a.875.875 0 0 1 .875-.875h59.579a.875.875 0 0 1 .875.875v45.429A13.807 13.807 0 0 1 53.3 166.5z" transform="translate(-4.797 -86.007)"/><path id="Path_42" data-name="Path 42" class="cls-6" d="M275.617 106.39a.875.875 0 0 1 .875.875v45.429a13.808 13.808 0 0 1-13.808 13.806h-4.725a13.808 13.808 0 0 0 13.808-13.808v-46.3z" transform="translate(-214.182 -86.01)"/><g id="Group_63" data-name="Group 63" transform="translate(8.614 2.801)"><path id="Path_43" data-name="Path 43" class="cls-7" d="M52.071 60.785a1.312 1.312 0 0 0 1.312-1.312v-2.644a1.312 1.312 0 1 0-2.625 0v2.643a1.312 1.312 0 0 0 1.313 1.313z" transform="translate(-50.759 -46.571)"/><path id="Path_44" data-name="Path 44" class="cls-7" d="M115.572 39.366a1.312 1.312 0 0 0 1.312-1.312v-7.022a1.312 1.312 0 0 0-2.625 0v7.021a1.312 1.312 0 0 0 1.313 1.313z" transform="translate(-103.484 -25.152)"/><path id="Path_45" data-name="Path 45" class="cls-7" d="M83.145 17.015a1.312 1.312 0 0 0 1.313-1.315V4.113a1.312 1.312 0 1 0-2.625 0V15.7a1.312 1.312 0 0 0 1.312 1.315z" transform="translate(-76.56 -2.801)"/><path id="Path_46" data-name="Path 46" class="cls-7" d="M146.722 17.015a1.312 1.312 0 0 0 1.312-1.312V4.113a1.312 1.312 0 1 0-2.625 0V15.7a1.312 1.312 0 0 0 1.313 1.315z" transform="translate(-129.347 -2.801)"/><path id="Path_47" data-name="Path 47" class="cls-7" d="M214.515 69.884v20.043a1.312 1.312 0 0 1-2.625 0V69.884a3.062 3.062 0 0 0-6.125 0v1.474h-2.625v-1.474a5.688 5.688 0 1 1 11.375 0z" transform="translate(-177.28 -53.777)"/></g><path id="Path_48" data-name="Path 48" class="cls-3" d="M219.367 203.429l-8.287 4.441a.875.875 0 0 0-.462.771v13.839a.875.875 0 0 0 .875.875h15.748a.875.875 0 0 0 .875-.875v-13.839a.875.875 0 0 0-.462-.771z" transform="translate(-174.875 -166.581)"/><path id="Path_49" data-name="Path 49" class="cls-8" d="M258.673 208.641v13.837a.875.875 0 0 1-.875.875h-1.7v-13.382a.915.915 0 0 0-.483-.807l-8.2-4.394 2.5-1.342 8.286 4.441a.873.873 0 0 1 .472.772z" transform="translate(-205.432 -166.58)"/></g></symbol></svg>