<svg xmlns="http://www.w3.org/2000/svg" viewBox="0 0 133.45 127.6">
  <defs>
    <style>
      .cls-1 {
        fill: #01cec7;
      }
    </style>
  </defs>
  <g id="XMLID_2_" transform="translate(0.025)">
    <g id="XMLID_3_">
      <g id="XMLID_33_">
        <g id="XMLID_53_">
          <g id="XMLID_56_">
            <g id="Group_814" data-name="Group 814">
              <path id="Path_773" data-name="Path 773" class="cls-1" d="M41.8,6c3.9,0,3.9-6,0-6s-3.9,6,0,6Z"/>
            </g>
          </g>
          <g id="XMLID_55_">
            <g id="Group_815" data-name="Group 815">
              <path id="Path_774" data-name="Path 774" class="cls-1" d="M29,21.5c3.9,0,3.9-6,0-6s-3.9,6,0,6Z"/>
            </g>
          </g>
          <g id="XMLID_54_">
            <g id="Group_816" data-name="Group 816">
              <path id="Path_775" data-name="Path 775" class="cls-1" d="M54.5,21.5c3.9,0,3.9-6,0-6-3.8,0-3.8,6,0,6Z"/>
            </g>
          </g>
        </g>
        <g id="XMLID_47_">
          <g id="XMLID_52_">
            <g id="Group_817" data-name="Group 817">
              <path id="Path_776" data-name="Path 776" class="cls-1" d="M15.7,36.4c3.9,0,3.9-6,0-6s-3.9,6,0,6Z"/>
            </g>
          </g>
          <g id="XMLID_51_">
            <g id="Group_818" data-name="Group 818">
              <path id="Path_777" data-name="Path 777" class="cls-1" d="M41.3,36.4c3.9,0,3.9-6,0-6s-3.9,6,0,6Z"/>
            </g>
          </g>
          <g id="XMLID_50_">
            <g id="Group_819" data-name="Group 819">
              <path id="Path_778" data-name="Path 778" class="cls-1" d="M2.9,51.9c3.9,0,3.9-6,0-6s-3.9,6,0,6Z"/>
            </g>
          </g>
          <g id="XMLID_49_">
            <g id="Group_820" data-name="Group 820">
              <path id="Path_779" data-name="Path 779" class="cls-1" d="M28.5,51.9c3.9,0,3.9-6,0-6s-3.9,6,0,6Z"/>
            </g>
          </g>
          <g id="XMLID_48_">
            <g id="Group_821" data-name="Group 821">
              <path id="Path_780" data-name="Path 780" class="cls-1" d="M54,51.9c3.9,0,3.9-6,0-6-3.8,0-3.8,6,0,6Z"/>
            </g>
          </g>
        </g>
        <g id="XMLID_41_">
          <g id="XMLID_46_">
            <g id="Group_822" data-name="Group 822">
              <path id="Path_781" data-name="Path 781" class="cls-1" d="M16.2,66.8c3.9,0,3.9-6,0-6s-3.9,6,0,6Z"/>
            </g>
          </g>
          <g id="XMLID_45_">
            <g id="Group_823" data-name="Group 823">
              <path id="Path_782" data-name="Path 782" class="cls-1" d="M41.8,66.8c3.9,0,3.9-6,0-6s-3.9,6,0,6Z"/>
            </g>
          </g>
          <g id="XMLID_44_">
            <g id="Group_824" data-name="Group 824">
              <path id="Path_783" data-name="Path 783" class="cls-1" d="M3.4,82.3c3.9,0,3.9-6,0-6s-3.9,6,0,6Z"/>
            </g>
          </g>
          <g id="XMLID_43_">
            <g id="Group_825" data-name="Group 825">
              <path id="Path_784" data-name="Path 784" class="cls-1" d="M29,82.3c3.9,0,3.9-6,0-6s-3.9,6,0,6Z"/>
            </g>
          </g>
          <g id="XMLID_42_">
            <g id="Group_826" data-name="Group 826">
              <path id="Path_785" data-name="Path 785" class="cls-1" d="M54.5,82.3c3.9,0,3.9-6,0-6-3.8,0-3.8,6,0,6Z"/>
            </g>
          </g>
        </g>
        <g id="XMLID_36_">
          <g id="XMLID_40_">
            <g id="Group_827" data-name="Group 827">
              <path id="Path_786" data-name="Path 786" class="cls-1" d="M16.2,97.2c3.9,0,3.9-6,0-6s-3.9,6,0,6Z"/>
            </g>
          </g>
          <g id="XMLID_39_">
            <g id="Group_828" data-name="Group 828">
              <path id="Path_787" data-name="Path 787" class="cls-1" d="M41.8,97.2c3.9,0,3.9-6,0-6s-3.9,6,0,6Z"/>
            </g>
          </g>
          <g id="XMLID_38_">
            <g id="Group_829" data-name="Group 829">
              <path id="Path_788" data-name="Path 788" class="cls-1" d="M29,112.7c3.9,0,3.9-6,0-6s-3.9,6,0,6Z"/>
            </g>
          </g>
          <g id="XMLID_37_">
            <g id="Group_830" data-name="Group 830">
              <path id="Path_789" data-name="Path 789" class="cls-1" d="M54.5,112.7c3.9,0,3.9-6,0-6-3.8,0-3.8,6,0,6Z"/>
            </g>
          </g>
        </g>
        <g id="XMLID_34_">
          <g id="XMLID_35_">
            <g id="Group_831" data-name="Group 831">
              <path id="Path_790" data-name="Path 790" class="cls-1" d="M41.8,127.6c3.9,0,3.9-6,0-6s-3.9,6,0,6Z"/>
            </g>
          </g>
        </g>
      </g>
      <g id="XMLID_4_">
        <g id="XMLID_28_">
          <g id="XMLID_32_">
            <g id="Group_832" data-name="Group 832">
              <path id="Path_791" data-name="Path 791" class="cls-1" d="M66.6,6c3.9,0,3.9-6,0-6s-3.9,6,0,6Z"/>
            </g>
          </g>
          <g id="XMLID_31_">
            <g id="Group_833" data-name="Group 833">
              <path id="Path_792" data-name="Path 792" class="cls-1" d="M92.2,6c3.9,0,3.9-6,0-6s-3.9,6,0,6Z"/>
            </g>
          </g>
          <g id="XMLID_30_">
            <g id="Group_834" data-name="Group 834">
              <path id="Path_793" data-name="Path 793" class="cls-1" d="M79.4,21.5c3.9,0,3.9-6,0-6s-3.9,6,0,6Z"/>
            </g>
          </g>
          <g id="XMLID_29_">
            <g id="Group_835" data-name="Group 835">
              <path id="Path_794" data-name="Path 794" class="cls-1" d="M105,21.5c3.9,0,3.9-6,0-6s-3.9,6,0,6Z"/>
            </g>
          </g>
        </g>
        <g id="XMLID_21_">
          <g id="XMLID_27_">
            <g id="Group_836" data-name="Group 836">
              <path id="Path_795" data-name="Path 795" class="cls-1" d="M66.1,36.4c3.9,0,3.9-6,0-6s-3.9,6,0,6Z"/>
            </g>
          </g>
          <g id="XMLID_26_">
            <g id="Group_837" data-name="Group 837">
              <path id="Path_796" data-name="Path 796" class="cls-1" d="M91.7,36.4c3.9,0,3.9-6,0-6s-3.9,6,0,6Z"/>
            </g>
          </g>
          <g id="XMLID_25_">
            <g id="Group_838" data-name="Group 838">
              <path id="Path_797" data-name="Path 797" class="cls-1" d="M117.3,36.4c3.9,0,3.9-6,0-6s-3.9,6,0,6Z"/>
            </g>
          </g>
          <g id="XMLID_24_">
            <g id="Group_839" data-name="Group 839">
              <path id="Path_798" data-name="Path 798" class="cls-1" d="M78.9,51.9c3.9,0,3.9-6,0-6s-3.9,6,0,6Z"/>
            </g>
          </g>
          <g id="XMLID_23_">
            <g id="Group_840" data-name="Group 840">
              <path id="Path_799" data-name="Path 799" class="cls-1" d="M104.5,51.9c3.9,0,3.9-6,0-6s-3.9,6,0,6Z"/>
            </g>
          </g>
          <g id="XMLID_22_">
            <g id="Group_841" data-name="Group 841">
              <path id="Path_800" data-name="Path 800" class="cls-1" d="M130,51.9c3.9,0,3.9-6,0-6-3.8,0-3.8,6,0,6Z"/>
            </g>
          </g>
        </g>
        <g id="XMLID_14_">
          <g id="XMLID_20_">
            <g id="Group_842" data-name="Group 842">
              <path id="Path_801" data-name="Path 801" class="cls-1" d="M66.6,66.8c3.9,0,3.9-6,0-6s-3.9,6,0,6Z"/>
            </g>
          </g>
          <g id="XMLID_19_">
            <g id="Group_843" data-name="Group 843">
              <path id="Path_802" data-name="Path 802" class="cls-1" d="M92.2,66.8c3.9,0,3.9-6,0-6s-3.9,6,0,6Z"/>
            </g>
          </g>
          <g id="XMLID_18_">
            <g id="Group_844" data-name="Group 844">
              <path id="Path_803" data-name="Path 803" class="cls-1" d="M117.8,66.8c3.9,0,3.9-6,0-6s-3.9,6,0,6Z"/>
            </g>
          </g>
          <g id="XMLID_17_">
            <g id="Group_845" data-name="Group 845">
              <path id="Path_804" data-name="Path 804" class="cls-1" d="M79.4,82.3c3.9,0,3.9-6,0-6s-3.9,6,0,6Z"/>
            </g>
          </g>
          <g id="XMLID_16_">
            <g id="Group_846" data-name="Group 846">
              <path id="Path_805" data-name="Path 805" class="cls-1" d="M105,82.3c3.9,0,3.9-6,0-6s-3.9,6,0,6Z"/>
            </g>
          </g>
          <g id="XMLID_15_">
            <g id="Group_847" data-name="Group 847">
              <path id="Path_806" data-name="Path 806" class="cls-1" d="M130.5,82.3c3.9,0,3.9-6,0-6-3.8,0-3.8,6,0,6Z"/>
            </g>
          </g>
        </g>
        <g id="XMLID_8_">
          <g id="XMLID_13_">
            <g id="Group_848" data-name="Group 848">
              <path id="Path_807" data-name="Path 807" class="cls-1" d="M66.6,97.2c3.9,0,3.9-6,0-6s-3.9,6,0,6Z"/>
            </g>
          </g>
          <g id="XMLID_12_">
            <g id="Group_849" data-name="Group 849">
              <path id="Path_808" data-name="Path 808" class="cls-1" d="M92.2,97.2c3.9,0,3.9-6,0-6s-3.9,6,0,6Z"/>
            </g>
          </g>
          <g id="XMLID_11_">
            <g id="Group_850" data-name="Group 850">
              <path id="Path_809" data-name="Path 809" class="cls-1" d="M117.8,97.2c3.9,0,3.9-6,0-6s-3.9,6,0,6Z"/>
            </g>
          </g>
          <g id="XMLID_10_">
            <g id="Group_851" data-name="Group 851">
              <path id="Path_810" data-name="Path 810" class="cls-1" d="M79.4,112.7c3.9,0,3.9-6,0-6s-3.9,6,0,6Z"/>
            </g>
          </g>
          <g id="XMLID_9_">
            <g id="Group_852" data-name="Group 852">
              <path id="Path_811" data-name="Path 811" class="cls-1" d="M105,112.7c3.9,0,3.9-6,0-6s-3.9,6,0,6Z"/>
            </g>
          </g>
        </g>
        <g id="XMLID_5_">
          <g id="XMLID_7_">
            <g id="Group_853" data-name="Group 853">
              <path id="Path_812" data-name="Path 812" class="cls-1" d="M66.6,127.6c3.9,0,3.9-6,0-6s-3.9,6,0,6Z"/>
            </g>
          </g>
          <g id="XMLID_6_">
            <g id="Group_854" data-name="Group 854">
              <path id="Path_813" data-name="Path 813" class="cls-1" d="M92.2,127.6c3.9,0,3.9-6,0-6s-3.9,6,0,6Z"/>
            </g>
          </g>
        </g>
      </g>
    </g>
  </g>
</svg>
