<svg id="Camada_1" data-name="Camada 1" xmlns="http://www.w3.org/2000/svg" xmlns:xlink="http://www.w3.org/1999/xlink" viewBox="0 0 585.55 386.62"><defs><linearGradient id="Gradiente_sem_nome_580" x1="250.94" y1="65.49" x2="334.66" y2="65.49" gradientUnits="userSpaceOnUse"><stop offset="0" stop-color="#435f93"/><stop offset="1" stop-color="#485f91"/></linearGradient><linearGradient id="Gradiente_sem_nome_589" x1="271.56" y1="63.9" x2="306.52" y2="63.9" gradientUnits="userSpaceOnUse"><stop offset="0" stop-color="#418ca7"/><stop offset="0.25" stop-color="#4791a9"/><stop offset="0.58" stop-color="#589faf"/><stop offset="0.96" stop-color="#73b5b9"/><stop offset="1" stop-color="#76b8ba"/></linearGradient><linearGradient id="Gradiente_sem_nome_569" x1="227.46" y1="66.3" x2="358.09" y2="66.3" gradientUnits="userSpaceOnUse"><stop offset="0" stop-color="#483580"/><stop offset="0.39" stop-color="#463b82"/><stop offset="0.57" stop-color="#454083"/><stop offset="1" stop-color="#444e8b"/></linearGradient></defs><title>logofooter</title><path d="M331,48.33c-.43-1-.89-1.89-1.37-2.8h0a34.69,34.69,0,0,0-2.08-3.25,4.91,4.91,0,0,0-7.37-.75L307.05,53.81a6.58,6.58,0,0,0-.1,9.5h0a5.35,5.35,0,0,0,7.82-.35h0a2.79,2.79,0,0,1,4.91,1.74,26.82,26.82,0,0,1-21.13,26.57,26.52,26.52,0,0,1-27.17-10.21,26.83,26.83,0,0,1,19-42.66c3.31-.31,6.31-3.16,6.35-6.47a8,8,0,0,0-9.07-8.11A41.86,41.86,0,1,0,331,48.33Z" transform="translate(0 -0.99)" style="fill:url(#Gradiente_sem_nome_580)"/><path d="M294.44,70.8h0a2.42,2.42,0,0,0,.76,3.46h0a1.47,1.47,0,0,1-.5,2.7,13.21,13.21,0,1,1,2.95-25.21,3.27,3.27,0,0,0,3.93-1l.11-.15a3.83,3.83,0,0,0-1.56-5.82,20.8,20.8,0,0,0-24.8,7.36,19.42,19.42,0,0,0-3.21,16.1c3.72,15.1,20.22,20.54,31.75,12.82.43-.29.84-.59,1.24-.9h0a3.65,3.65,0,0,0,0-5.77L299.39,70A3.47,3.47,0,0,0,294.44,70.8Z" transform="translate(0 -0.99)" style="fill:url(#Gradiente_sem_nome_589)"/><path d="M334.05,42.19A47.68,47.68,0,0,1,340.41,64c1.13,25.58-19.46,48.39-45,49.9a47.88,47.88,0,0,1-8.47-95.35,48.42,48.42,0,0,1,6-.33,8.57,8.57,0,0,0,8.58-9.14h0A8.7,8.7,0,0,0,292.76,1c-1.42,0-2.85,0-4.29.14a65.26,65.26,0,1,0,61,32.79,9,9,0,0,0-12.63-3.1h0A8.44,8.44,0,0,0,334.05,42.19Z" transform="translate(0 -0.99)" style="fill:url(#Gradiente_sem_nome_569)"/><path d="M27.09,380.42a9.39,9.39,0,0,1-2.44,3.08,11.73,11.73,0,0,1-3.71,2,15.33,15.33,0,0,1-4.76.71,19.93,19.93,0,0,1-7.7-1.42,22.86,22.86,0,0,1-5.77-3.54,1.1,1.1,0,0,1-.12-1.58l.25-.29a1.1,1.1,0,0,1,1.55-.11,24.49,24.49,0,0,0,2.11,1.63,16.64,16.64,0,0,0,3,1.62,16.34,16.34,0,0,0,3.21,1,18.86,18.86,0,0,0,3.66.33,12.21,12.21,0,0,0,3.66-.53,8.78,8.78,0,0,0,2.84-1.48,6.76,6.76,0,0,0,1.83-2.23,6.16,6.16,0,0,0,.66-2.82v-.11a7,7,0,0,0-.43-2.54,4.88,4.88,0,0,0-1.58-2,11.33,11.33,0,0,0-3.07-1.65,32.49,32.49,0,0,0-5-1.35,34.55,34.55,0,0,1-5.49-1.55A13.68,13.68,0,0,1,6,365.43a7.25,7.25,0,0,1-2.11-2.77,9.3,9.3,0,0,1-.66-3.61V359a8,8,0,0,1,.87-3.69,9.3,9.3,0,0,1,2.39-3,11,11,0,0,1,3.61-2,13.86,13.86,0,0,1,4.57-.72,18.91,18.91,0,0,1,6.68,1.07A19.64,19.64,0,0,1,26,353.22a1.11,1.11,0,0,1,.19,1.58l-.28.35a1.1,1.1,0,0,1-1.54.16,15.33,15.33,0,0,0-4.26-2.41,16.3,16.3,0,0,0-5.51-.92,11.23,11.23,0,0,0-3.59.54A8.71,8.71,0,0,0,8.28,354a6.33,6.33,0,0,0-1.75,2.13,5.67,5.67,0,0,0-.61,2.59v.1a7.18,7.18,0,0,0,.43,2.57,5,5,0,0,0,1.57,2.08,11.4,11.4,0,0,0,3.18,1.71,36.25,36.25,0,0,0,5.18,1.42q6.21,1.28,9,3.58A7.74,7.74,0,0,1,28,376.38v.1A8.8,8.8,0,0,1,27.09,380.42Z" transform="translate(0 -0.99)" style="fill:#363636"/><path d="M70.26,385.68a1.11,1.11,0,0,1-1.11-1.11v-3.21a13.87,13.87,0,0,1-1.61,1.81,10.71,10.71,0,0,1-2.16,1.57,12.23,12.23,0,0,1-2.77,1.12,12.46,12.46,0,0,1-3.38.43,13.06,13.06,0,0,1-3.61-.51,10.16,10.16,0,0,1-3.2-1.52,8.14,8.14,0,0,1-2.31-2.54,7,7,0,0,1-.89-3.56v-.1a7.54,7.54,0,0,1,.84-3.61,7.7,7.7,0,0,1,2.31-2.64,10.52,10.52,0,0,1,3.56-1.63,18,18,0,0,1,4.63-.56,30.55,30.55,0,0,1,4.72.31,34.92,34.92,0,0,1,3.87.81v-1.11q0-3.94-2.27-5.92a9.24,9.24,0,0,0-6.27-2,15.47,15.47,0,0,0-4.38.59,21.48,21.48,0,0,0-2.75,1,1.1,1.1,0,0,1-1.46-.59l-.05-.12a1.11,1.11,0,0,1,.56-1.44A25.4,25.4,0,0,1,55.88,360a17.6,17.6,0,0,1,4.88-.63,11.64,11.64,0,0,1,7.93,2.54q2.9,2.55,2.89,7.63v15.05a1.11,1.11,0,0,1-1.11,1.11ZM69.2,373.9a1.13,1.13,0,0,0-.88-1.09c-.88-.19-1.86-.39-2.94-.57a28.51,28.51,0,0,0-5-.38,10.54,10.54,0,0,0-6.33,1.64,5.21,5.21,0,0,0-2.21,4.38v.1a5.12,5.12,0,0,0,.61,2.51,5.71,5.71,0,0,0,1.66,1.84,7.62,7.62,0,0,0,2.41,1.17,10,10,0,0,0,2.85.4,12,12,0,0,0,3.76-.58,10.37,10.37,0,0,0,3.12-1.62,7.88,7.88,0,0,0,2.14-2.5A6.81,6.81,0,0,0,69.2,376Z" transform="translate(0 -0.99)" style="fill:#363636"/><path d="M96.13,384.57V349.69a1.12,1.12,0,0,1,1.12-1.11h.26a1.11,1.11,0,0,1,1.11,1.11v34.88a1.11,1.11,0,0,1-1.11,1.11h-.26A1.12,1.12,0,0,1,96.13,384.57Z" transform="translate(0 -0.99)" style="fill:#363636"/><path d="M142.58,385.68a1.11,1.11,0,0,1-1.11-1.11v-3.21a13.07,13.07,0,0,1-1.6,1.81,11.3,11.3,0,0,1-2.16,1.57,12.44,12.44,0,0,1-6.15,1.55,13.06,13.06,0,0,1-3.61-.51,10.06,10.06,0,0,1-3.2-1.52,8.14,8.14,0,0,1-2.31-2.54,6.89,6.89,0,0,1-.89-3.56v-.1a7.54,7.54,0,0,1,.84-3.61,7.7,7.7,0,0,1,2.31-2.64,10.52,10.52,0,0,1,3.56-1.63,17.94,17.94,0,0,1,4.62-.56,30.69,30.69,0,0,1,4.73.31,34.28,34.28,0,0,1,3.86.81v-1.11q0-3.94-2.26-5.92a9.27,9.27,0,0,0-6.28-2,15.4,15.4,0,0,0-4.37.59,20.94,20.94,0,0,0-2.75,1,1.1,1.1,0,0,1-1.46-.59l0-.12a1.11,1.11,0,0,1,.56-1.44,24.89,24.89,0,0,1,3.35-1.21,17.54,17.54,0,0,1,4.88-.63,11.61,11.61,0,0,1,7.92,2.54c1.94,1.7,2.9,4.24,2.9,7.63v15.05a1.11,1.11,0,0,1-1.11,1.11Zm-1.06-11.78a1.12,1.12,0,0,0-.87-1.09c-.88-.19-1.86-.39-2.94-.57a28.67,28.67,0,0,0-5-.38,10.51,10.51,0,0,0-6.33,1.64,5.21,5.21,0,0,0-2.21,4.38v.1a5,5,0,0,0,.61,2.51,5.8,5.8,0,0,0,1.65,1.84,7.78,7.78,0,0,0,2.42,1.17,10,10,0,0,0,2.84.4,11.93,11.93,0,0,0,3.76-.58,10.43,10.43,0,0,0,3.13-1.62,7.72,7.72,0,0,0,2.13-2.5,6.7,6.7,0,0,0,.79-3.24Z" transform="translate(0 -0.99)" style="fill:#363636"/><path d="M203.89,385.09v-.42a1.11,1.11,0,0,0-1.88-.79,14.73,14.73,0,0,1-1.8,1.41,9.62,9.62,0,0,1-5.45,1.48,12.09,12.09,0,0,1-4.62-.92,11.52,11.52,0,0,1-3.95-2.72,13.92,13.92,0,0,1-2.79-4.4,15.5,15.5,0,0,1-1.06-5.94,15.76,15.76,0,0,1,1-6,13.62,13.62,0,0,1,2.76-4.4,11.44,11.44,0,0,1,4-2.72,12.22,12.22,0,0,1,4.64-.91,9.84,9.84,0,0,1,5.48,1.42,16.5,16.5,0,0,1,1.79,1.36,1.12,1.12,0,0,0,1.86-.82V350.21A1.11,1.11,0,0,1,205,349.1h4a1.11,1.11,0,0,1,1.11,1.11v34.88a1.12,1.12,0,0,1-1.11,1.12h-4A1.11,1.11,0,0,1,203.89,385.09Zm-.53-15.86a8.84,8.84,0,0,0-1.7-2.72,7.42,7.42,0,0,0-5.42-2.36,7.6,7.6,0,0,0-3,.58,7.25,7.25,0,0,0-2.45,1.7,8.22,8.22,0,0,0-1.68,2.72,10.33,10.33,0,0,0-.6,3.64,10.15,10.15,0,0,0,.6,3.58,8.12,8.12,0,0,0,1.68,2.72,7.43,7.43,0,0,0,8.36,1.73,7.3,7.3,0,0,0,2.48-1.76,8.79,8.79,0,0,0,1.7-2.71,10.37,10.37,0,0,0,0-7.12Z" transform="translate(0 -0.99)" style="fill:#363636"/><path d="M240.33,380a7.61,7.61,0,0,0,5.08,1.75,9,9,0,0,0,4-.81,12.29,12.29,0,0,0,2.61-1.75,1.08,1.08,0,0,1,1.44,0l2,1.78a1.12,1.12,0,0,1,0,1.64,14.68,14.68,0,0,1-3.79,2.77,13.75,13.75,0,0,1-6.38,1.38,14.27,14.27,0,0,1-5.41-1,13.13,13.13,0,0,1-4.37-2.85,13.31,13.31,0,0,1-2.93-4.39,14.79,14.79,0,0,1-1.06-5.72,15.26,15.26,0,0,1,1-5.44,13.8,13.8,0,0,1,2.72-4.45,13.08,13.08,0,0,1,4.14-3,12.29,12.29,0,0,1,5.29-1.12,12.74,12.74,0,0,1,5.62,1.17,11.57,11.57,0,0,1,4,3.15,13.71,13.71,0,0,1,2.42,4.63,18.75,18.75,0,0,1,.81,5.54q0,.4,0,.81c0,.27,0,.56-.07.86H239.09a1.11,1.11,0,0,0-1.07,1.42A7.39,7.39,0,0,0,240.33,380Zm9.77-9.12a1.11,1.11,0,0,0,1.09-1.34,9.87,9.87,0,0,0-.44-1.43,7.21,7.21,0,0,0-1.37-2.24,6.55,6.55,0,0,0-2.06-1.5,6.39,6.39,0,0,0-2.72-.56,6.17,6.17,0,0,0-4.7,2,8.28,8.28,0,0,0-2,3.72,1.12,1.12,0,0,0,1.09,1.39Z" transform="translate(0 -0.99)" style="fill:#363636"/><path d="M298.41,385.88V352.53a1.12,1.12,0,0,1,1.11-1.12h23.09a1.12,1.12,0,0,1,1.11,1.12v.16a1.11,1.11,0,0,1-1.11,1.11H302.17a1.12,1.12,0,0,0-1.12,1.12v11.85a1.12,1.12,0,0,0,1.12,1.11h18.15a1.11,1.11,0,0,1,1.11,1.11v.17a1.11,1.11,0,0,1-1.11,1.11H302.17a1.12,1.12,0,0,0-1.12,1.11v12.11a1.11,1.11,0,0,0,1.12,1.11h20.69a1.12,1.12,0,0,1,1.12,1.12v.16a1.11,1.11,0,0,1-1.12,1.11H299.52A1.11,1.11,0,0,1,298.41,385.88Z" transform="translate(0 -0.99)" style="fill:#363636"/><path d="M363.8,383.06a7,7,0,0,1-1.91,2.39,8.89,8.89,0,0,1-2.84,1.52,11.42,11.42,0,0,1-3.51.53,16.08,16.08,0,0,1-5.69-1.06,18.6,18.6,0,0,1-4-2,1.13,1.13,0,0,1-.29-1.6l.14-.19a1.13,1.13,0,0,1,1.53-.28,17.32,17.32,0,0,0,3.61,1.89,13.33,13.33,0,0,0,4.83.89,7.33,7.33,0,0,0,4.45-1.32,4.21,4.21,0,0,0,1.8-3.6v-.1a3.36,3.36,0,0,0-.55-1.93,5.38,5.38,0,0,0-1.53-1.42,10,10,0,0,0-2.19-1c-.81-.27-1.67-.54-2.59-.81s-2.11-.63-3.17-1a12.64,12.64,0,0,1-2.88-1.29,6.6,6.6,0,0,1-2-2,5,5,0,0,1-.79-2.89v-.11a6.45,6.45,0,0,1,.63-2.86,7.13,7.13,0,0,1,1.76-2.26,7.87,7.87,0,0,1,2.69-1.49,10.6,10.6,0,0,1,3.46-.54,15.84,15.84,0,0,1,4.8.78,17,17,0,0,1,3.41,1.49,1.12,1.12,0,0,1,.39,1.57l-.16.25a1.09,1.09,0,0,1-1.47.34,17.63,17.63,0,0,0-2.93-1.33,12.75,12.75,0,0,0-4.15-.71,6.59,6.59,0,0,0-4.29,1.3,4,4,0,0,0-1.6,3.22v.1a2.92,2.92,0,0,0,.61,1.85,5.32,5.32,0,0,0,1.6,1.34,12.43,12.43,0,0,0,2.31,1q1.32.44,2.7.84c1.05.3,2.08.63,3.1,1a11.33,11.33,0,0,1,2.74,1.37,6.78,6.78,0,0,1,2,2,5.33,5.33,0,0,1,.74,2.89v.1A6.94,6.94,0,0,1,363.8,383.06Z" transform="translate(0 -0.99)" style="fill:#363636"/><path d="M398.51,387.22a9.94,9.94,0,0,1-2.21.23,9.33,9.33,0,0,1-2.84-.41,6.22,6.22,0,0,1-2.32-1.29,6.15,6.15,0,0,1-1.55-2.24,8.27,8.27,0,0,1-.56-3.17V364.47a1.11,1.11,0,0,0-1.11-1.11h-1.53a1.12,1.12,0,0,1-1.12-1.11v-.07a1.12,1.12,0,0,1,1.12-1.11h1.53A1.11,1.11,0,0,0,389,360V353.9a1.11,1.11,0,0,1,1.12-1.11h.26a1.11,1.11,0,0,1,1.12,1.11V360a1.11,1.11,0,0,0,1.11,1.11h6.87a1.11,1.11,0,0,1,1.11,1.11v.07a1.11,1.11,0,0,1-1.11,1.11h-6.87a1.11,1.11,0,0,0-1.11,1.11V380c0,1.86.48,3.16,1.44,3.91a6,6,0,0,0,3.74,1.11,8.35,8.35,0,0,0,1.83-.19c.17,0,.35-.08.53-.14a1.12,1.12,0,0,1,1.45,1.06h0a1.12,1.12,0,0,1-.75,1A8.63,8.63,0,0,1,398.51,387.22Z" transform="translate(0 -0.99)" style="fill:#363636"/><path d="M442.45,385.88v-.47a1.1,1.1,0,0,0-1.89-.78,13.21,13.21,0,0,1-1.66,1.4,9.86,9.86,0,0,1-5.8,1.57,11.61,11.61,0,0,1-4.37-.78,9.34,9.34,0,0,1-3.28-2.22,9.23,9.23,0,0,1-2-3.38,12.78,12.78,0,0,1-.69-4.29V362.18a1.12,1.12,0,0,1,1.12-1.11h.26a1.11,1.11,0,0,1,1.11,1.11v14.29a9.37,9.37,0,0,0,2.14,6.43,7.7,7.7,0,0,0,6.1,2.42,9.07,9.07,0,0,0,3.53-.69,8.69,8.69,0,0,0,2.87-1.91,8.51,8.51,0,0,0,1.91-2.92,9.82,9.82,0,0,0,.68-3.73V362.18a1.12,1.12,0,0,1,1.12-1.11h.26a1.11,1.11,0,0,1,1.11,1.11v23.7a1.1,1.1,0,0,1-1.11,1.11h-.26A1.11,1.11,0,0,1,442.45,385.88Z" transform="translate(0 -0.99)" style="fill:#363636"/><path d="M492.36,387a1.11,1.11,0,0,1-1.11-1.11V381.2a23.28,23.28,0,0,1-1.91,2.44,11.62,11.62,0,0,1-2.34,2,12.1,12.1,0,0,1-2.89,1.4,11.05,11.05,0,0,1-3.54.53,12.17,12.17,0,0,1-4.6-.91,12.61,12.61,0,0,1-4-2.64,13.32,13.32,0,0,1-2.87-4.25,14.06,14.06,0,0,1-1.09-5.67V374a14.09,14.09,0,0,1,1.09-5.67,13.48,13.48,0,0,1,2.87-4.26,12.79,12.79,0,0,1,4-2.7,12.12,12.12,0,0,1,8.16-.43,11.39,11.39,0,0,1,2.92,1.37,13.18,13.18,0,0,1,2.34,2,18.35,18.35,0,0,1,1.86,2.34V351a1.11,1.11,0,0,1,1.11-1.11h.27a1.11,1.11,0,0,1,1.11,1.11v34.88a1.11,1.11,0,0,1-1.11,1.11Zm-1-13a11.4,11.4,0,0,0-.89-4.55,10.84,10.84,0,0,0-5.76-5.77,10,10,0,0,0-3.95-.81,10.43,10.43,0,0,0-4,.76,9.34,9.34,0,0,0-3.23,2.19,10.23,10.23,0,0,0-2.17,3.48,12.81,12.81,0,0,0-.79,4.65v.1a12.47,12.47,0,0,0,.82,4.63,10.54,10.54,0,0,0,2.21,3.53,9.87,9.87,0,0,0,7.16,3,10,10,0,0,0,3.95-.81,10.63,10.63,0,0,0,3.39-2.29,11.5,11.5,0,0,0,2.37-3.5,11.27,11.27,0,0,0,.89-4.53Z" transform="translate(0 -0.99)" style="fill:#363636"/><path d="M542.3,379.22a13.71,13.71,0,0,1-2.79,4.32,13.56,13.56,0,0,1-4.25,3,12.83,12.83,0,0,1-5.33,1.09,12.67,12.67,0,0,1-5.31-1.09,13.7,13.7,0,0,1-4.2-2.92,13.33,13.33,0,0,1-2.77-4.27,13.7,13.7,0,0,1-1-5.19V374a13.61,13.61,0,0,1,1-5.18,13.57,13.57,0,0,1,7-7.3,13.07,13.07,0,0,1,5.34-1.09,12.86,12.86,0,0,1,5.31,1.09,13.57,13.57,0,0,1,4.19,2.93,13.06,13.06,0,0,1,2.77,4.27,13.61,13.61,0,0,1,1,5.18v.1A13.7,13.7,0,0,1,542.3,379.22ZM540.65,374a11.55,11.55,0,0,0-.82-4.37,10.83,10.83,0,0,0-2.27-3.57,10.48,10.48,0,0,0-7.63-3.24,10.27,10.27,0,0,0-4.27.89,10.58,10.58,0,0,0-3.37,2.37,10.87,10.87,0,0,0-2.2,3.52,11.85,11.85,0,0,0-.79,4.3v.1a11.84,11.84,0,0,0,.82,4.38,11.1,11.1,0,0,0,2.27,3.57,10.43,10.43,0,0,0,3.43,2.37,10.51,10.51,0,0,0,11.84-2.4,10.76,10.76,0,0,0,2.2-3.52,11.64,11.64,0,0,0,.79-4.3Z" transform="translate(0 -0.99)" style="fill:#363636"/><path d="M582.86,383.06a7,7,0,0,1-1.9,2.39,9,9,0,0,1-2.85,1.52,11.32,11.32,0,0,1-3.51.53,16.17,16.17,0,0,1-5.69-1.06,18.83,18.83,0,0,1-4-2,1.13,1.13,0,0,1-.29-1.6l.14-.19a1.14,1.14,0,0,1,1.54-.28,17.08,17.08,0,0,0,3.61,1.89,13.33,13.33,0,0,0,4.83.89,7.3,7.3,0,0,0,4.44-1.32,4.2,4.2,0,0,0,1.81-3.6v-.1a3.37,3.37,0,0,0-.56-1.93,5.13,5.13,0,0,0-1.53-1.42,10.18,10.18,0,0,0-2.18-1c-.81-.27-1.68-.54-2.59-.81s-2.11-.63-3.18-1a12.37,12.37,0,0,1-2.87-1.29,6.53,6.53,0,0,1-2.06-2,5,5,0,0,1-.79-2.89v-.11a6.32,6.32,0,0,1,.64-2.86,7.1,7.1,0,0,1,1.75-2.26,8,8,0,0,1,2.69-1.49,10.64,10.64,0,0,1,3.46-.54,15.84,15.84,0,0,1,4.8.78,16.74,16.74,0,0,1,3.41,1.49,1.12,1.12,0,0,1,.39,1.57l-.15.25a1.11,1.11,0,0,1-1.48.34,17.27,17.27,0,0,0-2.93-1.33,12.69,12.69,0,0,0-4.14-.71,6.6,6.6,0,0,0-4.3,1.3,4,4,0,0,0-1.6,3.22v.1a3,3,0,0,0,.61,1.85,5.32,5.32,0,0,0,1.6,1.34,12.84,12.84,0,0,0,2.32,1c.88.29,1.78.57,2.69.84s2.08.63,3.1,1a11.4,11.4,0,0,1,2.75,1.37,6.87,6.87,0,0,1,1.95,2,5.33,5.33,0,0,1,.74,2.89v.1A6.94,6.94,0,0,1,582.86,383.06Z" transform="translate(0 -0.99)" style="fill:#363636"/><circle cx="417.75" cy="175.55" r="10.26" style="fill:#363636"/><path d="M83.47,245.49a4.07,4.07,0,0,1,3.63,5.94A46.39,46.39,0,0,1,83,258a45.7,45.7,0,0,1-10.07,9.81,47.07,47.07,0,0,1-12.7,6.4,45.64,45.64,0,0,1-14.28,2.27,43.89,43.89,0,0,1-17.61-3.59,48.07,48.07,0,0,1-14.63-9.72,45.44,45.44,0,0,1-10-14.54A44.14,44.14,0,0,1,0,230.77a43.68,43.68,0,0,1,3.68-17.69,48.73,48.73,0,0,1,10-14.81,48.12,48.12,0,0,1,14.72-10.16,43.67,43.67,0,0,1,18.05-3.77,44.32,44.32,0,0,1,14.45,2.37,45,45,0,0,1,12.52,6.57,49.42,49.42,0,0,1,10,10.07,51.19,51.19,0,0,1,4.31,6.85,4.09,4.09,0,0,1-3.58,6H75.24a4.1,4.1,0,0,1-3.48-2,28.5,28.5,0,0,0-9.83-9.6,29.8,29.8,0,0,0-15.5-4.21A28.79,28.79,0,0,0,35,202.83a32.23,32.23,0,0,0-9.72,6.39,30.66,30.66,0,0,0-6.75,9.64A29,29,0,0,0,18.22,242a29.56,29.56,0,0,0,6.39,9.55,31.9,31.9,0,0,0,9.55,6.57,28.13,28.13,0,0,0,11.74,2.45,30.33,30.33,0,0,0,15.15-4.11,30.26,30.26,0,0,0,10.2-9.22,4,4,0,0,1,3.32-1.73Z" transform="translate(0 -0.99)" style="fill:#363636"/><path d="M145.41,276.93a45,45,0,0,1-18.13-3.68,48.26,48.26,0,0,1-14.89-10,46.87,46.87,0,0,1-10.08-14.72,45.64,45.64,0,0,1,0-35.91,46.87,46.87,0,0,1,10.08-14.72,48.26,48.26,0,0,1,14.89-10,46.08,46.08,0,0,1,36.09,0,47.27,47.27,0,0,1,14.8,10,47.81,47.81,0,0,1,10,14.72,45.64,45.64,0,0,1,0,35.91,47.81,47.81,0,0,1-10,14.72,47.27,47.27,0,0,1-14.8,10A44.61,44.61,0,0,1,145.41,276.93Zm0-76.21a30.22,30.22,0,0,0-11.91,2.37,30.44,30.44,0,0,0-16.3,15.85,29.35,29.35,0,0,0,0,23.48,32.27,32.27,0,0,0,6.57,9.55,30.6,30.6,0,0,0,21.64,8.84,29.68,29.68,0,0,0,11.83-2.36,30.46,30.46,0,0,0,16.11-16,30.26,30.26,0,0,0,0-23.48,29.79,29.79,0,0,0-6.48-9.46,31.5,31.5,0,0,0-9.63-6.39A29.69,29.69,0,0,0,145.41,200.72Z" transform="translate(0 -0.99)" style="fill:#363636"/><path d="M575.58,234.37a9.8,9.8,0,0,0,9.43-7.61A26.6,26.6,0,0,0,583.77,212,40.38,40.38,0,0,0,574,197.66a46.3,46.3,0,0,0-14.42-9.73,45,45,0,0,0-35.16,0A47.18,47.18,0,0,0,510,197.66,45.59,45.59,0,0,0,500.13,212a44.54,44.54,0,0,0,0,35A45.59,45.59,0,0,0,510,261.33a47.18,47.18,0,0,0,14.51,9.73,45,45,0,0,0,35.16,0A45.84,45.84,0,0,0,583.77,247h0c.53-1.21-.11-2.16-1.69-2.57,0,0-12.44-2.58-15.81,2a32.34,32.34,0,0,1-3.24,3.88,29.62,29.62,0,0,1-9.39,6.31,28.84,28.84,0,0,1-11.52,2.31A29.85,29.85,0,0,1,521,250.32a28.33,28.33,0,0,1-8.31-15.95m2.06-16.51a30,30,0,0,1,27.33-17.47,28.84,28.84,0,0,1,11.52,2.31,30.25,30.25,0,0,1,9.39,6.23,32.53,32.53,0,0,1,5.79,8.89" transform="translate(0 -0.99)" style="fill:#363636"/><path d="M493.62,259.65a1.66,1.66,0,0,0-2-.79c-3.6,1.14-13.86,4.84-17-2.16a12.54,12.54,0,0,1-1.29-4.44c-1.36-10.89,0-74.46,0-93a5.07,5.07,0,0,0-5.07-5.07h-8.93a4.09,4.09,0,0,0-4.09,4.09v28a4.09,4.09,0,0,1-4.09,4.09H439.43a4.09,4.09,0,0,0-4.09,4.09v8a4.09,4.09,0,0,0,4.09,4.09h14.18a1.67,1.67,0,0,1,1.67,1.67s.61,17.27.61,47.79c0,13.06,11.07,17.81,17,19.25a34,34,0,0,0,20.45-1.41,6.46,6.46,0,0,0,3.15-9Z" transform="translate(0 -0.99)" style="fill:#363636"/><rect x="408.77" y="192.62" width="17.95" height="83.2" rx="2.93" ry="2.93" style="fill:#363636"/><path d="M286.34,194.38h-8.59a3.48,3.48,0,0,0-3.3,2.41A46.52,46.52,0,0,0,261.19,188a44.26,44.26,0,0,0-35.34,0,47.35,47.35,0,0,0-14.59,10,46.84,46.84,0,0,0-9.86,14.7,46.5,46.5,0,0,0,0,35.88,46.84,46.84,0,0,0,9.86,14.7,47.35,47.35,0,0,0,14.59,10,44.26,44.26,0,0,0,35.34,0,46.44,46.44,0,0,0,13.07-8.59v22.59c0,10.95-8.41,20.33-19.34,20.89-.38,0-.78,0-1.17,0-11.41,0-20.67-8.52-20.67-19,0-.14,0-.28,0-.42a4.55,4.55,0,0,0-4.54-4.7h-7.19a2.86,2.86,0,0,0-2.84,2.65,35.32,35.32,0,0,0,35.23,37.79c15.43,0,24.32-7.53,29.33-15.25a38.62,38.62,0,0,0,6-21V230.72h0V197.1A2.72,2.72,0,0,0,286.34,194.38Zm-42.91,68.28a31.11,31.11,0,1,1,31.1-31.11A31.1,31.1,0,0,1,243.43,262.66Z" transform="translate(0 -0.99)" style="fill:#363636"/><path d="M388.21,194.38h-8.59a3.47,3.47,0,0,0-3.3,2.41A46.57,46.57,0,0,0,363.05,188a43,43,0,0,0-17.58-3.68A43.49,43.49,0,0,0,327.71,188a47.18,47.18,0,0,0-14.58,10,46.67,46.67,0,0,0-9.86,14.7,46.38,46.38,0,0,0,0,35.88,46.67,46.67,0,0,0,9.86,14.7,47.18,47.18,0,0,0,14.58,10,43.49,43.49,0,0,0,17.76,3.68,43,43,0,0,0,17.58-3.68,46.49,46.49,0,0,0,13.08-8.59v22.59c0,10.95-8.41,20.33-19.34,20.89l-1.17,0c-11.41,0-20.67-8.52-20.67-19,0-.14,0-.28,0-.42a4.56,4.56,0,0,0-4.55-4.7h-7.18a2.85,2.85,0,0,0-2.84,2.65,35.32,35.32,0,0,0,35.23,37.79c15.43,0,24.32-7.53,29.32-15.25a38.54,38.54,0,0,0,6-21V230.72h0V197.1A2.72,2.72,0,0,0,388.21,194.38ZM345.3,262.66a31.11,31.11,0,1,1,31.1-31.11A31.11,31.11,0,0,1,345.3,262.66Z" transform="translate(0 -0.99)" style="fill:#363636"/></svg>