<?xml version="1.0" encoding="utf-8"?>
<!-- Generator: Adobe Illustrator 22.1.0, SVG Export Plug-In . SVG Version: 6.00 Build 0)  -->
<svg version="1.1" id="Camada_1" xmlns="http://www.w3.org/2000/svg" xmlns:xlink="http://www.w3.org/1999/xlink" x="0px" y="0px"
	 viewBox="0 0 764.7 235.4" style="enable-background:new 0 0 764.7 235.4;" xml:space="preserve">
<style type="text/css">
	.st0{fill:#363636;}
	.st1{fill:url(#SVGID_1_);}
	.st2{fill:url(#SVGID_2_);}
	.st3{fill:url(#SVGID_3_);}
</style>
<g>
	<g>
		<circle class="st0" cx="591.3" cy="23.4" r="10.3"/>
		<path class="st0" d="M257.1,91.9c3.1,0,5,3.2,3.6,5.9c-1.2,2.3-2.6,4.5-4.2,6.6c-2.9,3.8-6.2,7.1-10.1,9.8
			c-3.9,2.7-8.1,4.9-12.7,6.4c-4.6,1.5-9.4,2.3-14.3,2.3c-6.2,0-12.1-1.2-17.6-3.6s-10.4-5.6-14.6-9.7c-4.2-4.1-7.5-8.9-10-14.5
			s-3.7-11.6-3.7-17.9c0-6.2,1.2-12.1,3.7-17.7s5.8-10.5,10-14.8s9.1-7.6,14.7-10.2c5.6-2.5,11.6-3.8,18-3.8c5,0,9.8,0.8,14.5,2.4
			c4.6,1.6,8.8,3.8,12.5,6.6s7.1,6.2,10,10.1c1.6,2.2,3.1,4.5,4.3,6.8c1.4,2.7-0.5,6-3.6,6h-8.9c-1.4,0-2.7-0.7-3.5-2
			c-2.5-4-5.8-7.2-9.8-9.6c-4.7-2.8-9.9-4.2-15.5-4.2c-4,0-7.8,0.8-11.5,2.4c-3.7,1.6-6.9,3.7-9.7,6.4s-5.1,5.9-6.7,9.6
			c-1.7,3.7-2.5,7.7-2.5,11.9c0,3.9,0.8,7.6,2.3,11.2s3.6,6.8,6.4,9.5c2.7,2.7,5.9,4.9,9.5,6.6c3.6,1.6,7.5,2.5,11.7,2.5
			c5.3,0,10.3-1.4,15.2-4.1c4.2-2.4,7.6-5.5,10.2-9.2c0.8-1.1,2-1.7,3.3-1.7L257.1,91.9L257.1,91.9z"/>
		<path class="st0" d="M318.2,123.4c-6.4,0-12.5-1.2-18.1-3.7c-5.7-2.5-10.6-5.8-14.9-10s-7.6-9.1-10.1-14.7s-3.7-11.6-3.7-17.9
			c0-6.4,1.2-12.4,3.7-18s5.8-10.5,10.1-14.7c4.3-4.2,9.2-7.5,14.9-10c5.7-2.5,11.7-3.7,18.1-3.7c6.3,0,12.3,1.2,18,3.7
			s10.6,5.8,14.8,10c4.2,4.2,7.5,9.1,10,14.7s3.7,11.6,3.7,18c0,6.3-1.2,12.3-3.7,17.9s-5.8,10.5-10,14.7s-9.1,7.5-14.8,10
			C330.5,122.2,324.5,123.4,318.2,123.4z M318.2,47.2c-4.2,0-8.2,0.8-11.9,2.4c-3.7,1.6-7,3.7-9.7,6.4s-4.9,5.8-6.6,9.5
			c-1.6,3.6-2.5,7.5-2.5,11.7s0.8,8.1,2.5,11.7c1.6,3.6,3.8,6.8,6.6,9.5c2.7,2.7,6,4.9,9.7,6.5s7.7,2.4,11.9,2.4
			c4.2,0,8.1-0.8,11.8-2.4c3.7-1.6,6.9-3.7,9.6-6.5c2.7-2.7,4.9-5.9,6.5-9.5s2.4-7.5,2.4-11.7s-0.8-8.1-2.4-11.7
			c-1.6-3.6-3.7-6.8-6.5-9.5c-2.7-2.7-6-4.8-9.6-6.4C326.3,48,322.4,47.2,318.2,47.2z"/>
		<path class="st0" d="M752.8,82.2c4.6-0.1,8.8-3.3,9.8-7.8c1-4.3,0.6-10-1.2-15.2c-2.2-5.8-5.8-10.5-10-14.7
			c-4.2-4.2-9.2-7.5-14.8-10s-11.7-3.7-18-3.7c-6.5,0-12.5,1.2-18.2,3.7c-5.7,2.5-10.7,5.8-14.9,10c-4.3,4.2-7.6,9.2-10.1,14.7
			c-2.5,5.7-3.7,11.6-3.7,18.1c0,6.3,1.2,12.3,3.7,17.9c2.5,5.7,5.9,10.5,10.1,14.7c4.3,4.2,9.3,7.5,14.9,10
			c5.7,2.5,11.7,3.7,18.2,3.7c6.3,0,12.4-1.2,18-3.7s10.6-5.8,14.8-10c4.2-4.2,7.5-9.2,10-14.7l0,0c0.5-1.2-0.1-2.3-1.8-2.7
			c0,0-12.8-2.7-16.3,2.1c-1,1.4-2.1,2.8-3.3,4c-2.8,2.8-6,4.9-9.7,6.5c-3.7,1.5-7.6,2.4-11.8,2.4s-8.2-0.8-11.9-2.4s-7-3.7-9.8-6.5
			s-4.9-6-6.6-9.6c-0.9-2-1.5-4-2-6.2l0,0c0.7,0.2,1.4,0.3,2.3,0.3L752.8,82.2z M690.3,65.2L690.3,65.2c1.6-3.5,3.7-6.6,6.4-9.3
			c2.8-2.7,6-4.8,9.8-6.4c3.7-1.5,7.7-2.4,11.9-2.4c4.2,0,8.1,0.8,11.8,2.4c3.7,1.5,6.9,3.7,9.7,6.4c2.5,2.4,5,6.1,6.6,9.3"/>
		<path class="st0" d="M667.2,107.5c-0.4-0.7-1.2-1-2-0.8c-3.6,1.1-13.2,3.9-17-2.2c-0.8-1.3-1.3-1.8-1.3-4.4c0-11,0-74.5,0-93
			c0-2.8-2.3-5.1-5.1-5.1h-8.9c-2.3,0-4.1,1.8-4.1,4.1v28c0,2.3-1.8,4.1-4.1,4.1H613c-2.3,0-4.1,1.8-4.1,4.1v8
			c0,2.3,1.8,4.1,4.1,4.1h14.2c0.9,0,1.7,0.7,1.7,1.7c0,0,0.6,35.3,0.6,47.8c0,13.1,11.1,17.8,17,19.2c3.5,0.9,7.1,1.2,10.6,0.8
			c2.9-0.3,6.5-0.9,9.8-2.3c3.5-1.5,5-5.7,3.1-9L667.2,107.5z"/>
		<path class="st0" d="M597.4,123.7h-12.1c-1.6,0-2.9-1.3-2.9-2.9V43.4c0-1.6,1.3-2.9,2.9-2.9h12.1c1.6,0,2.9,1.3,2.9,2.9v77.3
			C600.3,122.4,599,123.7,597.4,123.7z"/>
		<path class="st0" d="M461.5,40.8h-8.6c-1.5,0-2.8,1-3.3,2.4c-3.8-3.6-8.3-6.6-13.3-8.8c-5.5-2.5-11.4-3.7-17.6-3.7
			c-6.3,0-12.2,1.2-17.8,3.7c-5.5,2.5-10.4,5.8-14.6,10s-7.5,9.1-9.9,14.7s-3.6,11.6-3.6,18c0,6.3,1.2,12.2,3.6,17.8
			c2.4,5.6,5.7,10.5,9.9,14.7c4.2,4.2,9,7.5,14.6,10c5.5,2.5,11.5,3.7,17.8,3.7c6.2,0,12-1.2,17.6-3.7c4.9-2.2,9.3-5,13.1-8.6v22.6
			c0,10.9-8.4,20.3-19.3,20.9c-0.4,0-0.8,0-1.2,0c-11.4,0-20.7-8.5-20.7-19c0-0.1,0-0.3,0-0.4c0.1-2.6-2-4.7-4.5-4.7h-7.2
			c-1.5,0-2.7,1.2-2.8,2.6c-1.4,20.6,14.9,37.8,35.2,37.8c15.4,0,24.3-7.5,29.3-15.2c4-6.2,6-13.6,6-21V77.1l0,0l0,0V43.5
			C464.2,42,463,40.8,461.5,40.8z M418.6,109c-17.2,0-31.1-13.9-31.1-31.1s13.9-31.1,31.1-31.1s31.1,13.9,31.1,31.1
			S435.8,109,418.6,109z"/>
		<path class="st0" d="M561.9,40.8h-8.6c-1.5,0-2.8,1-3.3,2.4c-3.8-3.6-8.3-6.6-13.3-8.8c-5.5-2.5-11.4-3.7-17.6-3.7
			c-6.3,0-12.2,1.2-17.8,3.7c-5.5,2.5-10.4,5.8-14.6,10s-7.5,9.1-9.9,14.7s-3.6,11.6-3.6,18c0,6.3,1.2,12.2,3.6,17.8
			c2.4,5.6,5.7,10.5,9.9,14.7c4.2,4.2,9,7.5,14.6,10c5.5,2.5,11.5,3.7,17.8,3.7c6.2,0,12-1.2,17.6-3.7c4.9-2.2,9.3-5,13.1-8.6v22.6
			c0,10.9-8.4,20.3-19.3,20.9c-0.4,0-0.8,0-1.2,0c-11.4,0-20.7-8.5-20.7-19c0-0.1,0-0.3,0-0.4c0.1-2.6-2-4.7-4.5-4.7h-7.2
			c-1.5,0-2.7,1.2-2.8,2.6c-1.4,20.6,14.9,37.8,35.2,37.8c15.4,0,24.3-7.5,29.3-15.2c4-6.2,6-13.6,6-21V77.1l0,0l0,0V43.5
			C564.6,42,563.4,40.8,561.9,40.8z M519,109c-17.2,0-31.1-13.9-31.1-31.1s13.9-31.1,31.1-31.1s31.1,13.9,31.1,31.1
			S536.2,109,519,109z"/>
	</g>
	<g>
		<path class="st0" d="M176.7,227.5l3.3-4c0.3-0.3,0.8-0.4,1.2-0.1c3.2,2.6,6.8,4.1,11.1,4.1c3.8,0,5.8-1.8,5.8-4
			c0-2.5-2.1-3.3-7.5-4.6c-7.5-1.7-12.8-3.8-12.8-10.7c0-6.6,5.4-11.1,13.1-11.1c5.5,0,9.8,1.6,13.3,4.4c0.3,0.3,0.4,0.8,0.1,1.1
			l-3,4.2c-0.3,0.4-0.8,0.4-1.2,0.2c-3-2.2-6.3-3.4-9.5-3.4c-3.3,0-5.2,1.7-5.2,3.8c0,2.6,2.1,3.4,7.6,4.7c7.7,1.7,12.7,4,12.7,10.5
			c0,6.8-5.1,11.3-13.8,11.3c-5.9,0-11.1-1.9-15.2-5.4C176.5,228.3,176.4,227.8,176.7,227.5z"/>
		<path class="st0" d="M247.7,218.3v14.2c0,0.5-0.4,0.8-0.8,0.8h-5.6c-0.5,0-0.8-0.4-0.8-0.8l0,0c0-0.7-0.8-1.1-1.3-0.7
			c-1.8,1.4-4.2,2.1-6.5,2.1c-5.7,0-10.1-3.4-10.1-8.5c0-5.3,4.9-8.9,11.1-8.9c2.2,0,4.6,0.5,6.8,1.3v-0.5c0-2.8-1.8-5.3-6.2-5.3
			c-2.2,0-4.3,0.6-6.2,1.6c-0.4,0.2-0.9,0-1.1-0.4l-1.8-3.5c-0.2-0.4,0-0.9,0.4-1.1c3.2-1.5,6.3-2.4,9.5-2.6
			C242,205.6,247.7,211.3,247.7,218.3z M240.4,224.7v-1.8c0-0.4-0.2-0.7-0.6-0.8c-1.6-0.5-3.3-0.8-5.2-0.8c-2.7,0-4.9,1.6-4.9,3.8
			s1.9,3.5,4.5,3.5c2.9,0,5.6-1.3,6.1-3.7C240.4,224.9,240.4,224.8,240.4,224.7z"/>
		<path class="st0" d="M267.8,197.8h5.9c0.5,0,0.8,0.4,0.8,0.8v34.5c0,0.5-0.4,0.8-0.8,0.8h-5.9c-0.5,0-0.8-0.4-0.8-0.8v-34.5
			C267,198.2,267.3,197.8,267.8,197.8z"/>
		<path class="st0" d="M317.7,218.3v14.2c0,0.5-0.4,0.8-0.8,0.8h-5.6c-0.5,0-0.8-0.4-0.8-0.8l0,0c0-0.7-0.8-1.1-1.3-0.7
			c-1.8,1.4-4.2,2.1-6.5,2.1c-5.7,0-10.1-3.4-10.1-8.5c0-5.3,4.9-8.9,11.1-8.9c2.2,0,4.6,0.5,6.8,1.3v-0.5c0-2.8-1.8-5.3-6.2-5.3
			c-2.2,0-4.3,0.6-6.2,1.6c-0.4,0.2-0.9,0-1.1-0.4l-1.8-3.5c-0.2-0.4,0-0.9,0.4-1.1c3.2-1.5,6.3-2.4,9.5-2.6
			C312,205.6,317.7,211.3,317.7,218.3z M310.4,224.7v-1.8c0-0.4-0.2-0.7-0.6-0.8c-1.6-0.5-3.3-0.8-5.2-0.8c-2.7,0-4.9,1.6-4.9,3.8
			s1.9,3.5,4.5,3.5c2.9,0,5.6-1.3,6.1-3.7C310.4,224.9,310.4,224.8,310.4,224.7z"/>
		<path class="st0" d="M391.8,197.9v34.5c0,0.5-0.4,0.8-0.8,0.8h-5.9c-0.5,0-0.8-0.4-0.8-0.8v-0.8c0-0.7-0.9-1.1-1.4-0.6
			c-2,1.9-4.6,2.9-7.6,2.9c-7.1,0-12.3-5.8-12.3-14s5.2-14,12.3-14c3,0,5.6,1.1,7.6,2.9c0.5,0.5,1.4,0.1,1.4-0.6v-10.3
			c0-0.5,0.4-0.8,0.8-0.8h5.9C391.5,197.1,391.8,197.5,391.8,197.9z M384.3,219.9c0-4.4-2.8-7.6-6.8-7.6c-4.2,0-7.1,3.2-7.1,7.6
			c0,4.5,2.9,7.7,7.1,7.7C381.4,227.5,384.3,224.4,384.3,219.9z"/>
		<path class="st0" d="M430.7,225.4l3.7,3.8c0.3,0.3,0.3,0.9-0.1,1.2c-2.5,2.1-6.7,3.5-10.3,3.5c-8,0-14.2-5.8-14.2-14.1
			c0-8.1,5.9-13.9,13.8-13.9c8.1,0,13,6,13.3,15.6c0,0.5-0.4,0.8-0.8,0.8h-17.2c-0.6,0-1,0.6-0.8,1.2c1.1,2.2,3.2,3.7,5.9,3.7
			c1.9,0,4.1-0.8,5.6-1.9C429.9,225.1,430.4,225.1,430.7,225.4z M419.1,216.9h9.4c0.6,0,1-0.6,0.8-1.2c-0.9-2-2.7-3.2-5.3-3.2
			c-2.4,0-4.4,1.1-5.6,3.1C418,216.2,418.4,216.9,419.1,216.9z"/>
		<path class="st0" d="M490.2,206.3v5.4c0,0.5,0.4,0.8,0.8,0.8h16.2c0.5,0,0.8,0.4,0.8,0.8v5.2c0,0.5-0.4,0.8-0.8,0.8H491
			c-0.5,0-0.8,0.4-0.8,0.8v6.2c0,0.5,0.4,0.8,0.8,0.8h18.1c0.5,0,0.8,0.4,0.8,0.8v5.2c0,0.5-0.4,0.8-0.8,0.8h-25.7
			c-0.5,0-0.8-0.4-0.8-0.8v-33.6c0-0.5,0.4-0.8,0.8-0.8h25.7c0.5,0,0.8,0.4,0.8,0.8v5.2c0,0.5-0.4,0.8-0.8,0.8H491
			C490.6,205.5,490.2,205.9,490.2,206.3z"/>
		<path class="st0" d="M526.8,229.3l2.4-3.9c0.2-0.4,0.8-0.5,1.2-0.2c2.3,1.5,5,2.5,8.2,2.5c2,0,3.5-0.8,3.5-2c0-1.7-2-2.2-4.7-2.9
			c-5.5-1.3-9.7-2.8-9.8-8.1c-0.1-5.1,4.1-8.7,10.4-8.7c3.5,0,7,1.2,9.9,2.9c0.4,0.2,0.5,0.7,0.3,1.1l-2.3,4
			c-0.2,0.4-0.7,0.5-1.1,0.3c-2.3-1.2-4.7-2-6.8-2c-1.9,0-3.2,0.7-3.2,1.6c0,1.4,1.1,1.9,4.7,2.8c4.6,1.2,9.7,2.7,9.7,8.6
			c0,5.3-4.3,8.6-10.9,8.6c-4,0-8.3-1.3-11.4-3.6C526.6,230.2,526.6,229.7,526.8,229.3z"/>
		<path class="st0" d="M583,231c0.1,0.3,0,0.7-0.2,0.9c-1.5,1.2-3.7,2-5.7,2c-4.7,0-8-3.4-8-8.2v-12.3c0-0.5-0.4-0.8-0.8-0.8h-2
			c-0.5,0-0.8-0.4-0.8-0.8v-4.5c0-0.5,0.4-0.8,0.8-0.8h2c0.5,0,0.8-0.4,0.8-0.8V200c0-0.5,0.4-0.8,0.8-0.8h5.6
			c0.5,0,0.8,0.4,0.8,0.8v5.7c0,0.5,0.4,0.8,0.8,0.8h4.1c0.5,0,0.8,0.4,0.8,0.8v4.5c0,0.5-0.4,0.8-0.8,0.8h-4.1
			c-0.5,0-0.8,0.4-0.8,0.8v11.1c0,1.8,1.1,3,2.5,3c0.7,0,1.3-0.1,1.8-0.4c0.4-0.2,0.9,0,1.1,0.5L583,231z"/>
		<path class="st0" d="M626.1,207.3v25.1c0,0.5-0.4,0.8-0.8,0.8h-5.9c-0.5,0-0.8-0.4-0.8-0.8v-0.3c0-0.7-0.8-1.1-1.4-0.6
			c-1.7,1.5-4,2.4-6.7,2.4c-5.8,0-9.9-4.3-9.9-10.3v-16.2c0-0.5,0.4-0.8,0.8-0.8h5.6c0.5,0,0.8,0.4,0.8,0.8V222
			c0,3.3,2.1,5.6,5.1,5.6c3.2,0,5.6-2.3,5.6-5.2l0.1,0.2v-15.2c0-0.5,0.4-0.8,0.8-0.8h5.9C625.7,206.4,626.1,206.8,626.1,207.3z"/>
		<path class="st0" d="M673,197.9v34.5c0,0.5-0.4,0.8-0.8,0.8h-5.9c-0.5,0-0.8-0.4-0.8-0.8v-0.8c0-0.7-0.9-1.1-1.4-0.6
			c-2,1.9-4.6,2.9-7.6,2.9c-7.1,0-12.3-5.8-12.3-14s5.2-14,12.3-14c3,0,5.6,1.1,7.6,2.9c0.5,0.5,1.4,0.1,1.4-0.6v-10.3
			c0-0.5,0.4-0.8,0.8-0.8h5.9C672.6,197.1,673,197.5,673,197.9z M665.4,219.9c0-4.4-2.8-7.6-6.8-7.6c-4.2,0-7.1,3.2-7.1,7.6
			c0,4.5,2.9,7.7,7.1,7.7C662.6,227.5,665.4,224.4,665.4,219.9z"/>
		<path class="st0" d="M691,219.9c0-7.6,6.7-14,14.6-14c7.9,0,14.5,6.4,14.5,14s-6.6,14-14.5,14C697.7,233.9,691,227.5,691,219.9z
			 M713,219.9c0-4.1-3.4-7.6-7.3-7.6c-4,0-7.4,3.5-7.4,7.6s3.4,7.7,7.4,7.7C709.6,227.5,713,224,713,219.9z"/>
		<path class="st0" d="M736.6,229.3l2.4-3.9c0.2-0.4,0.8-0.5,1.2-0.2c2.3,1.5,5,2.5,8.2,2.5c2,0,3.5-0.8,3.5-2c0-1.7-2-2.2-4.7-2.9
			c-5.5-1.3-9.7-2.8-9.8-8.1c-0.1-5.1,4.1-8.7,10.4-8.7c3.5,0,7,1.2,9.9,2.9c0.4,0.2,0.5,0.7,0.3,1.1l-2.3,4
			c-0.2,0.4-0.7,0.5-1.1,0.3c-2.3-1.2-4.7-2-6.8-2c-1.9,0-3.2,0.7-3.2,1.6c0,1.4,1.1,1.9,4.7,2.8c4.6,1.2,9.7,2.7,9.7,8.6
			c0,5.3-4.3,8.6-10.9,8.6c-4,0-8.3-1.3-11.4-3.6C736.5,230.2,736.4,229.7,736.6,229.3z"/>
	</g>
</g>
<g>
	<linearGradient id="SVGID_1_" gradientUnits="userSpaceOnUse" x1="25.8306" y1="73.8652" x2="109.5499" y2="73.8652">
		<stop  offset="0" style="stop-color:#435F92"/>
		<stop  offset="1" style="stop-color:#485F90"/>
	</linearGradient>
	<path class="st1" d="M105.9,56.7c-0.4-1-0.9-1.9-1.4-2.8l0,0l0,0c-0.5-0.9-1.3-2.1-2.1-3.3c-1.7-2.4-5.2-2.8-7.4-0.8L81.9,62.2
		c-2.7,2.6-2.8,6.9-0.1,9.5l0,0c2.2,2.2,5.8,2,7.8-0.4l0,0c1.7-1.9,4.9-0.8,4.9,1.7c0.2,12.1-7.9,23.6-21.1,26.6
		c-10.2,2.3-21-1.7-27.2-10.2C35.9,75.1,41.6,55.8,56.9,49c2.7-1.2,5.5-1.9,8.4-2.2c3.3-0.3,6.3-3.2,6.4-6.5c0.1-5-4.3-8.7-9.1-8.1
		c-5,0.6-9.9,2.1-14.7,4.7C29.7,46.6,21.2,68.6,28.3,88c8.4,23,34.4,33.8,56.4,24C105.8,102.6,115.3,77.8,105.9,56.7z"/>
	<g>
		<linearGradient id="SVGID_2_" gradientUnits="userSpaceOnUse" x1="46.456" y1="72.2702" x2="81.4111" y2="72.2702">
			<stop  offset="0" style="stop-color:#408BA6"/>
			<stop  offset="0.249" style="stop-color:#4690A8"/>
			<stop  offset="0.5782" style="stop-color:#579DAE"/>
			<stop  offset="0.9507" style="stop-color:#72B4B8"/>
			<stop  offset="1" style="stop-color:#76B7B9"/>
		</linearGradient>
		<path class="st2" d="M69.3,79.2L69.3,79.2c-0.8,1.2-0.4,2.7,0.8,3.5l0,0c1.2,0.7,0.8,2.5-0.5,2.7c-5.3,0.9-10.9-1.5-13.7-6.6
			c-3.1-5.6-1.6-12.8,3.4-16.8c4-3.1,9-3.6,13.3-1.8c1.4,0.6,3,0.2,3.9-1l0.1-0.2c1.5-2,0.7-4.9-1.6-5.8c-8.2-3.3-18.5-1.3-24.8,7.4
			c-3.4,4.6-4.6,10.6-3.2,16.1c3.7,15.1,20.2,20.5,31.7,12.8c0.4-0.3,0.8-0.6,1.2-0.9l0,0l0,0l0,0c1.9-1.5,1.9-4.3,0-5.8l-5.7-4.4
			C72.7,77.2,70.5,77.5,69.3,79.2z"/>
	</g>
	<linearGradient id="SVGID_3_" gradientUnits="userSpaceOnUse" x1="2.3564" y1="74.6678" x2="132.9819" y2="74.6678">
		<stop  offset="0" style="stop-color:#473580"/>
		<stop  offset="0.4093" style="stop-color:#463B81"/>
		<stop  offset="0.5718" style="stop-color:#453F82"/>
		<stop  offset="1" style="stop-color:#444E8A"/>
	</linearGradient>
	<path class="st3" d="M108.9,50.6c3.7,6.4,6,13.9,6.4,21.8c1.1,25.6-19.5,48.4-45,49.9c-26.9,1.6-50-19.4-50.7-46.7
		C19,51.1,37.4,29.8,61.8,26.9c2-0.2,4-0.3,6-0.3c5,0,8.9-4.2,8.6-9.1l0,0c-0.3-4.6-4.1-8.1-8.7-8.1c-1.4,0-2.9,0-4.3,0.1
		c-36.3,2.4-63.7,34-60.8,70.4c2.9,35.7,34.4,62.6,70,59.9c35.7-2.7,62.6-33.6,60.2-69.4c-0.7-10.2-3.7-19.7-8.4-28.1
		c-2.5-4.4-8.3-5.8-12.6-3.1l0,0C107.9,41.6,106.7,46.6,108.9,50.6z"/>
</g>
</svg>
