<svg id="Camada_1" data-name="Camada 1" xmlns="http://www.w3.org/2000/svg" viewBox="0 0 756.76 223.26"><title>logo</title><circle cx="588.96" cy="22.31" r="10.26" style="fill:#fff"/><path d="M103.56,56.52c-.43-1-.89-1.89-1.38-2.8h0a34.69,34.69,0,0,0-2.08-3.25,4.92,4.92,0,0,0-7.38-.75L79.59,62a6.57,6.57,0,0,0-.1,9.5h0a5.35,5.35,0,0,0,7.82-.36h0a2.79,2.79,0,0,1,4.91,1.75A26.82,26.82,0,0,1,71.09,99.46,26.49,26.49,0,0,1,43.92,89.24a26.82,26.82,0,0,1,19-42.65c3.3-.31,6.3-3.16,6.35-6.47A8,8,0,0,0,60.18,32a41.87,41.87,0,1,0,43.38,24.52Z" style="fill:#fff"/><path d="M67,79h0a2.43,2.43,0,0,0,.75,3.46h0a1.46,1.46,0,0,1-.5,2.7,13.21,13.21,0,1,1,3-25.21,3.27,3.27,0,0,0,3.93-1l.11-.15A3.82,3.82,0,0,0,72.67,53a20.79,20.79,0,0,0-24.8,7.36,19.38,19.38,0,0,0-3.21,16.1C48.38,91.52,64.87,97,76.41,89.24c.43-.29.84-.59,1.24-.91h0a3.65,3.65,0,0,0,0-5.77l-5.7-4.37A3.46,3.46,0,0,0,67,79Z" style="fill:#fff"/><path d="M106.59,50.38a47.67,47.67,0,0,1,6.35,21.83c1.14,25.58-19.45,48.39-45,49.9a47.88,47.88,0,0,1-8.48-95.35,46.75,46.75,0,0,1,6-.33A8.56,8.56,0,0,0,74,17.29h0A8.71,8.71,0,0,0,65.3,9.17c-1.42,0-2.85.05-4.29.15a65.25,65.25,0,1,0,61,32.78A9,9,0,0,0,109.42,39h0A8.45,8.45,0,0,0,106.59,50.38Z" style="fill:#fff"/><path d="M254.68,91.26a4.08,4.08,0,0,1,3.63,5.95,46.39,46.39,0,0,1-4.15,6.58,45.7,45.7,0,0,1-10.07,9.81,47,47,0,0,1-12.7,6.39,45.36,45.36,0,0,1-14.28,2.28,44.06,44.06,0,0,1-17.61-3.59A48,48,0,0,1,184.88,109a45.42,45.42,0,0,1-10-14.54,44.82,44.82,0,0,1,0-35.57,48.23,48.23,0,0,1,24.7-25,43.67,43.67,0,0,1,18-3.77,45.13,45.13,0,0,1,27,8.94,49.63,49.63,0,0,1,10,10.07A50.2,50.2,0,0,1,258.91,56a4.09,4.09,0,0,1-3.58,6h-8.88a4.07,4.07,0,0,1-3.47-2,28.65,28.65,0,0,0-9.84-9.61,29.89,29.89,0,0,0-15.5-4.2,29,29,0,0,0-11.48,2.36,32.26,32.26,0,0,0-9.72,6.4,31.06,31.06,0,0,0-6.75,9.63,29,29,0,0,0-.26,23.13,29.53,29.53,0,0,0,6.4,9.55,32.09,32.09,0,0,0,9.54,6.57,28.29,28.29,0,0,0,11.74,2.45A31.65,31.65,0,0,0,242.46,93a4,4,0,0,1,3.32-1.74Z" style="fill:#fff"/><path d="M316.62,122.71A45.17,45.17,0,0,1,298.49,119a48.11,48.11,0,0,1-14.89-10,46.83,46.83,0,0,1-10.08-14.71,44.14,44.14,0,0,1-3.68-17.87,44.62,44.62,0,0,1,3.68-18A46.83,46.83,0,0,1,283.6,43.7a48.11,48.11,0,0,1,14.89-10,46.08,46.08,0,0,1,36.09,0,47.12,47.12,0,0,1,24.79,24.7,44.62,44.62,0,0,1,3.68,18,44.14,44.14,0,0,1-3.68,17.87A47.12,47.12,0,0,1,334.58,119,44.78,44.78,0,0,1,316.62,122.71Zm0-76.21a30.25,30.25,0,0,0-11.91,2.37,30.44,30.44,0,0,0-16.3,15.85,29.35,29.35,0,0,0,0,23.48A32.09,32.09,0,0,0,295,97.74a30.55,30.55,0,0,0,21.64,8.85,29.82,29.82,0,0,0,11.83-2.36,30.55,30.55,0,0,0,16.11-16,30.26,30.26,0,0,0,0-23.48,29.68,29.68,0,0,0-6.48-9.46,31.09,31.09,0,0,0-9.63-6.39A29.65,29.65,0,0,0,316.62,46.5Z" style="fill:#fff"/><path d="M746.79,80.14a9.78,9.78,0,0,0,9.43-7.6A26.59,26.59,0,0,0,755,57.78a40.25,40.25,0,0,0-9.73-14.34,46.13,46.13,0,0,0-14.42-9.73,45,45,0,0,0-35.16,0,47,47,0,0,0-14.51,9.73,45.59,45.59,0,0,0-9.82,14.34,44.54,44.54,0,0,0,0,35,45.44,45.44,0,0,0,9.82,14.33,47,47,0,0,0,14.51,9.73,44.84,44.84,0,0,0,35.16,0A45.87,45.87,0,0,0,755,92.77h0c.53-1.22-.11-2.17-1.69-2.57,0,0-12.44-2.59-15.81,2a32.25,32.25,0,0,1-3.24,3.87,29.53,29.53,0,0,1-9.39,6.32,28.83,28.83,0,0,1-11.52,2.3,29.79,29.79,0,0,1-21.08-8.62,31.1,31.1,0,0,1-6.4-9.3,31.49,31.49,0,0,1-1.91-6.65M686,63.63a29.48,29.48,0,0,1,15.73-15.15,29.47,29.47,0,0,1,11.6-2.31,28.84,28.84,0,0,1,11.52,2.31,30.28,30.28,0,0,1,9.39,6.22A32.74,32.74,0,0,1,740,63.6" style="fill:#fff"/><path d="M664.83,105.43a1.66,1.66,0,0,0-2-.79c-3.6,1.14-13.85,4.83-17-2.16A12.54,12.54,0,0,1,644.58,98c-1.36-10.89,0-74.46,0-93A5.06,5.06,0,0,0,639.51,0h-8.93a4.09,4.09,0,0,0-4.09,4.09v28a4.09,4.09,0,0,1-4.09,4.09H610.64a4.09,4.09,0,0,0-4.09,4.09v8a4.09,4.09,0,0,0,4.09,4.09h14.19A1.66,1.66,0,0,1,626.49,54s.62,17.28.62,47.8c0,13.06,11.06,17.81,17,19.25a34.11,34.11,0,0,0,20.45-1.42,6.45,6.45,0,0,0,3.15-9Z" style="fill:#fff"/><rect x="579.99" y="39.38" width="17.95" height="83.2" rx="2.93" ry="2.93" style="fill:#fff"/><path d="M457.56,40.16H449a3.48,3.48,0,0,0-3.3,2.41A46.31,46.31,0,0,0,432.4,33.8a44.26,44.26,0,0,0-35.34,0,47.35,47.35,0,0,0-14.59,10,46.84,46.84,0,0,0-9.86,14.7,46.47,46.47,0,0,0,0,35.87,46.84,46.84,0,0,0,9.86,14.7,47.38,47.38,0,0,0,14.59,10,44.37,44.37,0,0,0,35.34,0,46.65,46.65,0,0,0,13.07-8.59V133c0,10.95-8.41,20.32-19.34,20.89q-.57,0-1.17,0c-11.41,0-20.66-8.52-20.66-19v-.42a4.55,4.55,0,0,0-4.54-4.7h-7.19a2.86,2.86,0,0,0-2.84,2.65A35.32,35.32,0,0,0,425,170.22c15.43,0,24.32-7.52,29.33-15.25a38.62,38.62,0,0,0,6-21V76.5h0V42.88A2.72,2.72,0,0,0,457.56,40.16Zm-42.92,68.27a31.1,31.1,0,1,1,31.1-31.1A31.09,31.09,0,0,1,414.64,108.43Z" style="fill:#fff"/><path d="M559.42,40.16h-8.59a3.46,3.46,0,0,0-3.3,2.41,46.31,46.31,0,0,0-13.26-8.77,44.29,44.29,0,0,0-35.35,0,47.42,47.42,0,0,0-14.58,10,46.84,46.84,0,0,0-9.86,14.7,46.36,46.36,0,0,0,0,35.87,46.84,46.84,0,0,0,9.86,14.7,47.45,47.45,0,0,0,14.58,10,44.4,44.4,0,0,0,35.35,0,46.65,46.65,0,0,0,13.07-8.59V133c0,10.95-8.41,20.32-19.34,20.89q-.59,0-1.17,0c-11.41,0-20.67-8.52-20.67-19,0-.14,0-.28,0-.42a4.56,4.56,0,0,0-4.54-4.7h-7.19a2.86,2.86,0,0,0-2.84,2.65,35.32,35.32,0,0,0,35.23,37.78c15.43,0,24.32-7.52,29.32-15.25a38.53,38.53,0,0,0,6-21V76.5h0V42.88A2.72,2.72,0,0,0,559.42,40.16Zm-42.91,68.27a31.1,31.1,0,1,1,31.1-31.1A31.09,31.09,0,0,1,516.51,108.43Z" style="fill:#fff"/><path d="M198.78,216.07a9.29,9.29,0,0,1-2.44,3.08,11.4,11.4,0,0,1-3.72,2,14.94,14.94,0,0,1-4.75.71,19.93,19.93,0,0,1-7.7-1.42,23.1,23.1,0,0,1-5.77-3.53,1.12,1.12,0,0,1-.12-1.59l.25-.28a1.1,1.1,0,0,1,1.55-.12,24.49,24.49,0,0,0,2.11,1.63,16.7,16.7,0,0,0,3,1.63,17,17,0,0,0,3.21,1,18.11,18.11,0,0,0,3.66.33,11.79,11.79,0,0,0,3.65-.53,8.72,8.72,0,0,0,2.85-1.47,6.9,6.9,0,0,0,1.83-2.24,6.1,6.1,0,0,0,.66-2.82v-.1a6.94,6.94,0,0,0-.43-2.54,4.84,4.84,0,0,0-1.58-2,11.33,11.33,0,0,0-3.07-1.65,31.49,31.49,0,0,0-5-1.34,33.46,33.46,0,0,1-5.49-1.56,13.42,13.42,0,0,1-3.74-2.08,7.25,7.25,0,0,1-2.11-2.77,9.26,9.26,0,0,1-.66-3.61v-.1a8,8,0,0,1,.87-3.68,9.23,9.23,0,0,1,2.39-3,11.18,11.18,0,0,1,3.6-2,14.24,14.24,0,0,1,4.58-.71,18.68,18.68,0,0,1,6.68,1.07,19.24,19.24,0,0,1,4.62,2.55,1.11,1.11,0,0,1,.19,1.58l-.28.35a1.1,1.1,0,0,1-1.54.16,15.33,15.33,0,0,0-4.26-2.41,16.29,16.29,0,0,0-5.51-.91,11.24,11.24,0,0,0-3.59.53,8.92,8.92,0,0,0-2.74,1.45,6.33,6.33,0,0,0-1.75,2.13,5.71,5.71,0,0,0-.61,2.6v.1A7.12,7.12,0,0,0,178,197a4.94,4.94,0,0,0,1.57,2.09,11.26,11.26,0,0,0,3.18,1.7,35.88,35.88,0,0,0,5.18,1.42q6.21,1.28,8.95,3.59a7.72,7.72,0,0,1,2.74,6.22v.11A8.78,8.78,0,0,1,198.78,216.07Z" style="fill:#fff"/><path d="M242,221.34a1.12,1.12,0,0,1-1.12-1.12V217a12.46,12.46,0,0,1-1.6,1.8,10.74,10.74,0,0,1-2.16,1.58,12.23,12.23,0,0,1-2.77,1.11,12.45,12.45,0,0,1-3.38.44,13.06,13.06,0,0,1-3.61-.51,10.4,10.4,0,0,1-3.2-1.53,8,8,0,0,1-2.31-2.54,7,7,0,0,1-.89-3.56v-.1a7.57,7.57,0,0,1,.84-3.61,7.7,7.7,0,0,1,2.31-2.64,10.92,10.92,0,0,1,3.56-1.63,17.94,17.94,0,0,1,4.62-.56,32,32,0,0,1,4.73.31,34.28,34.28,0,0,1,3.86.81v-1.11q0-3.94-2.26-5.91a9.21,9.21,0,0,0-6.27-2,15.48,15.48,0,0,0-4.38.58,23.11,23.11,0,0,0-2.75,1,1.1,1.1,0,0,1-1.46-.59l-.05-.12a1.11,1.11,0,0,1,.56-1.44,25.4,25.4,0,0,1,3.35-1.21,18,18,0,0,1,4.88-.62c3.35,0,6,.84,7.93,2.54s2.89,4.23,2.89,7.62v15.05a1.11,1.11,0,0,1-1.11,1.12Zm-1.06-11.79a1.11,1.11,0,0,0-.88-1.08c-.88-.2-1.86-.39-2.94-.58a29.51,29.51,0,0,0-5-.38,10.46,10.46,0,0,0-6.33,1.65,5.18,5.18,0,0,0-2.21,4.37v.1a5.1,5.1,0,0,0,.61,2.51,5.83,5.83,0,0,0,1.65,1.85,8,8,0,0,0,2.42,1.16,10,10,0,0,0,2.85.41,12,12,0,0,0,3.76-.59,10.24,10.24,0,0,0,3.12-1.61,7.92,7.92,0,0,0,2.14-2.51,6.81,6.81,0,0,0,.79-3.24Z" style="fill:#fff"/><path d="M267.82,220.22V185.34a1.12,1.12,0,0,1,1.12-1.11h.26a1.11,1.11,0,0,1,1.11,1.11v34.88a1.11,1.11,0,0,1-1.11,1.12h-.26A1.12,1.12,0,0,1,267.82,220.22Z" style="fill:#fff"/><path d="M314.27,221.34a1.12,1.12,0,0,1-1.11-1.12V217a12.46,12.46,0,0,1-1.6,1.8,11.34,11.34,0,0,1-2.16,1.58,12.73,12.73,0,0,1-6.15,1.55,13.06,13.06,0,0,1-3.61-.51,10.3,10.3,0,0,1-3.2-1.53,8,8,0,0,1-2.31-2.54,6.87,6.87,0,0,1-.89-3.56v-.1a7.57,7.57,0,0,1,.84-3.61,7.49,7.49,0,0,1,2.31-2.64,10.92,10.92,0,0,1,3.56-1.63,17.89,17.89,0,0,1,4.62-.56,32,32,0,0,1,4.73.31,34.28,34.28,0,0,1,3.86.81v-1.11q0-3.94-2.26-5.91a9.22,9.22,0,0,0-6.28-2,15.4,15.4,0,0,0-4.37.58,22.48,22.48,0,0,0-2.75,1,1.1,1.1,0,0,1-1.46-.59l-.05-.12a1.11,1.11,0,0,1,.56-1.44,24.89,24.89,0,0,1,3.35-1.21,17.92,17.92,0,0,1,4.87-.62c3.36,0,6,.84,7.93,2.54s2.9,4.23,2.9,7.62v15.05a1.12,1.12,0,0,1-1.11,1.12Zm-1.06-11.79a1.1,1.1,0,0,0-.88-1.08c-.87-.2-1.85-.39-2.93-.58a29.68,29.68,0,0,0-5-.38,10.42,10.42,0,0,0-6.33,1.65,5.18,5.18,0,0,0-2.21,4.37v.1a5,5,0,0,0,.61,2.51,5.83,5.83,0,0,0,1.65,1.85,8,8,0,0,0,2.42,1.16,10,10,0,0,0,2.84.41,11.94,11.94,0,0,0,3.76-.59,10.18,10.18,0,0,0,3.13-1.61,7.76,7.76,0,0,0,2.13-2.51,6.7,6.7,0,0,0,.79-3.24Z" style="fill:#fff"/><path d="M375.58,220.75v-.42a1.12,1.12,0,0,0-1.89-.8,13.9,13.9,0,0,1-1.79,1.41,9.54,9.54,0,0,1-5.45,1.48,12.09,12.09,0,0,1-4.62-.92,11.38,11.38,0,0,1-3.95-2.72,13.87,13.87,0,0,1-2.79-4.39,15.56,15.56,0,0,1-1.06-5.95,16,16,0,0,1,1-5.95,13.76,13.76,0,0,1,2.77-4.39,11.44,11.44,0,0,1,4-2.72,12.23,12.23,0,0,1,4.64-.92,9.78,9.78,0,0,1,5.47,1.43,15.64,15.64,0,0,1,1.8,1.35,1.11,1.11,0,0,0,1.86-.82V185.87a1.1,1.1,0,0,1,1.11-1.11h4a1.11,1.11,0,0,1,1.11,1.11v34.88a1.11,1.11,0,0,1-1.11,1.11h-4A1.11,1.11,0,0,1,375.58,220.75ZM375,204.88a8.74,8.74,0,0,0-1.69-2.72,7.42,7.42,0,0,0-5.42-2.36,7.78,7.78,0,0,0-3,.58,7.05,7.05,0,0,0-2.45,1.71,8,8,0,0,0-1.68,2.72,10.27,10.27,0,0,0-.6,3.63,10.11,10.11,0,0,0,.6,3.58,8,8,0,0,0,1.68,2.72,7.37,7.37,0,0,0,5.42,2.34,7.42,7.42,0,0,0,5.42-2.36A8.63,8.63,0,0,0,375,212a10.22,10.22,0,0,0,0-7.12Z" style="fill:#fff"/><path d="M412,215.68a7.62,7.62,0,0,0,5.08,1.76,8.9,8.9,0,0,0,4-.82,11.64,11.64,0,0,0,2.6-1.75,1.12,1.12,0,0,1,1.45,0l2,1.79a1.11,1.11,0,0,1,0,1.63,14.71,14.71,0,0,1-3.79,2.78,13.87,13.87,0,0,1-6.38,1.37,14.23,14.23,0,0,1-5.41-1,13,13,0,0,1-4.37-2.84,13.2,13.2,0,0,1-2.93-4.4,14.79,14.79,0,0,1-1.06-5.72,15.3,15.3,0,0,1,1-5.44,13.76,13.76,0,0,1,2.72-4.44,13.27,13.27,0,0,1,4.14-3,12.44,12.44,0,0,1,5.29-1.12,12.77,12.77,0,0,1,5.62,1.17,11.57,11.57,0,0,1,4,3.15,13.9,13.9,0,0,1,2.42,4.63,18.8,18.8,0,0,1,.81,5.54q0,.41,0,.81c0,.27,0,.56-.07.87H410.78a1.11,1.11,0,0,0-1.07,1.41A7.35,7.35,0,0,0,412,215.68Zm9.77-9.12a1.1,1.1,0,0,0,1.09-1.33,9.62,9.62,0,0,0-.44-1.44,7.32,7.32,0,0,0-1.37-2.24,6.87,6.87,0,0,0-2.06-1.5,6.39,6.39,0,0,0-2.72-.55,6.19,6.19,0,0,0-4.7,1.95,8.29,8.29,0,0,0-2,3.72,1.12,1.12,0,0,0,1.09,1.39Z" style="fill:#fff"/><path d="M470.1,221.53V188.18a1.11,1.11,0,0,1,1.11-1.11H494.3a1.11,1.11,0,0,1,1.11,1.11v.16a1.12,1.12,0,0,1-1.11,1.12H473.85a1.11,1.11,0,0,0-1.11,1.11v11.85a1.12,1.12,0,0,0,1.11,1.12H492a1.1,1.1,0,0,1,1.11,1.11v.16a1.1,1.1,0,0,1-1.11,1.11H473.85a1.12,1.12,0,0,0-1.11,1.12v12.11a1.11,1.11,0,0,0,1.11,1.11h20.7a1.12,1.12,0,0,1,1.12,1.11v.16a1.12,1.12,0,0,1-1.12,1.12H471.21A1.12,1.12,0,0,1,470.1,221.53Z" style="fill:#fff"/><path d="M535.49,218.72a7,7,0,0,1-1.91,2.38,8.7,8.7,0,0,1-2.84,1.52,11.12,11.12,0,0,1-3.51.54,16.1,16.1,0,0,1-5.69-1.07,17.73,17.73,0,0,1-4-2,1.13,1.13,0,0,1-.29-1.6l.14-.19a1.14,1.14,0,0,1,1.53-.28,17.86,17.86,0,0,0,3.61,1.9,13.55,13.55,0,0,0,4.83.89,7.33,7.33,0,0,0,4.45-1.32,4.23,4.23,0,0,0,1.8-3.6v-.11a3.24,3.24,0,0,0-.56-1.92,5.08,5.08,0,0,0-1.52-1.42,9.62,9.62,0,0,0-2.19-1c-.81-.27-1.67-.54-2.59-.81s-2.11-.62-3.17-1a12.66,12.66,0,0,1-2.88-1.3,6.75,6.75,0,0,1-2.06-1.95,5.09,5.09,0,0,1-.78-2.89v-.1a6.49,6.49,0,0,1,.63-2.87,7.09,7.09,0,0,1,1.76-2.25,7.73,7.73,0,0,1,2.69-1.5,10.6,10.6,0,0,1,3.46-.53,15.89,15.89,0,0,1,4.8.78,16.43,16.43,0,0,1,3.41,1.49,1.12,1.12,0,0,1,.39,1.57l-.16.24a1.08,1.08,0,0,1-1.47.34,17.59,17.59,0,0,0-2.93-1.32,12.53,12.53,0,0,0-4.15-.71A6.65,6.65,0,0,0,522,199.9a4,4,0,0,0-1.6,3.22v.1a2.9,2.9,0,0,0,.61,1.85,5.09,5.09,0,0,0,1.6,1.35,13.14,13.14,0,0,0,2.31,1c.88.28,1.78.56,2.7.83s2.08.64,3.1,1a11.7,11.7,0,0,1,2.74,1.37,6.93,6.93,0,0,1,2,2,5.3,5.3,0,0,1,.74,2.89v.1A6.94,6.94,0,0,1,535.49,218.72Z" style="fill:#fff"/><path d="M570.2,222.88a10,10,0,0,1-2.21.22,9.65,9.65,0,0,1-2.84-.4,6,6,0,0,1-2.32-1.3,6.2,6.2,0,0,1-1.55-2.23,8.33,8.33,0,0,1-.56-3.18V200.12a1.11,1.11,0,0,0-1.11-1.11h-1.53A1.12,1.12,0,0,1,557,197.9v-.06a1.11,1.11,0,0,1,1.12-1.11h1.53a1.11,1.11,0,0,0,1.11-1.12v-6.06a1.12,1.12,0,0,1,1.12-1.11h.26a1.11,1.11,0,0,1,1.11,1.11v6.06a1.12,1.12,0,0,0,1.12,1.12h6.87a1.11,1.11,0,0,1,1.11,1.11v.06A1.11,1.11,0,0,1,571.2,199h-6.87a1.12,1.12,0,0,0-1.12,1.11V215.7c0,1.86.49,3.16,1.45,3.9a6,6,0,0,0,3.74,1.12,8.34,8.34,0,0,0,1.83-.2,3.79,3.79,0,0,0,.53-.14,1.12,1.12,0,0,1,1.45,1.06h0a1.15,1.15,0,0,1-.75,1.06A12.07,12.07,0,0,1,570.2,222.88Z" style="fill:#fff"/><path d="M614.14,221.53v-.46a1.1,1.1,0,0,0-1.89-.78,13.14,13.14,0,0,1-1.66,1.39,9.89,9.89,0,0,1-5.8,1.58,11.58,11.58,0,0,1-4.37-.79,9.11,9.11,0,0,1-5.31-5.59,12.88,12.88,0,0,1-.69-4.3V197.84a1.11,1.11,0,0,1,1.11-1.11h.27a1.1,1.1,0,0,1,1.11,1.11v14.29a9.34,9.34,0,0,0,2.14,6.43,7.69,7.69,0,0,0,6.1,2.41,9.07,9.07,0,0,0,3.53-.69,8.67,8.67,0,0,0,2.87-1.9,8.86,8.86,0,0,0,1.91-2.92,9.88,9.88,0,0,0,.68-3.74V197.84a1.11,1.11,0,0,1,1.12-1.11h.26a1.1,1.1,0,0,1,1.11,1.11v23.69a1.11,1.11,0,0,1-1.11,1.12h-.26A1.12,1.12,0,0,1,614.14,221.53Z" style="fill:#fff"/><path d="M664.05,222.65a1.12,1.12,0,0,1-1.11-1.12v-4.68a23.28,23.28,0,0,1-1.91,2.44,11.78,11.78,0,0,1-5.23,3.43,11,11,0,0,1-3.54.54,12.18,12.18,0,0,1-4.6-.92,12.5,12.5,0,0,1-4-2.64,13.27,13.27,0,0,1-2.87-4.24,14.09,14.09,0,0,1-1.09-5.67v-.1a14.09,14.09,0,0,1,1.09-5.67,13.52,13.52,0,0,1,2.87-4.27,12.48,12.48,0,0,1,4-2.69,11.83,11.83,0,0,1,4.6-.94,12.15,12.15,0,0,1,3.56.5,11.08,11.08,0,0,1,2.92,1.38,12.39,12.39,0,0,1,2.34,2,17.84,17.84,0,0,1,1.86,2.34V186.66a1.12,1.12,0,0,1,1.11-1.12h.27a1.12,1.12,0,0,1,1.11,1.12v34.87a1.12,1.12,0,0,1-1.11,1.12Zm-1-13a11.4,11.4,0,0,0-.89-4.55,10.75,10.75,0,0,0-5.76-5.77,10,10,0,0,0-4-.82,10.4,10.4,0,0,0-4,.77,9.18,9.18,0,0,0-3.23,2.18,10.23,10.23,0,0,0-2.17,3.48,12.89,12.89,0,0,0-.79,4.65v.11a12.45,12.45,0,0,0,.82,4.62,10.44,10.44,0,0,0,2.21,3.53,9.93,9.93,0,0,0,7.16,3,10,10,0,0,0,4-.81,11,11,0,0,0,3.39-2.29,11.43,11.43,0,0,0,2.37-3.51,11.18,11.18,0,0,0,.89-4.52Z" style="fill:#fff"/><path d="M714,214.87a13.48,13.48,0,0,1-2.79,4.32,13.24,13.24,0,0,1-4.25,3,13.44,13.44,0,0,1-10.65,0,13.49,13.49,0,0,1-4.19-2.92,13.06,13.06,0,0,1-2.77-4.27,13.61,13.61,0,0,1-1-5.18v-.1a13.58,13.58,0,0,1,3.79-9.51,13.41,13.41,0,0,1,4.24-3,12.91,12.91,0,0,1,5.34-1.09,12.71,12.71,0,0,1,5.31,1.09,13.54,13.54,0,0,1,4.19,2.92A13.06,13.06,0,0,1,714,204.4a13.65,13.65,0,0,1,1,5.18v.11A13.65,13.65,0,0,1,714,214.87Zm-1.65-5.18a11.61,11.61,0,0,0-.82-4.38,10.83,10.83,0,0,0-2.27-3.57,10.68,10.68,0,0,0-3.42-2.38,10.46,10.46,0,0,0-4.21-.86,10.27,10.27,0,0,0-4.27.89,10.45,10.45,0,0,0-3.37,2.38,10.82,10.82,0,0,0-2.2,3.51,11.91,11.91,0,0,0-.79,4.31v.1a11.75,11.75,0,0,0,.82,4.37,11,11,0,0,0,2.27,3.57,10.48,10.48,0,0,0,7.64,3.24A10.26,10.26,0,0,0,706,220a10.47,10.47,0,0,0,3.37-2.37,10.87,10.87,0,0,0,2.2-3.52,11.64,11.64,0,0,0,.79-4.3Z" style="fill:#fff"/><path d="M754.55,218.72a7,7,0,0,1-1.9,2.38,8.86,8.86,0,0,1-2.85,1.52,11,11,0,0,1-3.51.54,16.18,16.18,0,0,1-5.69-1.07,17.94,17.94,0,0,1-4-2,1.13,1.13,0,0,1-.29-1.6l.14-.19A1.15,1.15,0,0,1,738,218a17.6,17.6,0,0,0,3.61,1.9,13.55,13.55,0,0,0,4.83.89,7.3,7.3,0,0,0,4.44-1.32,4.21,4.21,0,0,0,1.81-3.6v-.11a3.32,3.32,0,0,0-.56-1.92,5,5,0,0,0-1.53-1.42,9.74,9.74,0,0,0-2.18-1c-.82-.27-1.68-.54-2.59-.81s-2.11-.62-3.18-1a12.39,12.39,0,0,1-2.87-1.3,6.53,6.53,0,0,1-2.06-1.95,5,5,0,0,1-.79-2.89v-.1a6.36,6.36,0,0,1,.64-2.87,6.92,6.92,0,0,1,1.75-2.25,7.82,7.82,0,0,1,2.69-1.5,10.64,10.64,0,0,1,3.46-.53,15.84,15.84,0,0,1,4.8.78,16.2,16.2,0,0,1,3.41,1.49,1.12,1.12,0,0,1,.39,1.57l-.15.24a1.1,1.1,0,0,1-1.48.34,17.23,17.23,0,0,0-2.93-1.32,12.43,12.43,0,0,0-4.14-.71,6.66,6.66,0,0,0-4.3,1.29,4,4,0,0,0-1.6,3.22v.1a3,3,0,0,0,.61,1.85,5.2,5.2,0,0,0,1.6,1.35,12.94,12.94,0,0,0,2.32,1c.88.28,1.78.56,2.69.83s2.08.64,3.1,1a11.78,11.78,0,0,1,2.75,1.37,6.9,6.9,0,0,1,2,2,5.3,5.3,0,0,1,.74,2.89v.1A6.94,6.94,0,0,1,754.55,218.72Z" style="fill:#fff"/></svg>