<svg id="Camada_1" data-name="Camada 1" xmlns="http://www.w3.org/2000/svg" viewBox="0 0 760.78 231.84"><title>logo</title><circle cx="588.91" cy="21.4" r="10.3" style="fill:#fff"/><path d="M105.9,56.62a24.37,24.37,0,0,0-1.4-2.8h0c-.5-.9-1.3-2.1-2.1-3.3a5,5,0,0,0-7.4-.8L82,62.12a6.58,6.58,0,0,0-.1,9.5h0a5.28,5.28,0,0,0,7.8-.4h0a2.79,2.79,0,0,1,4.9,1.7,26.78,26.78,0,1,1-37.7-24,27.45,27.45,0,0,1,8.4-2.2,7.15,7.15,0,0,0,6.4-6.5,8,8,0,0,0-9.1-8.1,40.74,40.74,0,0,0-14.7,4.7,41.91,41.91,0,1,0,58,19.8Z" transform="translate(-2.39 -2.02)" style="fill:#fff"/><path d="M69.3,79.12h0a2.49,2.49,0,0,0,.8,3.5h0a1.46,1.46,0,0,1-.5,2.7,13.09,13.09,0,0,1-13.7-6.6,13.41,13.41,0,0,1,3.4-16.8,13.18,13.18,0,0,1,13.3-1.8,3.24,3.24,0,0,0,3.9-1l.1-.2a3.79,3.79,0,0,0-1.6-5.8,20.77,20.77,0,0,0-24.8,7.4A19.31,19.31,0,0,0,47,76.62c3.8,15,20.2,20.5,31.8,12.7l1.2-.9h0a3.66,3.66,0,0,0,0-5.8l-5.7-4.4A3.66,3.66,0,0,0,69.3,79.12Z" transform="translate(-2.39 -2.02)" style="fill:#fff"/><path d="M109,50.52a48.6,48.6,0,0,1,6.4,21.8c1.1,25.6-19.5,48.4-45,49.9a47.87,47.87,0,0,1-8.6-95.3q3-.3,6-.3a8.59,8.59,0,0,0,8.6-9.1h0a8.66,8.66,0,0,0-8.7-8.1c-1.4,0-2.9,0-4.3.1a65.26,65.26,0,1,0,69.4,60.8,66.75,66.75,0,0,0-8.4-28.1,9,9,0,0,0-12.6-3.1h0A8.37,8.37,0,0,0,109,50.52Z" transform="translate(-2.39 -2.02)" style="fill:#fff"/><path d="M257.1,91.92a4,4,0,0,1,3.6,5.9,45.94,45.94,0,0,1-4.2,6.6,44.71,44.71,0,0,1-10.1,9.8,48.88,48.88,0,0,1-12.7,6.4,46,46,0,0,1-14.3,2.3,43.64,43.64,0,0,1-17.6-3.6,48.36,48.36,0,0,1-14.6-9.7,46.36,46.36,0,0,1-10-14.5,43.48,43.48,0,0,1-3.7-17.9,42.89,42.89,0,0,1,3.7-17.7,50.18,50.18,0,0,1,10-14.8,49,49,0,0,1,14.7-10.2,43.69,43.69,0,0,1,18-3.8,44.55,44.55,0,0,1,14.5,2.4,45.23,45.23,0,0,1,12.5,6.6,50.41,50.41,0,0,1,10,10.1,55.17,55.17,0,0,1,4.3,6.8,4.09,4.09,0,0,1-3.6,6h-8.9a4.06,4.06,0,0,1-3.5-2,29,29,0,0,0-9.8-9.6,29.81,29.81,0,0,0-15.5-4.2,28.57,28.57,0,0,0-11.5,2.4,32.1,32.1,0,0,0-9.7,6.4,29.64,29.64,0,0,0-6.7,9.6,28.23,28.23,0,0,0-2.5,11.9,28.77,28.77,0,0,0,2.3,11.2,28,28,0,0,0,6.4,9.5,33.66,33.66,0,0,0,9.5,6.6,28.54,28.54,0,0,0,11.7,2.5,31.63,31.63,0,0,0,25.4-13.3,4,4,0,0,1,3.3-1.7Z" transform="translate(-2.39 -2.02)" style="fill:#fff"/><path d="M318.17,123.42a44.08,44.08,0,0,1-18.1-3.7,49.38,49.38,0,0,1-14.9-10A47,47,0,0,1,275.07,95a45.39,45.39,0,0,1,0-35.9,47,47,0,0,1,10.1-14.7,49.38,49.38,0,0,1,14.9-10,45.88,45.88,0,0,1,36.1,0,47.71,47.71,0,0,1,14.8,10,48.45,48.45,0,0,1,10,14.7A45.39,45.39,0,0,1,361,95a48.45,48.45,0,0,1-10,14.7,47.71,47.71,0,0,1-14.8,10A44.29,44.29,0,0,1,318.17,123.42Zm0-76.2a29.77,29.77,0,0,0-11.9,2.4,30.92,30.92,0,0,0-9.7,6.4,32.3,32.3,0,0,0-6.6,9.5,28.54,28.54,0,0,0-2.5,11.7,27,27,0,0,0,2.5,11.7,30,30,0,0,0,6.6,9.5,31.18,31.18,0,0,0,9.7,6.5,29.77,29.77,0,0,0,11.9,2.4,30.15,30.15,0,0,0,21.4-8.9,31.45,31.45,0,0,0,6.5-9.5,29.72,29.72,0,0,0,0-23.4,29.75,29.75,0,0,0-6.5-9.5,31.63,31.63,0,0,0-9.6-6.4A29.29,29.29,0,0,0,318.17,47.22Z" transform="translate(-2.39 -2.02)" style="fill:#fff"/><path d="M752.84,82.21a10.25,10.25,0,0,0,9.78-7.83,28.22,28.22,0,0,0-1.24-15.24,41.51,41.51,0,0,0-10-14.72,47.66,47.66,0,0,0-14.83-10,44.82,44.82,0,0,0-18-3.71,45.39,45.39,0,0,0-18.22,3.71,48,48,0,0,0-14.93,10,46.75,46.75,0,0,0-10.09,14.72,45.62,45.62,0,0,0,0,36A47.44,47.44,0,0,0,685.4,109.9a49,49,0,0,0,14.93,10,46.1,46.1,0,0,0,36.24,0,47.49,47.49,0,0,0,14.83-10,48.32,48.32,0,0,0,10-14.72h0c.52-1.24-.1-2.27-1.75-2.68,0,0-12.76-2.67-16.26,2.06a31.23,31.23,0,0,1-3.3,4,29.51,29.51,0,0,1-9.68,6.48,30.26,30.26,0,0,1-11.84,2.37,30.76,30.76,0,0,1-11.94-2.37,29.94,29.94,0,0,1-9.78-6.48A32.24,32.24,0,0,1,690.24,89a25,25,0,0,1-2-6.18h0a7.88,7.88,0,0,0,2.27.31Zm-62.5-17h0A32.59,32.59,0,0,1,696.72,56a30.34,30.34,0,0,1,9.78-6.38,30.85,30.85,0,0,1,12-2.37,30.3,30.3,0,0,1,11.84,2.37A30.88,30.88,0,0,1,740,56a35.43,35.43,0,0,1,6.59,9.27" transform="translate(-2.39 -2.02)" style="fill:#fff"/><path d="M667.2,107.52a1.76,1.76,0,0,0-2-.8c-3.6,1.1-13.2,3.9-17-2.2a6.23,6.23,0,0,1-1.3-4.4v-93A5.12,5.12,0,0,0,641.8,2h-8.9a4.06,4.06,0,0,0-4.1,4.1v28a4.06,4.06,0,0,1-4.1,4.1H613a4.06,4.06,0,0,0-4.1,4.1v8a4.06,4.06,0,0,0,4.1,4.1h14.2a1.69,1.69,0,0,1,1.7,1.7s.6,35.3.6,47.8c0,13.1,11.1,17.8,17,19.2a29.3,29.3,0,0,0,10.6.8,34.59,34.59,0,0,0,9.8-2.3,6.37,6.37,0,0,0,3.1-9Z" transform="translate(-2.39 -2.02)" style="fill:#fff"/><path d="M597.4,123.72H585.3a2.9,2.9,0,0,1-2.9-2.9V43.42a2.9,2.9,0,0,1,2.9-2.9h12.1a2.9,2.9,0,0,1,2.9,2.9v77.3A2.93,2.93,0,0,1,597.4,123.72Z" transform="translate(-2.39 -2.02)" style="fill:#fff"/><path d="M461.46,40.82h-8.6a3.55,3.55,0,0,0-3.3,2.4,46.67,46.67,0,0,0-13.3-8.8,42.1,42.1,0,0,0-17.6-3.7,43,43,0,0,0-17.8,3.7,49.24,49.24,0,0,0-14.6,10,46.45,46.45,0,0,0-9.9,14.7,45.21,45.21,0,0,0-3.6,18,44.59,44.59,0,0,0,3.6,17.8,46.45,46.45,0,0,0,9.9,14.7,48,48,0,0,0,14.6,10,44.19,44.19,0,0,0,35.4,0,46.47,46.47,0,0,0,13.1-8.6v22.6c0,10.9-8.4,20.3-19.3,20.9h-1.2c-11.4,0-20.7-8.5-20.7-19v-.4a4.53,4.53,0,0,0-4.5-4.7h-7.2a2.83,2.83,0,0,0-2.8,2.6,35.33,35.33,0,0,0,35.2,37.8c15.4,0,24.3-7.5,29.3-15.2a38.86,38.86,0,0,0,6-21V77.12h0V43.52A2.69,2.69,0,0,0,461.46,40.82ZM418.56,109a31.1,31.1,0,1,1,31.1-31.1A31.07,31.07,0,0,1,418.56,109Z" transform="translate(-2.39 -2.02)" style="fill:#fff"/><path d="M561.9,40.82h-8.6a3.55,3.55,0,0,0-3.3,2.4,46.67,46.67,0,0,0-13.3-8.8,42.1,42.1,0,0,0-17.6-3.7,43,43,0,0,0-17.8,3.7,49.24,49.24,0,0,0-14.6,10,46.45,46.45,0,0,0-9.9,14.7,45.21,45.21,0,0,0-3.6,18,44.59,44.59,0,0,0,3.6,17.8,46.45,46.45,0,0,0,9.9,14.7,48,48,0,0,0,14.6,10,44.19,44.19,0,0,0,35.4,0,46.47,46.47,0,0,0,13.1-8.6v22.6c0,10.9-8.4,20.3-19.3,20.9h-1.2c-11.4,0-20.7-8.5-20.7-19v-.4a4.53,4.53,0,0,0-4.5-4.7h-7.2a2.83,2.83,0,0,0-2.8,2.6,35.33,35.33,0,0,0,35.2,37.8c15.4,0,24.3-7.5,29.3-15.2a38.86,38.86,0,0,0,6-21V77.12h0V43.52A2.69,2.69,0,0,0,561.9,40.82ZM519,109a31.1,31.1,0,1,1,31.1-31.1A31.07,31.07,0,0,1,519,109Z" transform="translate(-2.39 -2.02)" style="fill:#fff"/><path d="M176.7,227.46l3.3-4a.91.91,0,0,1,1.2-.1,17.08,17.08,0,0,0,11.1,4.1c3.8,0,5.8-1.8,5.8-4,0-2.5-2.1-3.3-7.5-4.6-7.5-1.7-12.8-3.8-12.8-10.7,0-6.6,5.4-11.1,13.1-11.1a20.47,20.47,0,0,1,13.3,4.4.79.79,0,0,1,.1,1.1l-3,4.2a.93.93,0,0,1-1.2.2,16.24,16.24,0,0,0-9.5-3.4c-3.3,0-5.2,1.7-5.2,3.8,0,2.6,2.1,3.4,7.6,4.7,7.7,1.7,12.7,4,12.7,10.5,0,6.8-5.1,11.3-13.8,11.3a23,23,0,0,1-15.2-5.4A.76.76,0,0,1,176.7,227.46Z" transform="translate(-2.39 -2.02)" style="fill:#fff"/><path d="M247.7,218.26v14.2a.79.79,0,0,1-.8.8h-5.6a.79.79,0,0,1-.8-.8h0a.83.83,0,0,0-1.3-.7,10.75,10.75,0,0,1-6.5,2.1c-5.7,0-10.1-3.4-10.1-8.5,0-5.3,4.9-8.9,11.1-8.9a20.47,20.47,0,0,1,6.8,1.3v-.5c0-2.8-1.8-5.3-6.2-5.3a13.3,13.3,0,0,0-6.2,1.6.84.84,0,0,1-1.1-.4l-1.8-3.5a.84.84,0,0,1,.4-1.1,26,26,0,0,1,9.5-2.6A12.11,12.11,0,0,1,247.7,218.26Zm-7.3,6.4v-1.8a.76.76,0,0,0-.6-.8,17.18,17.18,0,0,0-5.2-.8c-2.7,0-4.9,1.6-4.9,3.8s1.9,3.5,4.5,3.5c2.9,0,5.6-1.3,6.1-3.7C240.4,224.86,240.4,224.76,240.4,224.66Z" transform="translate(-2.39 -2.02)" style="fill:#fff"/><path d="M267.8,197.76h5.9a.79.79,0,0,1,.8.8v34.5a.79.79,0,0,1-.8.8h-5.9a.79.79,0,0,1-.8-.8v-34.5A.79.79,0,0,1,267.8,197.76Z" transform="translate(-2.39 -2.02)" style="fill:#fff"/><path d="M317.7,218.26v14.2a.79.79,0,0,1-.8.8h-5.6a.79.79,0,0,1-.8-.8h0a.83.83,0,0,0-1.3-.7,10.75,10.75,0,0,1-6.5,2.1c-5.7,0-10.1-3.4-10.1-8.5,0-5.3,4.9-8.9,11.1-8.9a20.47,20.47,0,0,1,6.8,1.3v-.5c0-2.8-1.8-5.3-6.2-5.3a13.3,13.3,0,0,0-6.2,1.6.84.84,0,0,1-1.1-.4l-1.8-3.5a.84.84,0,0,1,.4-1.1,26,26,0,0,1,9.5-2.6A12.11,12.11,0,0,1,317.7,218.26Zm-7.3,6.4v-1.8a.76.76,0,0,0-.6-.8,17.18,17.18,0,0,0-5.2-.8c-2.7,0-4.9,1.6-4.9,3.8s1.9,3.5,4.5,3.5c2.9,0,5.6-1.3,6.1-3.7C310.4,224.86,310.4,224.76,310.4,224.66Z" transform="translate(-2.39 -2.02)" style="fill:#fff"/><path d="M391.8,197.86v34.5a.79.79,0,0,1-.8.8h-5.9a.79.79,0,0,1-.8-.8v-.8a.84.84,0,0,0-1.4-.6,10.74,10.74,0,0,1-7.6,2.9c-7.1,0-12.3-5.8-12.3-14s5.2-14,12.3-14a11.2,11.2,0,0,1,7.6,2.9.84.84,0,0,0,1.4-.6v-10.3a.79.79,0,0,1,.8-.8H391A.79.79,0,0,1,391.8,197.86Zm-7.5,22c0-4.4-2.8-7.6-6.8-7.6-4.2,0-7.1,3.2-7.1,7.6s2.9,7.7,7.1,7.7C381.4,227.46,384.3,224.36,384.3,219.86Z" transform="translate(-2.39 -2.02)" style="fill:#fff"/><path d="M430.7,225.36l3.7,3.8a.82.82,0,0,1-.1,1.2,17.27,17.27,0,0,1-10.3,3.5c-8,0-14.2-5.8-14.2-14.1a13.42,13.42,0,0,1,13.8-13.9c8.1,0,13,6,13.3,15.6a.79.79,0,0,1-.8.8H418.9a.88.88,0,0,0-.8,1.2,6.46,6.46,0,0,0,5.9,3.7,10.18,10.18,0,0,0,5.6-1.9A.91.91,0,0,1,430.7,225.36Zm-11.6-8.5h9.4a.88.88,0,0,0,.8-1.2,5.41,5.41,0,0,0-5.3-3.2,6.3,6.3,0,0,0-5.6,3.1A.81.81,0,0,0,419.1,216.86Z" transform="translate(-2.39 -2.02)" style="fill:#fff"/><path d="M490.2,206.26v5.4a.79.79,0,0,0,.8.8h16.2a.79.79,0,0,1,.8.8v5.2a.79.79,0,0,1-.8.8H491a.79.79,0,0,0-.8.8v6.2a.79.79,0,0,0,.8.8h18.1a.79.79,0,0,1,.8.8v5.2a.79.79,0,0,1-.8.8H483.4a.79.79,0,0,1-.8-.8v-33.6a.79.79,0,0,1,.8-.8h25.7a.79.79,0,0,1,.8.8v5.2a.79.79,0,0,1-.8.8H491A.86.86,0,0,0,490.2,206.26Z" transform="translate(-2.39 -2.02)" style="fill:#fff"/><path d="M526.8,229.26l2.4-3.9a.82.82,0,0,1,1.2-.2,14.73,14.73,0,0,0,8.2,2.5c2,0,3.5-.8,3.5-2,0-1.7-2-2.2-4.7-2.9-5.5-1.3-9.7-2.8-9.8-8.1-.1-5.1,4.1-8.7,10.4-8.7a20,20,0,0,1,9.9,2.9.8.8,0,0,1,.3,1.1l-2.3,4a.8.8,0,0,1-1.1.3,15.45,15.45,0,0,0-6.8-2c-1.9,0-3.2.7-3.2,1.6,0,1.4,1.1,1.9,4.7,2.8,4.6,1.2,9.7,2.7,9.7,8.6,0,5.3-4.3,8.6-10.9,8.6a19.79,19.79,0,0,1-11.4-3.6C526.6,230.16,526.6,229.66,526.8,229.26Z" transform="translate(-2.39 -2.02)" style="fill:#fff"/><path d="M583,231a1,1,0,0,1-.2.9,9.61,9.61,0,0,1-5.7,2c-4.7,0-8-3.4-8-8.2v-12.3a.79.79,0,0,0-.8-.8h-2a.79.79,0,0,1-.8-.8v-4.5a.79.79,0,0,1,.8-.8h2a.79.79,0,0,0,.8-.8V200a.79.79,0,0,1,.8-.8h5.6a.79.79,0,0,1,.8.8v5.7a.79.79,0,0,0,.8.8h4.1a.79.79,0,0,1,.8.8v4.5a.79.79,0,0,1-.8.8h-4.1a.79.79,0,0,0-.8.8v11.1c0,1.8,1.1,3,2.5,3a3.42,3.42,0,0,0,1.8-.4.81.81,0,0,1,1.1.5Z" transform="translate(-2.39 -2.02)" style="fill:#fff"/><path d="M626.1,207.26v25.1a.79.79,0,0,1-.8.8h-5.9a.79.79,0,0,1-.8-.8v-.3a.83.83,0,0,0-1.4-.6,10,10,0,0,1-6.7,2.4c-5.8,0-9.9-4.3-9.9-10.3v-16.2a.79.79,0,0,1,.8-.8H607a.79.79,0,0,1,.8.8V222c0,3.3,2.1,5.6,5.1,5.6a5.33,5.33,0,0,0,5.6-5.2l.1.2v-15.2a.79.79,0,0,1,.8-.8h5.9C625.7,206.36,626.1,206.76,626.1,207.26Z" transform="translate(-2.39 -2.02)" style="fill:#fff"/><path d="M673,197.86v34.5a.79.79,0,0,1-.8.8h-5.9a.79.79,0,0,1-.8-.8v-.8a.84.84,0,0,0-1.4-.6,10.74,10.74,0,0,1-7.6,2.9c-7.1,0-12.3-5.8-12.3-14s5.2-14,12.3-14a11.2,11.2,0,0,1,7.6,2.9.84.84,0,0,0,1.4-.6v-10.3a.79.79,0,0,1,.8-.8h5.9A.86.86,0,0,1,673,197.86Zm-7.6,22c0-4.4-2.8-7.6-6.8-7.6-4.2,0-7.1,3.2-7.1,7.6s2.9,7.7,7.1,7.7C662.6,227.46,665.4,224.36,665.4,219.86Z" transform="translate(-2.39 -2.02)" style="fill:#fff"/><path d="M691,219.86c0-7.6,6.7-14,14.6-14s14.5,6.4,14.5,14-6.6,14-14.5,14S691,227.46,691,219.86Zm22,0a7.35,7.35,0,1,0-14.7,0,7.36,7.36,0,1,0,14.7,0Z" transform="translate(-2.39 -2.02)" style="fill:#fff"/><path d="M736.6,229.26l2.4-3.9a.82.82,0,0,1,1.2-.2,14.73,14.73,0,0,0,8.2,2.5c2,0,3.5-.8,3.5-2,0-1.7-2-2.2-4.7-2.9-5.5-1.3-9.7-2.8-9.8-8.1-.1-5.1,4.1-8.7,10.4-8.7a20,20,0,0,1,9.9,2.9.8.8,0,0,1,.3,1.1l-2.3,4a.8.8,0,0,1-1.1.3,15.45,15.45,0,0,0-6.8-2c-1.9,0-3.2.7-3.2,1.6,0,1.4,1.1,1.9,4.7,2.8,4.6,1.2,9.7,2.7,9.7,8.6,0,5.3-4.3,8.6-10.9,8.6a19.79,19.79,0,0,1-11.4-3.6C736.5,230.16,736.4,229.66,736.6,229.26Z" transform="translate(-2.39 -2.02)" style="fill:#fff"/></svg>