<svg id="Capa_1" data-name="Capa 1" xmlns="http://www.w3.org/2000/svg" viewBox="0 0 463 463"><title>telephone</title><path d="M314.36,874c-8.46-8.35-19-8.35-27.42,0-6.42,6.35-12.83,12.71-19.13,19.18-1.72,1.77-3.18,2.15-5.28,1-4.15-2.27-8.56-4.1-12.55-6.58C231.39,875.91,215.82,860.88,202,844c-6.84-8.41-12.93-17.4-17.18-27.53a3.94,3.94,0,0,1,1-5.07c6.41-6.19,12.66-12.55,19-18.91,8.78-8.83,8.78-19.17-.05-28.06-5-5.07-10-10-15-15.09-5.18-5.17-10.29-10.39-15.52-15.51-8.46-8.24-19-8.24-27.42.05-6.47,6.36-12.66,12.88-19.23,19.13A31.22,31.22,0,0,0,117.72,774c-1,13.41,2.26,26.07,6.9,38.41,9.48,25.54,23.92,48.22,41.43,69A256.4,256.4,0,0,0,251,947.89c14.87,7.22,30.27,12.76,47,13.68,11.53.65,21.55-2.26,29.58-11.26,5.49-6.14,11.69-11.74,17.5-17.62,8.62-8.72,8.68-19.28.11-27.9Q329.83,889.36,314.36,874Z" transform="translate(-16.57 -600.88)"/><path d="M304.07,831.09,324,827.7a89.25,89.25,0,0,0-75.48-73.22l-2.8,20a69,69,0,0,1,58.4,56.62Z" transform="translate(-16.57 -600.88)"/><path d="M251.11,702.77l-2.8,20A127.93,127.93,0,0,1,356.54,827.64l19.88-3.39A148.17,148.17,0,0,0,251.11,702.77Z" transform="translate(-16.57 -600.88)"/><path d="M248.07,600.88c-127.85,0-231.5,103.65-231.5,231.5s103.65,231.5,231.5,231.5,231.5-103.64,231.5-231.5S375.93,600.88,248.07,600.88ZM247,1049.09C127.2,1049.09,30.1,952,30.1,832.21S127.2,615.34,247,615.34s216.87,97.1,216.87,216.87S366.75,1049.09,247,1049.09Z" transform="translate(-16.57 -600.88)"/></svg>