<svg xmlns="http://www.w3.org/2000/svg" viewBox="0 0 25.034 25.035">
  <defs>
    <style>
      .cls-1 {
        fill: #fff;
      }
    </style>
  </defs>
  <g id="smartphone" transform="translate(-0.001)">
    <path id="Path_103" data-name="Path 103" class="cls-1" d="M25.348,0H14.838A1.841,1.841,0,0,0,13,1.838V23.2a1.841,1.841,0,0,0,1.838,1.838h10.51A1.841,1.841,0,0,0,27.186,23.2V1.838A1.841,1.841,0,0,0,25.348,0ZM13.834,3.338H26.352V19.193H13.834Zm1-2.5h10.51a1,1,0,0,1,1,1V2.5H13.834V1.838A1,1,0,0,1,14.838.834ZM25.348,24.2H14.838a1,1,0,0,1-1-1V20.028H26.352V23.2A1,1,0,0,1,25.348,24.2Z" transform="translate(-7.575)"/>
    <path id="Path_104" data-name="Path 104" class="cls-1" d="M27.669,49a1.669,1.669,0,1,0,1.669,1.669A1.671,1.671,0,0,0,27.669,49Zm0,2.5a.834.834,0,1,1,.834-.834A.835.835,0,0,1,27.669,51.5Z" transform="translate(-15.151 -28.555)"/>
    <path id="Path_105" data-name="Path 105" class="cls-1" d="M25.417,3.834h1.669a.417.417,0,0,0,0-.834H25.417a.417.417,0,0,0,0,.834Z" transform="translate(-14.568 -1.748)"/>
    <path id="Path_106" data-name="Path 106" class="cls-1" d="M32.417,3.834h.417a.417.417,0,0,0,0-.834h-.417a.417.417,0,0,0,0,.834Z" transform="translate(-18.648 -1.748)"/>
    <path id="Path_107" data-name="Path 107" class="cls-1" d="M55.617,4.4a.417.417,0,0,0-.59.59,4,4,0,0,1,0,5.654.417.417,0,1,0,.59.59A4.838,4.838,0,0,0,55.617,4.4Z" transform="translate(-31.995 -2.492)"/>
    <path id="Path_108" data-name="Path 108" class="cls-1" d="M51.406,6.674a.417.417,0,0,0-.59.59,2.74,2.74,0,0,1,0,3.871.417.417,0,1,0,.59.59,3.574,3.574,0,0,0,0-5.051Z" transform="translate(-29.541 -3.818)"/>
    <path id="Path_109" data-name="Path 109" class="cls-1" d="M2,4.988a.417.417,0,0,0-.59-.59,4.838,4.838,0,0,0,0,6.834.417.417,0,0,0,.59-.59A4,4,0,0,1,2,4.988Z" transform="translate(0 -2.492)"/>
    <path id="Path_110" data-name="Path 110" class="cls-1" d="M6.73,6.4a.417.417,0,0,0-.59,0,3.574,3.574,0,0,0,0,5.051.417.417,0,0,0,.59-.59,2.74,2.74,0,0,1,0-3.871A.418.418,0,0,0,6.73,6.4Z" transform="translate(-2.969 -3.657)"/>
  </g>
</svg>
