<?xml version="1.0" encoding="utf-8"?>
<!-- Generator: Adobe Illustrator 22.1.0, SVG Export Plug-In . SVG Version: 6.00 Build 0)  -->
<svg version="1.1" id="Layer_1" xmlns="http://www.w3.org/2000/svg" xmlns:xlink="http://www.w3.org/1999/xlink" x="0px" y="0px"
	 viewBox="0 0 332.1 520.3" style="enable-background:new 0 0 332.1 520.3;" xml:space="preserve">
<style type="text/css">
	.st0{clip-path:url(#SVGID_2_);}
	.st1{fill:url(#SVGID_3_);}
	.st2{fill:url(#SVGID_4_);}
	.st3{fill:url(#SVGID_5_);}
</style>
<title>secondleft</title>
<g>
	<defs>
		<rect id="SVGID_1_" y="-56.1" width="394" height="591"/>
	</defs>
	<clipPath id="SVGID_2_">
		<use xlink:href="#SVGID_1_"  style="overflow:visible;"/>
	</clipPath>
	<g class="st0">
		
			<linearGradient id="SVGID_3_" gradientUnits="userSpaceOnUse" x1="-657.538" y1="25.3221" x2="-657.738" y2="25.5921" gradientTransform="matrix(-585.87 -135.34 139.08 -602.05 -388759.5625 -73454.8906)">
			<stop  offset="0" style="stop-color:#1CBCB7"/>
			<stop  offset="1" style="stop-color:#48E9E5"/>
		</linearGradient>
		<path class="st1" d="M-309.3,286.8c6.2,10,19.2,13.1,29.2,6.9c0,0,0,0,0.1,0l0.1-0.1l54-33.8c9.9-6.2,23-3.3,29.3,6.7l0.1,0.1
			c6.2,9.9,3.3,23-6.7,29.3l-0.1,0.1l-106.5,66.5c-9.8,6.4-12.6,19.6-6.2,29.5c6.2,9.6,18.9,12.5,28.8,6.6l51.9-32.4
			c10.1-6,23.2-2.7,29.2,7.3c0,0,0,0,0,0c5.9,9.8,2.9,22.5-6.6,28.8l-11.6,7.2l-126.8,79.2c-10.1,6-13.4,19.1-7.4,29.2c0,0,0,0,0,0
			c6,10.1,19.1,13.4,29.2,7.3c0.2-0.1,0.5-0.3,0.7-0.4l127-79.1l75.1-46.9c9.9-6.2,23-3.3,29.3,6.7l0.1,0.1c6.2,9.9,3.3,23-6.7,29.3
			l-0.1,0.1l-75.1,46.9c-9.8,6.4-12.6,19.6-6.2,29.5c6.2,9.6,18.9,12.5,28.8,6.6l123.4-77c10.1-6,23.2-2.8,29.2,7.3
			c5.9,9.8,2.9,22.5-6.6,28.8l-21.1,13.2c-9.8,6.4-12.6,19.6-6.2,29.5c6.3,9.6,19,12.5,28.8,6.6l241.4-150.8
			c9.9-6.3,12.8-19.5,6.5-29.4c-6.2-9.8-19.2-12.8-29.1-6.7l-35,21.9c-10,6.1-23.1,3-29.3-7.1c-6-9.9-3.1-22.8,6.7-29l157-97.7
			c9.9-6.4,12.6-19.6,6.2-29.5c-6.2-9.6-19-12.5-28.8-6.7l-89.9,56.1c-9.9,6.2-23,3.3-29.3-6.7l-0.1-0.1c-6.2-9.9-3.3-23,6.6-29.3
			l0.1-0.1l89.9-56.1l58-36.2c10-6.2,13-19.3,6.8-29.2c0,0,0,0,0,0l-0.1-0.1c-6.2-10-19.3-13-29.2-6.9c0,0,0,0,0,0l-0.1,0.1
			l-58,36.2l-114.9,71.8c-9.7,6.7-22.9,4.2-29.6-5.5c-6.7-9.7-4.2-22.9,5.5-29.6c0.3-0.2,0.6-0.4,0.9-0.6c0.2-0.2,0.5-0.3,0.7-0.4
			l21.1-13.2c9.9-6.3,12.8-19.5,6.5-29.4c-6.2-9.8-19.2-12.8-29.1-6.7l-27.7,17.3l-35.1,21.9c-8.3,5.1-18.9,4.1-26-2.6l-0.9-1.1
			l-2.6-3.3c-6-10-2.9-22.9,6.9-29.1l63-39.3l47-29.5c10-6.2,13-19.4,6.8-29.4c-6.2-10-19.4-13-29.4-6.8l-47,29.5l-118.1,73.8
			l-35.3,22.1l-88,55l-118.1,73.8c-10,5.5-13.6,18.1-8.1,28.1C-309.7,286.1-309.5,286.5-309.3,286.8L-309.3,286.8z"/>
		
			<linearGradient id="SVGID_4_" gradientUnits="userSpaceOnUse" x1="-650.6052" y1="25.533" x2="-650.6052" y2="26.533" gradientTransform="matrix(46 0 0 46 30100.8398 -1115.7765)">
			<stop  offset="0" style="stop-color:#49317D"/>
			<stop  offset="1" style="stop-color:#6052C5"/>
		</linearGradient>
		<path class="st2" d="M173,58.9c12.7,0,23,10.3,23,23s-10.3,23-23,23s-23-10.3-23-23S160.3,58.9,173,58.9L173,58.9z"/>
		
			<linearGradient id="SVGID_5_" gradientUnits="userSpaceOnUse" x1="-653.8814" y1="29.5946" x2="-653.8814" y2="30.5948" gradientTransform="matrix(65.82 -38 18.5 32.04 42763.0859 -25489.2813)">
			<stop  offset="0" style="stop-color:#49317D"/>
			<stop  offset="1" style="stop-color:#463D87"/>
		</linearGradient>
		<path class="st3" d="M254.6,315.2l33.8-19.5c8.6-5.5,20-3,25.6,5.6c5.5,8.6,3,20-5.6,25.6c-0.5,0.3-0.9,0.6-1.4,0.8l-33.8,19.5
			c-8.6,5.5-20,3-25.6-5.6c-5.5-8.6-3-20,5.6-25.6C253.7,315.7,254.1,315.4,254.6,315.2L254.6,315.2z"/>
	</g>
</g>
</svg>
