<?xml version="1.0" encoding="utf-8"?>
<!-- Generator: Adobe Illustrator 22.1.0, SVG Export Plug-In . SVG Version: 6.00 Build 0)  -->
<svg version="1.1" id="Layer_1" xmlns="http://www.w3.org/2000/svg" xmlns:xlink="http://www.w3.org/1999/xlink" x="0px" y="0px"
	 viewBox="0 0 300.4 478.9" style="enable-background:new 0 0 300.4 478.9;" xml:space="preserve">
<style type="text/css">
	.st0{clip-path:url(#SVGID_2_);}
	.st1{fill:url(#SVGID_3_);}
	.st2{fill:url(#SVGID_4_);}
	.st3{fill:url(#SVGID_5_);}
</style>
<title>secondright</title>
<g>
	<defs>
		<rect id="SVGID_1_" x="-71.6" y="-79.8" width="372" height="605"/>
	</defs>
	<clipPath id="SVGID_2_">
		<use xlink:href="#SVGID_1_"  style="overflow:visible;"/>
	</clipPath>
	<g class="st0">
		
			<linearGradient id="SVGID_3_" gradientUnits="userSpaceOnUse" x1="-364.0188" y1="-1.1857" x2="-364.2288" y2="-0.9157" gradientTransform="matrix(575.22 175.86 -180.72 591.12 209528.2188 64912.7266)">
			<stop  offset="0" style="stop-color:#49317D"/>
			<stop  offset="1" style="stop-color:#5549AE"/>
		</linearGradient>
		<path class="st1" d="M653,222.7c-5.5-10.4-18.3-14.3-28.7-8.8l-0.1,0.1l-56.3,29.9c-10.3,5.5-23.2,1.6-28.7-8.7c0,0,0,0,0,0
			l-0.1-0.1c-5.5-10.3-1.6-23.2,8.7-28.7l0.1-0.1l110.9-59c10.3-5.6,14.1-18.6,8.5-28.9c-5.6-10.2-18.2-14-28.5-8.7l-54.1,28.8
			c-10.5,5.3-23.3,1-28.6-9.5c-5.1-10.2-1.3-22.5,8.6-28.1l12.1-6.4l132-70.2c10.5-5.3,14.7-18.1,9.4-28.6s-18.1-14.7-28.6-9.4l0,0
			l-0.7,0.4L556.6,56.7l-78.2,41.6c-10.3,5.5-23.2,1.7-28.7-8.7l-0.1-0.1c-5.5-10.3-1.7-23.2,8.7-28.7c0,0,0,0,0,0l0.1-0.1
			l78.2-41.6c10.3-5.6,14.1-18.6,8.5-28.9c-5.6-10.2-18.2-14-28.5-8.7L388.2,49.8c-10.5,5.4-23.3,1.3-28.7-9.1
			c-5.3-10.3-1.4-22.9,8.7-28.5l22-11.7c10.3-5.7,14-18.7,8.2-29c-5.6-10-18.1-13.8-28.3-8.6L118.7,96.6
			c-10.3,5.6-14.1,18.6-8.5,28.9c5.6,10.2,18.2,14,28.5,8.7l36.5-19.4c10.5-5.3,23.3-1,28.6,9.5c5.1,10.2,1.3,22.5-8.6,28.1
			L31.7,239c-10.3,5.6-14.1,18.6-8.5,28.9c5.6,10.2,18.2,14,28.5,8.7l93.6-49.8c10.3-5.5,23.2-1.6,28.7,8.7c0,0,0,0,0,0l0.1,0.1
			c5.5,10.3,1.6,23.2-8.7,28.7c0,0,0,0,0,0l-0.1,0.1l-93.6,49.8l-60.4,32.1C0.9,351.8-3,364.6,2.4,375c0,0,0,0,0,0l0.1,0.1
			c5.5,10.4,18.3,14.3,28.7,8.9l0.1-0.1l60.4-32.1l119.8-63.6c10.4-5.6,23.3-1.7,28.8,8.7c5.4,10.1,1.9,22.8-8.1,28.5
			c-0.2,0.1-0.5,0.3-0.7,0.4l-22,11.7c-10.3,5.6-14.1,18.6-8.5,28.9c5.6,10.2,18.2,14,28.5,8.7l28.8-15.3l36.5-19.4
			c8.6-4.6,19.2-2.7,25.8,4.4l0.8,1.2l2.4,3.5c5.3,10.4,1.3,23-9,28.5l-65.6,34.9L200.2,439c-10.3,5.6-14.1,18.6-8.5,28.9
			c5.6,10.2,18.2,14,28.5,8.7l48.9-26.2l123-65.4l36.8-19.6l91.7-48.8l123-65.4c10.3-4.8,14.8-17.1,10-27.5c0,0,0,0,0,0
			C653.4,223.5,653.2,223.1,653,222.7L653,222.7z"/>
		
			<linearGradient id="SVGID_4_" gradientUnits="userSpaceOnUse" x1="-370.9092" y1="-1.8866" x2="-370.9092" y2="-0.8866" gradientTransform="matrix(-45.91 -3.22 3.22 -45.91 -16866.6875 -863.46)">
			<stop  offset="0" style="stop-color:#1CBCB7"/>
			<stop  offset="1" style="stop-color:#48E9E5"/>
		</linearGradient>
		<circle class="st2" cx="157.4" cy="393.4" r="23"/>
		
			<linearGradient id="SVGID_5_" gradientUnits="userSpaceOnUse" x1="-367.7589" y1="-5.8977" x2="-367.7589" y2="-4.8974" gradientTransform="matrix(-68.32 33.29 -16.21 -33.26 -25146.9453 12208.5596)">
			<stop  offset="0" style="stop-color:#3E4D8F"/>
			<stop  offset="1" style="stop-color:#2F5E95"/>
		</linearGradient>
		<path class="st3" d="M92.2,155l-35.1,17.1c-9.2,4.5-20.3,0.6-24.7-8.5c-4.5-9.2-0.7-20.3,8.5-24.7L76,121.7
			c9.2-4.5,20.3-0.7,24.7,8.5C105.2,139.4,101.4,150.5,92.2,155z"/>
	</g>
</g>
</svg>
