<svg id="Layer_1" data-name="Layer 1" xmlns="http://www.w3.org/2000/svg" xmlns:xlink="http://www.w3.org/1999/xlink" viewBox="0 0 693.6 528.73"><defs><clipPath id="clip-path" transform="translate(361.54 -1.32)"><rect y="-55.28" width="394" height="591" style="fill:none"/></clipPath><linearGradient id="linear-gradient" x1="-222.87" y1="537.43" x2="-223.07" y2="537.16" gradientTransform="matrix(-585.87, -135.34, -139.08, 602.05, -55831.77, -353429.47)" gradientUnits="userSpaceOnUse"><stop offset="0" stop-color="#1cbcb7"/><stop offset="1" stop-color="#48e9e5"/></linearGradient><linearGradient id="linear-gradient-2" x1="-217.65" y1="537.96" x2="-217.65" y2="536.96" gradientTransform="matrix(46, 0, 0, -46, 10185, 24805.72)" gradientUnits="userSpaceOnUse"><stop offset="0" stop-color="#49317d"/><stop offset="1" stop-color="#6052c5"/></linearGradient><linearGradient id="linear-gradient-3" x1="-219.97" y1="534.94" x2="-219.97" y2="533.94" gradientTransform="matrix(65.82, -38, -18.5, -32.04, 24646.01, 9088.39)" gradientUnits="userSpaceOnUse"><stop offset="0" stop-color="#49317d"/><stop offset="1" stop-color="#463d87"/></linearGradient></defs><title>secondleft</title><g style="clip-path:url(#clip-path)"><g id="forma_1" data-name="forma 1"><path id="Path_78" data-name="Path 78" d="M-309.27,287.64h0A21.22,21.22,0,0,0-280,294.49l.11-.07,54-33.75a21.23,21.23,0,0,1,29.27,6.66l.07.11h0a21.23,21.23,0,0,1-6.67,29.27l-.11.07L-309.83,363.3A21.29,21.29,0,0,0-316,392.76a21.3,21.3,0,0,0,28.76,6.65L-235.35,367a21.29,21.29,0,0,1,29.2,7.35,21.29,21.29,0,0,1-6.64,28.76l-11.6,7.24-126.78,79.2a21.29,21.29,0,0,0-7.35,29.21,21.29,21.29,0,0,0,29.2,7.34c.24-.14.47-.28.7-.44l127-79.15,75.12-46.92a21.22,21.22,0,0,1,29.26,6.66l.07.11h0a21.23,21.23,0,0,1-6.66,29.27l-.12.07-75.12,46.92a21.3,21.3,0,0,0-6.2,29.47,21.29,21.29,0,0,0,28.76,6.64l123.36-77.05A21.29,21.29,0,0,1-3.95,449a21.29,21.29,0,0,1-6.64,28.76l-21.09,13.17a21.29,21.29,0,0,0-6.2,29.46A21.29,21.29,0,0,0-9.12,527L232.32,376.22a21.29,21.29,0,0,0-22.56-36.11l-35,21.89a21.29,21.29,0,0,1-22.56-36.11l157-97.7a21.29,21.29,0,0,0-22.55-36.11L196.7,248.22a21.22,21.22,0,0,1-29.26-6.66l-.07-.11h0A21.23,21.23,0,0,1,174,212.18l.11-.07L264,156l58-36.23a21.22,21.22,0,0,0,6.84-29.22l-.07-.11h0a21.22,21.22,0,0,0-29.22-6.85l-.11.07-58,36.23L126.55,191.65A21.29,21.29,0,1,1,103.29,156c.23-.16.46-.3.7-.45l21.09-13.17a21.29,21.29,0,0,0-22.56-36.11L74.85,123.54l-35.06,21.9a21.36,21.36,0,0,1-26-2.62l-.87-1.11-2.62-3.31a21.35,21.35,0,0,1,6.94-29.07L80.22,70l47-29.53A21.29,21.29,0,0,0,104.63,4.34l-47,29.53L-60.42,107.63-95.74,129.7l-88,55-118.09,73.77a20.67,20.67,0,0,0-8.06,28.09C-309.72,286.92-309.5,287.29-309.27,287.64Z" transform="translate(361.54 -1.32)" style="fill:url(#linear-gradient)"/><path id="Path_82" data-name="Path 82" d="M173,59.72a23,23,0,1,1-23,23A23,23,0,0,1,173,59.72Z" transform="translate(361.54 -1.32)" style="fill:url(#linear-gradient-2)"/><path id="Path_81" data-name="Path 81" d="M254.64,316l33.77-19.5a18.5,18.5,0,1,1,18.5,32l-33.77,19.5a18.5,18.5,0,1,1-18.5-32Z" transform="translate(361.54 -1.32)" style="fill:url(#linear-gradient-3)"/></g></g></svg>