<svg xmlns="http://www.w3.org/2000/svg" xmlns:xlink="http://www.w3.org/1999/xlink" viewBox="0 0 339 502">
  <defs>
    <style>
      .cls-1 {
        fill: #fff;
        stroke: #707070;
      }

      .cls-2 {
        clip-path: url(#clip-path);
      }

      .cls-3 {
        fill: url(#linear-gradient);
      }

      .cls-4 {
        fill: url(#linear-gradient-2);
      }

      .cls-5 {
        fill: url(#linear-gradient-3);
      }
    </style>
    <clipPath id="clip-path">
      <rect id="Rectangle_150" data-name="Rectangle 150" class="cls-1" width="339" height="502" transform="translate(1581 2401)"/>
    </clipPath>
    <linearGradient id="linear-gradient" x1="0.428" y1="0.445" x2="0.226" y2="0.715" gradientUnits="objectBoundingBox">
      <stop offset="0" stop-color="#49317d"/>
      <stop offset="1" stop-color="#5549ae"/>
    </linearGradient>
    <linearGradient id="linear-gradient-2" x1="0.5" x2="0.5" y2="1" gradientUnits="objectBoundingBox">
      <stop offset="0" stop-color="#1cbcb7"/>
      <stop offset="1" stop-color="#48e9e5"/>
    </linearGradient>
    <linearGradient id="linear-gradient-3" x1="0.5" x2="0.5" y2="1" gradientUnits="objectBoundingBox">
      <stop offset="0" stop-color="#3e4d8f"/>
      <stop offset="1" stop-color="#2f5e95"/>
    </linearGradient>
  </defs>
  <g id="forma_2" data-name="forma 2" class="cls-2" transform="translate(-1581 -2401)">
    <path id="Path_79" data-name="Path 79" class="cls-3" d="M595.589,242.636h0a21.229,21.229,0,0,0-30.117,0L520.406,287.7a21.23,21.23,0,0,1-30.117,0h0a21.23,21.23,0,0,1,0-30.117L579.1,168.772a21.3,21.3,0,0,0-30.117-30.117l-43.307,43.307a21.3,21.3,0,0,1-30.117-30.117l9.673-9.673,105.74-105.74A21.3,21.3,0,1,0,560.855,6.315L454.9,112.055l-62.653,62.653a21.229,21.229,0,0,1-30.117,0h0a21.229,21.229,0,0,1,0-30.117l62.652-62.653a21.3,21.3,0,0,0-30.117-30.117L291.779,154.7a21.3,21.3,0,0,1-30.117-30.117L279.249,107a21.3,21.3,0,0,0-30.117-30.117L47.764,278.249a21.3,21.3,0,0,0,30.117,30.117l29.238-29.238a21.3,21.3,0,0,1,30.117,30.117L6.215,439.827a21.3,21.3,0,0,0,30.117,30.117L111.3,394.981a21.229,21.229,0,0,1,30.117,0h0a21.23,21.23,0,0,1,0,30.117L66.45,500.062,18.086,548.425a21.229,21.229,0,0,0,0,30.117h0a21.229,21.229,0,0,0,30.117,0l48.363-48.363,95.847-95.847a21.3,21.3,0,1,1,30.117,30.117l-17.587,17.587a21.3,21.3,0,0,0,30.117,30.117l23.083-23.082,29.238-29.238a21.361,21.361,0,0,1,25.94-3.3l1.1.879,3.3,2.638a21.365,21.365,0,0,1-.22,29.9l-52.54,52.54-39.13,39.35a21.3,21.3,0,0,0,30.117,30.117l39.13-39.35,98.485-98.486,29.458-29.458,73.425-73.424,98.485-98.485A20.676,20.676,0,0,0,595.589,242.636Z" transform="translate(1736.952 2238.423) rotate(17)"/>
    <circle id="Ellipse_88" data-name="Ellipse 88" class="cls-4" cx="23" cy="23" r="23" transform="matrix(-0.998, -0.07, 0.07, -0.998, 1761.294, 2839.839)"/>
    <rect id="Rectangle_145" data-name="Rectangle 145" class="cls-5" width="76" height="37" rx="18.5" transform="matrix(-0.899, 0.438, -0.438, -0.899, 1691.42, 2568.74)"/>
  </g>
</svg>
